<svg xmlns="http://www.w3.org/2000/svg" xmlns:xlink="http://www.w3.org/1999/xlink" width="1280" zoomAndPan="magnify" viewBox="0 0 960 959.999988" height="1280" preserveAspectRatio="xMidYMid meet" version="1.0"><path fill="#bfbebd" d="M 307.621094 58.351562 C 307.402344 58.410156 307.183594 58.46875 306.96875 58.53125 C 307.183594 58.46875 307.402344 58.410156 307.621094 58.351562 Z M 308.28125 58.175781 C 308.085938 58.230469 307.890625 58.28125 307.695312 58.335938 C 307.890625 58.28125 308.085938 58.230469 308.28125 58.175781 Z M 308.953125 57.996094 C 308.773438 58.042969 308.59375 58.09375 308.40625 58.140625 C 308.59375 58.09375 308.773438 58.042969 308.953125 57.996094 Z M 309.609375 57.824219 C 309.433594 57.871094 309.261719 57.914062 309.082031 57.960938 C 309.261719 57.914062 309.433594 57.871094 309.609375 57.824219 Z M 310.253906 57.660156 C 310.085938 57.703125 309.929688 57.742188 309.765625 57.789062 C 309.929688 57.742188 310.085938 57.703125 310.253906 57.660156 Z M 310.90625 57.496094 C 310.738281 57.53125 310.582031 57.578125 310.425781 57.613281 C 310.582031 57.578125 310.738281 57.53125 310.90625 57.496094 Z M 311.542969 57.335938 C 311.386719 57.375 311.226562 57.414062 311.070312 57.457031 C 311.226562 57.414062 311.386719 57.375 311.542969 57.335938 Z M 312.171875 57.179688 C 312.015625 57.21875 311.859375 57.253906 311.699219 57.300781 C 311.859375 57.253906 312.015625 57.21875 312.171875 57.179688 Z M 312.839844 57.023438 C 312.667969 57.058594 312.496094 57.105469 312.328125 57.140625 C 312.496094 57.105469 312.667969 57.058594 312.839844 57.023438 Z M 306.945312 58.539062 C 285.511719 64.363281 253.058594 75.824219 251.78125 64.238281 C 253.058594 75.824219 285.511719 64.363281 306.945312 58.539062 Z M 314.730469 56.59375 C 314.339844 56.675781 313.941406 56.765625 313.539062 56.859375 C 313.941406 56.765625 314.339844 56.675781 314.730469 56.59375 Z M 315.292969 56.476562 C 315.105469 56.511719 314.917969 56.550781 314.730469 56.59375 C 314.917969 56.550781 315.105469 56.511719 315.292969 56.476562 Z M 315.839844 56.363281 C 315.703125 56.386719 315.5625 56.414062 315.425781 56.445312 C 315.5625 56.414062 315.703125 56.386719 315.839844 56.363281 Z M 316.378906 56.257812 C 316.261719 56.28125 316.140625 56.300781 316.019531 56.324219 C 316.140625 56.300781 316.261719 56.28125 316.378906 56.257812 Z M 316.90625 56.152344 C 316.800781 56.175781 316.6875 56.199219 316.582031 56.210938 C 316.6875 56.199219 316.800781 56.175781 316.90625 56.152344 Z M 317.421875 56.0625 C 317.324219 56.078125 317.21875 56.101562 317.113281 56.113281 C 317.21875 56.101562 317.324219 56.078125 317.421875 56.0625 Z M 317.925781 55.980469 C 317.828125 55.996094 317.730469 56.011719 317.632812 56.023438 C 317.730469 56.011719 317.828125 55.996094 317.925781 55.980469 Z M 318.421875 55.898438 C 318.324219 55.914062 318.234375 55.925781 318.136719 55.941406 C 318.234375 55.925781 318.324219 55.914062 318.421875 55.898438 Z M 318.890625 55.828125 C 318.800781 55.84375 318.710938 55.851562 318.621094 55.867188 C 318.710938 55.851562 318.800781 55.84375 318.890625 55.828125 Z M 319.351562 55.769531 C 319.265625 55.777344 319.183594 55.792969 319.101562 55.800781 C 319.183594 55.792969 319.265625 55.777344 319.351562 55.769531 Z M 319.808594 55.71875 C 319.726562 55.726562 319.640625 55.734375 319.558594 55.746094 C 319.640625 55.734375 319.726562 55.726562 319.808594 55.71875 Z M 320.234375 55.671875 C 320.160156 55.679688 320.085938 55.6875 320.003906 55.695312 C 320.085938 55.6875 320.160156 55.679688 320.234375 55.671875 Z M 320.664062 55.636719 C 320.585938 55.640625 320.511719 55.648438 320.429688 55.648438 C 320.511719 55.648438 320.585938 55.640625 320.664062 55.636719 Z M 321.066406 55.605469 C 320.992188 55.613281 320.917969 55.621094 320.84375 55.621094 C 320.917969 55.621094 320.992188 55.613281 321.066406 55.605469 Z M 321.457031 55.589844 C 321.390625 55.589844 321.316406 55.597656 321.238281 55.597656 C 321.316406 55.597656 321.390625 55.589844 321.457031 55.589844 Z M 321.839844 55.582031 C 321.765625 55.582031 321.699219 55.582031 321.628906 55.582031 C 321.699219 55.582031 321.765625 55.582031 321.839844 55.582031 Z M 313.492188 56.871094 C 313.3125 56.910156 313.125 56.953125 312.9375 57 C 313.125 56.953125 313.3125 56.910156 313.492188 56.871094 Z M 322.566406 55.597656 C 322.492188 55.589844 322.417969 55.589844 322.34375 55.582031 C 322.417969 55.589844 322.492188 55.589844 322.566406 55.597656 Z M 322.996094 55.628906 C 322.898438 55.613281 322.785156 55.605469 322.679688 55.605469 C 322.785156 55.605469 322.898438 55.613281 322.996094 55.628906 Z M 322.199219 55.582031 C 322.132812 55.582031 322.066406 55.582031 321.988281 55.582031 C 322.066406 55.582031 322.132812 55.582031 322.199219 55.582031 Z M 955.980469 417.628906 C 943.515625 321.5625 902.648438 234.40625 842.070312 164.863281 C 841.253906 163.933594 840.433594 162.996094 839.617188 162.066406 C 839.355469 161.78125 839.101562 161.496094 838.84375 161.203125 C 838.613281 160.949219 838.378906 160.6875 838.15625 160.433594 C 837.808594 160.042969 837.472656 159.660156 837.128906 159.285156 C 836.761719 158.871094 836.386719 158.460938 836.015625 158.046875 C 835.679688 157.679688 835.34375 157.304688 835.003906 156.9375 C 834.863281 156.78125 834.726562 156.628906 834.585938 156.480469 C 834.210938 156.058594 833.828125 155.648438 833.453125 155.234375 C 832.980469 154.726562 832.507812 154.214844 832.042969 153.710938 C 831.78125 153.433594 831.523438 153.15625 831.269531 152.878906 C 831.195312 152.804688 831.128906 152.730469 831.058594 152.65625 C 831 152.59375 830.949219 152.535156 830.894531 152.484375 C 830.390625 151.941406 829.890625 151.402344 829.378906 150.871094 C 829.035156 150.503906 828.683594 150.128906 828.335938 149.761719 C 828.140625 149.558594 827.953125 149.355469 827.761719 149.152344 C 827.527344 148.914062 827.296875 148.664062 827.0625 148.425781 C 826.84375 148.199219 826.628906 147.976562 826.417969 147.75 C 826.191406 147.515625 825.976562 147.292969 825.757812 147.058594 C 825.261719 146.550781 824.765625 146.039062 824.273438 145.53125 C 824.039062 145.289062 823.800781 145.042969 823.566406 144.800781 C 823.417969 144.652344 823.273438 144.503906 823.132812 144.351562 C 822.945312 144.171875 822.765625 143.984375 822.585938 143.804688 C 821.878906 143.078125 821.160156 142.359375 820.449219 141.636719 C 820.359375 141.539062 820.265625 141.449219 820.171875 141.359375 C 819.945312 141.136719 819.71875 140.902344 819.496094 140.675781 C 818.894531 140.085938 818.300781 139.492188 817.703125 138.898438 C 817.460938 138.660156 817.214844 138.421875 816.976562 138.179688 C 816.847656 138.050781 816.71875 137.925781 816.59375 137.796875 C 816.40625 137.617188 816.226562 137.4375 816.046875 137.257812 C 815.65625 136.875 815.265625 136.5 814.875 136.125 C 814.671875 135.921875 814.460938 135.71875 814.261719 135.523438 C 813.75 135.03125 813.246094 134.542969 812.738281 134.054688 C 812.4375 133.761719 812.136719 133.476562 811.828125 133.183594 C 811.738281 133.09375 811.640625 132.996094 811.546875 132.90625 C 810.546875 131.953125 809.542969 131.003906 808.539062 130.058594 C 808.417969 129.945312 808.289062 129.824219 808.171875 129.710938 C 807.097656 128.707031 806.03125 127.71875 804.953125 126.726562 C 804.636719 126.433594 804.316406 126.140625 804 125.851562 C 802.875 124.824219 801.75 123.796875 800.609375 122.773438 C 800.390625 122.578125 800.167969 122.386719 799.949219 122.183594 C 798.960938 121.304688 797.96875 120.421875 796.972656 119.542969 C 796.664062 119.273438 796.359375 119.003906 796.050781 118.734375 C 794.910156 117.734375 793.761719 116.738281 792.609375 115.746094 C 792.328125 115.507812 792.039062 115.261719 791.753906 115.019531 C 790.761719 114.171875 789.773438 113.332031 788.773438 112.492188 C 788.503906 112.261719 788.226562 112.027344 787.957031 111.800781 C 786.789062 110.828125 785.617188 109.851562 784.441406 108.890625 C 784.125 108.621094 783.800781 108.359375 783.480469 108.105469 C 782.429688 107.242188 781.371094 106.386719 780.316406 105.539062 C 780.121094 105.375 779.917969 105.21875 779.714844 105.050781 C 778.515625 104.09375 777.316406 103.140625 776.109375 102.195312 C 775.769531 101.933594 775.433594 101.671875 775.09375 101.40625 C 773.886719 100.460938 772.671875 99.515625 771.449219 98.585938 C 771.328125 98.488281 771.210938 98.398438 771.089844 98.308594 C 769.925781 97.425781 768.765625 96.546875 767.59375 95.671875 C 767.257812 95.414062 766.921875 95.160156 766.582031 94.914062 C 765.351562 93.988281 764.113281 93.082031 762.878906 92.175781 C 762.644531 92.003906 762.414062 91.828125 762.171875 91.664062 C 761.535156 91.199219 760.898438 90.734375 760.253906 90.269531 C 743.542969 78.238281 725.992188 67.214844 707.714844 57.351562 C 700.386719 53.390625 692.941406 49.621094 685.378906 46.035156 C 623.113281 16.515625 553.484375 -0.0078125 480 -0.0078125 C 434.363281 -0.0078125 390.210938 6.375 348.382812 18.277344 C 348.203125 18.472656 348.007812 18.652344 347.820312 18.742188 C 345.472656 19.53125 343.230469 20.078125 340.90625 20.476562 C 336.800781 21.710938 332.730469 23.003906 328.679688 24.34375 C 323.445312 26.085938 318.253906 27.90625 313.101562 29.820312 C 293.054688 37.253906 273.636719 45.988281 254.953125 55.925781 C 254.859375 56.054688 254.761719 56.175781 254.671875 56.296875 C 254.765625 56.167969 254.859375 56.046875 254.953125 55.925781 C 244.074219 61.71875 233.4375 67.914062 223.074219 74.496094 C 207.238281 84.546875 192.046875 95.511719 177.539062 107.296875 C 161.578125 120.253906 146.484375 134.234375 132.316406 149.109375 C 110.542969 171.976562 91.003906 196.988281 74.046875 223.800781 C 57.414062 250.09375 43.273438 278.121094 31.941406 307.550781 C 25.484375 324.316406 19.925781 341.527344 15.359375 359.136719 C 5.339844 397.746094 0 438.246094 0 480 C 0 488.941406 0.253906 497.820312 0.742188 506.640625 C 2.617188 540.878906 8.0625 574.171875 16.746094 606.128906 C 24.195312 633.546875 34.019531 659.992188 45.976562 685.230469 C 46.640625 686.640625 47.316406 688.042969 47.992188 689.445312 C 48.21875 689.894531 48.441406 690.34375 48.660156 690.796875 C 49.125 691.746094 49.597656 692.699219 50.070312 693.652344 C 50.324219 694.175781 50.585938 694.695312 50.851562 695.210938 C 51.300781 696.105469 51.75 696.996094 52.207031 697.890625 C 52.46875 698.40625 52.738281 698.925781 53.003906 699.449219 C 53.484375 700.378906 53.96875 701.308594 54.449219 702.234375 C 54.691406 702.691406 54.929688 703.148438 55.171875 703.605469 C 55.84375 704.886719 56.527344 706.171875 57.21875 707.445312 C 57.261719 707.535156 57.316406 707.625 57.359375 707.714844 C 58.09375 709.078125 58.835938 710.4375 59.585938 711.789062 C 59.828125 712.222656 60.074219 712.664062 60.316406 713.101562 C 60.832031 714.023438 61.351562 714.945312 61.867188 715.867188 C 62.152344 716.378906 62.445312 716.886719 62.730469 717.390625 C 63.226562 718.253906 63.71875 719.109375 64.214844 719.960938 C 64.507812 720.472656 64.800781 720.988281 65.101562 721.492188 C 65.617188 722.386719 66.140625 723.277344 66.667969 724.171875 C 66.9375 724.621094 67.207031 725.070312 67.46875 725.519531 C 68.183594 726.703125 68.886719 727.882812 69.609375 729.058594 C 69.691406 729.210938 69.78125 729.351562 69.871094 729.503906 C 70.671875 730.816406 71.484375 732.128906 72.300781 733.441406 C 72.554688 733.851562 72.816406 734.257812 73.074219 734.671875 C 73.640625 735.578125 74.210938 736.484375 74.78125 737.386719 C 75.097656 737.871094 75.40625 738.351562 75.71875 738.839844 C 76.253906 739.671875 76.792969 740.511719 77.332031 741.34375 C 77.65625 741.832031 77.96875 742.320312 78.292969 742.816406 C 78.855469 743.671875 79.425781 744.53125 79.996094 745.386719 C 80.289062 745.828125 80.574219 746.265625 80.863281 746.699219 C 81.609375 747.800781 82.351562 748.914062 83.101562 750.007812 C 83.21875 750.1875 83.339844 750.367188 83.46875 750.539062 C 84.335938 751.816406 85.214844 753.082031 86.09375 754.351562 C 86.363281 754.734375 86.625 755.109375 86.894531 755.484375 C 87.515625 756.375 88.148438 757.265625 88.777344 758.152344 C 89.109375 758.609375 89.4375 759.074219 89.765625 759.53125 C 90.34375 760.34375 90.9375 761.160156 91.523438 761.96875 C 91.859375 762.433594 92.199219 762.898438 92.542969 763.363281 C 93.148438 764.199219 93.765625 765.03125 94.378906 765.863281 C 94.695312 766.273438 95.003906 766.695312 95.316406 767.109375 C 96.097656 768.15625 96.886719 769.207031 97.671875 770.242188 C 97.824219 770.429688 97.957031 770.617188 98.101562 770.8125 C 99.046875 772.042969 99.984375 773.265625 100.933594 774.488281 C 101.199219 774.824219 101.46875 775.164062 101.730469 775.5 C 102.421875 776.386719 103.109375 777.261719 103.808594 778.140625 C 104.152344 778.566406 104.488281 778.996094 104.835938 779.421875 C 105.464844 780.21875 106.101562 781.011719 106.738281 781.800781 C 107.101562 782.234375 107.453125 782.675781 107.8125 783.113281 C 108.472656 783.921875 109.132812 784.734375 109.800781 785.535156 C 110.121094 785.925781 110.445312 786.324219 110.773438 786.710938 C 111.609375 787.710938 112.441406 788.707031 113.28125 789.699219 C 113.4375 789.886719 113.59375 790.074219 113.753906 790.261719 C 114.757812 791.445312 115.761719 792.621094 116.78125 793.800781 C 117.039062 794.101562 117.300781 794.390625 117.554688 794.683594 C 118.3125 795.5625 119.078125 796.433594 119.84375 797.300781 C 120.1875 797.691406 120.539062 798.082031 120.886719 798.480469 C 121.574219 799.261719 122.265625 800.03125 122.960938 800.804688 C 123.328125 801.210938 123.691406 801.613281 124.058594 802.019531 C 124.769531 802.808594 125.488281 803.59375 126.210938 804.375 C 126.539062 804.742188 126.871094 805.109375 127.207031 805.46875 C 128.09375 806.421875 128.976562 807.382812 129.871094 808.335938 C 130.035156 808.507812 130.199219 808.679688 130.363281 808.859375 C 131.4375 810 132.515625 811.132812 133.597656 812.257812 C 133.828125 812.503906 134.070312 812.746094 134.300781 812.992188 C 135.140625 813.863281 135.988281 814.734375 136.828125 815.59375 C 137.183594 815.953125 137.535156 816.308594 137.886719 816.667969 C 138.628906 817.425781 139.378906 818.183594 140.136719 818.941406 C 140.503906 819.316406 140.878906 819.683594 141.246094 820.058594 C 142.019531 820.824219 142.792969 821.578125 143.566406 822.34375 C 143.902344 822.675781 144.238281 823.003906 144.578125 823.34375 C 145.523438 824.257812 146.46875 825.171875 147.414062 826.085938 C 147.578125 826.246094 147.742188 826.410156 147.90625 826.566406 C 148.636719 827.257812 149.355469 827.949219 150.082031 828.636719 C 150.15625 828.703125 150.246094 828.789062 150.335938 828.871094 C 150.667969 829.191406 151.003906 829.507812 151.34375 829.828125 C 151.546875 830.011719 151.746094 830.199219 151.949219 830.386719 C 152.878906 831.261719 153.808594 832.132812 154.746094 832.996094 C 155.09375 833.308594 155.4375 833.625 155.78125 833.949219 C 156.511719 834.609375 157.230469 835.261719 157.949219 835.921875 C 158.113281 836.070312 158.273438 836.210938 158.4375 836.355469 C 158.738281 836.625 159.039062 836.902344 159.335938 837.171875 C 160.171875 837.914062 161.003906 838.65625 161.835938 839.390625 C 161.894531 839.445312 161.949219 839.496094 162.007812 839.550781 C 162.136719 839.664062 162.269531 839.78125 162.398438 839.894531 C 162.546875 840.03125 162.699219 840.15625 162.847656 840.292969 C 163.851562 841.175781 164.859375 842.054688 165.871094 842.933594 C 166.027344 843.066406 166.183594 843.210938 166.34375 843.34375 C 167.550781 844.386719 168.765625 845.429688 169.980469 846.457031 C 170.128906 846.585938 170.28125 846.703125 170.429688 846.832031 C 170.746094 847.101562 171.03125 847.335938 171.316406 847.574219 C 172.058594 848.203125 172.808594 848.828125 173.558594 849.449219 C 173.871094 849.710938 174.1875 849.976562 174.511719 850.238281 C 174.800781 850.484375 175.09375 850.726562 175.386719 850.964844 C 175.996094 851.460938 176.59375 851.953125 177.203125 852.449219 C 177.5625 852.742188 177.929688 853.035156 178.289062 853.335938 C 179.191406 854.054688 180.082031 854.773438 180.984375 855.496094 C 181.3125 855.757812 181.636719 856.019531 181.964844 856.273438 C 182.421875 856.640625 182.886719 857.003906 183.34375 857.371094 C 183.667969 857.625 183.988281 857.871094 184.3125 858.128906 C 184.613281 858.359375 184.914062 858.601562 185.210938 858.832031 C 185.355469 858.9375 185.488281 859.050781 185.625 859.15625 C 186.238281 859.636719 186.855469 860.101562 187.46875 860.574219 C 187.808594 860.835938 188.144531 861.097656 188.484375 861.351562 C 188.8125 861.609375 189.148438 861.871094 189.480469 862.117188 C 189.546875 862.171875 189.621094 862.230469 189.691406 862.28125 C 190.859375 863.167969 192.039062 864.050781 193.214844 864.929688 C 193.515625 865.15625 193.816406 865.378906 194.113281 865.605469 C 194.941406 866.210938 195.773438 866.828125 196.605469 867.441406 C 196.835938 867.613281 197.078125 867.789062 197.308594 867.960938 C 197.558594 868.140625 197.804688 868.3125 198.050781 868.5 C 198.976562 869.167969 199.898438 869.828125 200.820312 870.496094 C 201.195312 870.757812 201.5625 871.027344 201.9375 871.289062 C 203.085938 872.109375 204.238281 872.925781 205.402344 873.734375 C 205.507812 873.808594 205.613281 873.886719 205.726562 873.960938 C 207.21875 875.003906 208.710938 876.039062 210.21875 877.058594 C 210.609375 877.320312 210.996094 877.582031 211.378906 877.84375 C 212.144531 878.363281 212.917969 878.878906 213.691406 879.398438 C 213.945312 879.570312 214.199219 879.742188 214.460938 879.90625 C 214.933594 880.222656 215.332031 880.492188 215.730469 880.753906 C 216.375 881.183594 217.011719 881.601562 217.65625 882.023438 C 217.972656 882.226562 218.289062 882.425781 218.601562 882.636719 C 219.03125 882.914062 219.457031 883.199219 219.890625 883.476562 C 220.550781 883.90625 221.167969 884.296875 221.78125 884.683594 C 222.058594 884.863281 222.335938 885.046875 222.609375 885.21875 C 223.132812 885.546875 223.65625 885.886719 224.183594 886.214844 C 224.59375 886.476562 225.015625 886.734375 225.425781 886.996094 C 225.75 887.199219 226.074219 887.40625 226.402344 887.601562 C 226.460938 887.648438 226.523438 887.683594 226.582031 887.722656 C 227.25 888.136719 227.917969 888.546875 228.585938 888.960938 C 229.011719 889.222656 229.441406 889.484375 229.867188 889.746094 C 231.253906 890.59375 232.640625 891.433594 234.03125 892.265625 C 234.074219 892.296875 234.128906 892.328125 234.171875 892.351562 C 234.425781 892.507812 234.683594 892.648438 234.9375 892.808594 C 235.132812 892.921875 235.328125 893.03125 235.515625 893.152344 C 236.503906 893.730469 237.488281 894.316406 238.476562 894.890625 C 238.777344 895.066406 239.085938 895.246094 239.386719 895.417969 C 239.550781 895.515625 239.707031 895.605469 239.863281 895.695312 C 240.898438 896.296875 241.933594 896.886719 242.976562 897.480469 C 243.425781 897.734375 243.878906 897.996094 244.328125 898.253906 C 245.714844 899.03125 247.101562 899.8125 248.496094 900.578125 C 248.578125 900.621094 248.664062 900.667969 248.738281 900.710938 C 250.191406 901.515625 251.640625 902.300781 253.101562 903.082031 C 253.558594 903.328125 254.023438 903.578125 254.488281 903.824219 C 255.308594 904.261719 256.117188 904.695312 256.933594 905.121094 C 257.039062 905.175781 257.144531 905.226562 257.25 905.289062 C 257.390625 905.363281 257.542969 905.4375 257.683594 905.511719 C 258.15625 905.761719 258.628906 906.007812 259.101562 906.253906 C 259.808594 906.621094 260.511719 906.984375 261.21875 907.351562 C 261.421875 907.449219 261.621094 907.550781 261.816406 907.648438 C 262.3125 907.90625 262.808594 908.160156 263.300781 908.414062 C 263.421875 908.46875 263.542969 908.535156 263.65625 908.59375 C 264.335938 908.933594 265.019531 909.277344 265.695312 909.613281 C 265.792969 909.660156 265.890625 909.710938 265.988281 909.757812 C 266.039062 909.789062 266.09375 909.808594 266.144531 909.832031 C 266.773438 910.148438 267.40625 910.460938 268.035156 910.777344 C 268.515625 911.011719 269.003906 911.25 269.484375 911.484375 C 270.554688 912.007812 271.636719 912.53125 272.714844 913.050781 C 273.203125 913.28125 273.691406 913.515625 274.183594 913.746094 C 274.914062 914.101562 275.648438 914.445312 276.382812 914.789062 C 276.636719 914.910156 276.890625 915.03125 277.15625 915.148438 C 277.574219 915.34375 277.996094 915.546875 278.421875 915.742188 C 278.574219 915.808594 278.714844 915.878906 278.863281 915.945312 C 279.960938 916.453125 281.070312 916.964844 282.171875 917.460938 C 282.554688 917.632812 282.914062 917.796875 283.273438 917.953125 C 283.769531 918.179688 284.265625 918.40625 284.761719 918.621094 C 285.621094 919.003906 286.484375 919.386719 287.347656 919.761719 C 287.601562 919.882812 287.863281 919.988281 288.121094 920.109375 C 288.59375 920.308594 289.074219 920.519531 289.550781 920.722656 C 290.578125 921.171875 291.609375 921.609375 292.636719 922.050781 C 292.90625 922.164062 293.167969 922.273438 293.4375 922.386719 C 293.574219 922.449219 293.714844 922.507812 293.851562 922.566406 C 294.015625 922.636719 294.179688 922.703125 294.335938 922.769531 C 295.738281 923.363281 297.148438 923.941406 298.566406 924.515625 C 298.679688 924.5625 298.792969 924.613281 298.90625 924.660156 C 299.378906 924.855469 299.859375 925.042969 300.328125 925.230469 C 301.433594 925.679688 302.542969 926.121094 303.652344 926.566406 C 303.71875 926.585938 303.78125 926.609375 303.847656 926.640625 C 304.011719 926.699219 304.175781 926.765625 304.34375 926.835938 C 304.621094 926.949219 304.914062 927.058594 305.191406 927.171875 C 306.652344 927.742188 308.113281 928.304688 309.585938 928.867188 C 309.742188 928.925781 309.90625 928.988281 310.066406 929.046875 C 311.578125 929.617188 313.09375 930.179688 314.609375 930.742188 C 314.902344 930.847656 315.1875 930.953125 315.480469 931.058594 C 315.710938 931.148438 315.953125 931.230469 316.183594 931.3125 C 317.300781 931.71875 318.421875 932.121094 319.546875 932.519531 C 320.03125 932.691406 320.511719 932.863281 321.007812 933.039062 C 321.136719 933.082031 321.269531 933.128906 321.40625 933.179688 C 322.792969 933.660156 324.179688 934.140625 325.566406 934.613281 C 325.738281 934.671875 325.914062 934.734375 326.078125 934.785156 C 326.265625 934.851562 326.453125 934.914062 326.648438 934.972656 C 326.953125 935.078125 327.261719 935.183594 327.578125 935.289062 C 328.613281 935.632812 329.648438 935.976562 330.683594 936.316406 C 331.171875 936.472656 331.65625 936.636719 332.152344 936.789062 C 332.460938 936.890625 332.765625 936.988281 333.082031 937.09375 C 333.953125 937.371094 334.828125 937.648438 335.699219 937.925781 C 336.226562 938.09375 336.757812 938.257812 337.28125 938.421875 C 337.648438 938.535156 338.023438 938.65625 338.398438 938.765625 C 338.511719 938.804688 338.625 938.835938 338.738281 938.871094 C 339.773438 939.1875 340.808594 939.503906 341.835938 939.816406 C 342 939.863281 342.164062 939.914062 342.324219 939.960938 C 342.78125 940.09375 343.238281 940.230469 343.695312 940.363281 C 344.078125 940.476562 344.460938 940.589844 344.84375 940.703125 C 345.5625 940.914062 346.289062 941.121094 347.011719 941.332031 C 347.542969 941.484375 348.066406 941.632812 348.59375 941.78125 C 349.09375 941.925781 349.597656 942.074219 350.101562 942.210938 C 350.789062 942.40625 351.449219 942.585938 352.109375 942.765625 C 352.636719 942.914062 353.167969 943.066406 353.699219 943.207031 C 354.316406 943.371094 354.929688 943.539062 355.550781 943.703125 C 355.703125 943.738281 355.84375 943.785156 355.996094 943.824219 C 356.773438 944.03125 357.578125 944.242188 358.371094 944.453125 C 358.515625 944.488281 358.648438 944.527344 358.785156 944.558594 C 360.382812 944.976562 361.980469 945.382812 363.585938 945.78125 C 364.109375 945.914062 364.640625 946.042969 365.175781 946.171875 C 366.367188 946.460938 367.558594 946.753906 368.761719 947.039062 C 369.292969 947.167969 369.824219 947.296875 370.351562 947.414062 C 371.949219 947.789062 373.546875 948.15625 375.148438 948.511719 C 375.261719 948.53125 375.367188 948.5625 375.480469 948.585938 C 377.113281 948.945312 378.75 949.296875 380.386719 949.640625 C 380.917969 949.761719 381.449219 949.867188 381.976562 949.980469 C 383.199219 950.234375 384.421875 950.484375 385.640625 950.722656 C 386.167969 950.828125 386.699219 950.933594 387.234375 951.039062 C 388.859375 951.359375 390.496094 951.675781 392.136719 951.976562 C 392.226562 951.988281 392.316406 952.003906 392.40625 952.027344 C 394.074219 952.335938 395.746094 952.628906 397.410156 952.921875 C 397.941406 953.011719 398.46875 953.101562 399 953.191406 C 400.246094 953.398438 401.488281 953.601562 402.734375 953.804688 C 403.265625 953.894531 403.792969 953.976562 404.324219 954.058594 C 405.988281 954.328125 407.671875 954.585938 409.34375 954.832031 C 409.410156 954.847656 409.476562 954.855469 409.539062 954.863281 C 411.238281 955.117188 412.933594 955.351562 414.644531 955.582031 C 415.171875 955.65625 415.703125 955.726562 416.226562 955.792969 C 417.496094 955.964844 418.761719 956.121094 420.03125 956.289062 C 420.5625 956.347656 421.085938 956.414062 421.621094 956.484375 C 423.324219 956.683594 425.03125 956.886719 426.742188 957.074219 C 426.789062 957.082031 426.832031 957.089844 426.878906 957.089844 C 428.601562 957.285156 430.335938 957.464844 432.066406 957.628906 C 432.601562 957.683594 433.125 957.734375 433.648438 957.789062 C 434.941406 957.90625 436.230469 958.027344 437.519531 958.140625 C 438.050781 958.183594 438.578125 958.230469 439.109375 958.28125 C 440.851562 958.425781 442.589844 958.566406 444.335938 958.695312 C 446.160156 958.828125 447.914062 958.941406 449.683594 959.054688 C 450.210938 959.085938 450.734375 959.113281 451.261719 959.144531 C 452.574219 959.226562 453.878906 959.296875 455.191406 959.363281 C 455.722656 959.390625 456.246094 959.414062 456.773438 959.445312 C 458.542969 959.527344 460.320312 959.609375 462.097656 959.671875 C 463.890625 959.738281 465.675781 959.789062 467.460938 959.835938 C 467.984375 959.851562 468.515625 959.859375 469.050781 959.871094 C 470.371094 959.902344 471.699219 959.925781 473.023438 959.949219 C 473.558594 959.953125 474.089844 959.960938 474.613281 959.96875 C 476.40625 959.984375 478.207031 960 480 960 C 498.066406 960 515.902344 959.003906 533.445312 957.050781 C 533.496094 957.050781 533.550781 957.046875 533.59375 957.039062 C 533.765625 957.023438 533.933594 957 534.105469 956.976562 C 535.695312 956.796875 537.277344 956.617188 538.859375 956.421875 C 539.363281 956.363281 539.863281 956.296875 540.359375 956.234375 C 541.769531 956.054688 543.179688 955.875 544.589844 955.679688 C 544.949219 955.636719 545.316406 955.589844 545.675781 955.539062 C 547.402344 955.304688 549.121094 955.058594 550.835938 954.800781 C 551.257812 954.742188 551.671875 954.675781 552.082031 954.613281 C 553.449219 954.414062 554.804688 954.203125 556.164062 953.984375 C 556.648438 953.902344 557.136719 953.828125 557.625 953.746094 C 559.351562 953.46875 561.066406 953.183594 562.785156 952.882812 C 564.511719 952.582031 566.21875 952.273438 567.929688 951.953125 C 568.410156 951.871094 568.890625 951.78125 569.371094 951.683594 C 570.726562 951.433594 572.078125 951.171875 573.425781 950.902344 C 573.824219 950.828125 574.222656 950.746094 574.621094 950.671875 C 576.316406 950.324219 578.011719 949.980469 579.703125 949.628906 C 580.042969 949.550781 580.378906 949.476562 580.71875 949.402344 C 582.113281 949.109375 583.5 948.800781 584.886719 948.496094 C 585.351562 948.390625 585.816406 948.285156 586.289062 948.179688 C 587.859375 947.828125 589.417969 947.46875 590.984375 947.101562 C 591.113281 947.070312 591.238281 947.039062 591.367188 947.011719 C 593.0625 946.605469 594.75 946.191406 596.4375 945.773438 C 596.863281 945.660156 597.292969 945.554688 597.710938 945.449219 C 599.0625 945.105469 600.40625 944.761719 601.746094 944.414062 C 602.136719 944.308594 602.535156 944.203125 602.925781 944.109375 C 604.605469 943.65625 606.285156 943.207031 607.949219 942.75 C 608.175781 942.691406 608.398438 942.621094 608.617188 942.5625 C 610.078125 942.15625 611.535156 941.746094 612.988281 941.324219 C 613.425781 941.199219 613.867188 941.070312 614.300781 940.941406 C 615.765625 940.523438 617.21875 940.09375 618.675781 939.652344 C 618.886719 939.585938 619.09375 939.523438 619.304688 939.464844 C 620.96875 938.960938 622.621094 938.445312 624.277344 937.925781 C 624.652344 937.808594 625.027344 937.6875 625.402344 937.566406 C 626.730469 937.148438 628.058594 936.71875 629.386719 936.285156 C 629.78125 936.15625 630.179688 936.03125 630.578125 935.894531 C 632.21875 935.347656 633.871094 934.800781 635.503906 934.238281 C 635.601562 934.207031 635.699219 934.171875 635.796875 934.140625 C 637.328125 933.613281 638.859375 933.082031 640.378906 932.542969 C 640.808594 932.386719 641.226562 932.234375 641.65625 932.085938 C 643.003906 931.605469 644.347656 931.117188 645.691406 930.621094 C 645.984375 930.511719 646.273438 930.40625 646.566406 930.300781 C 648.171875 929.707031 649.777344 929.101562 651.375 928.492188 C 651.726562 928.359375 652.074219 928.222656 652.433594 928.085938 C 653.707031 927.59375 654.976562 927.097656 656.25 926.59375 C 656.683594 926.421875 657.121094 926.25 657.546875 926.078125 C 659.136719 925.449219 660.710938 924.808594 662.289062 924.164062 C 718.621094 901.019531 769.566406 867.464844 812.761719 825.898438 C 827.761719 811.46875 841.808594 796.058594 854.835938 779.789062 C 906.464844 715.328125 941.835938 637.273438 954.660156 551.828125 C 958.175781 528.398438 960 504.414062 960 480 C 960 458.859375 958.628906 438.046875 955.980469 417.628906 " fill-opacity="1" fill-rule="nonzero"/><path fill="#727173" d="M 960 480 C 960 504.414062 958.175781 528.398438 954.660156 551.828125 C 941.835938 637.273438 906.464844 715.328125 854.835938 779.789062 C 841.808594 796.058594 827.761719 811.46875 812.761719 825.898438 C 769.566406 867.464844 718.621094 901.019531 662.289062 924.164062 C 621.816406 940.792969 578.574219 952.050781 533.445312 957.058594 C 536.488281 942.953125 534.578125 927.5625 542.40625 914.683594 C 553.132812 897.066406 575.511719 887.175781 588.644531 869.046875 C 599.902344 853.507812 606.757812 838.695312 610.3125 820.6875 C 614.941406 797.257812 623.191406 772.304688 643.835938 756.308594 C 661.941406 742.273438 676.132812 742.460938 692.199219 722.144531 C 723.734375 682.265625 696.789062 636.335938 671.371094 595.769531 C 644.953125 553.613281 653.65625 535.558594 666.644531 494.113281 C 675.628906 465.425781 654.847656 443.488281 654.5625 412.949219 C 654.308594 385.824219 660.414062 359.984375 656.476562 333.800781 C 652.109375 304.636719 647.691406 274.921875 662.578125 251.878906 C 680.503906 224.136719 710.886719 213.863281 722.78125 187.460938 C 733.589844 163.484375 738.832031 141.523438 763.117188 127.515625 C 773.210938 121.695312 784.800781 119.566406 796.882812 119.46875 C 812.933594 133.582031 828.03125 148.746094 842.070312 164.863281 C 902.648438 234.40625 943.515625 321.5625 955.980469 417.628906 C 958.628906 438.046875 960 458.859375 960 480 " fill-opacity="1" fill-rule="nonzero"/><path fill="#82624d" d="M 533.878906 204.765625 C 540.726562 218.894531 537.554688 249.203125 522.675781 258.066406 C 503.136719 269.707031 470.488281 254.390625 449.203125 266.691406 C 428.390625 278.714844 436.957031 322.253906 445.648438 340.074219 C 456.726562 362.765625 498.261719 369.988281 475.816406 395.746094 C 465.773438 407.265625 449.753906 416.664062 435.128906 414.734375 C 419.316406 412.648438 407.003906 392.511719 391.933594 401.535156 C 376.867188 410.550781 373.867188 438.015625 374.011719 452.675781 C 374.203125 473.015625 380.398438 482.191406 390.253906 498.839844 C 397.207031 510.578125 394.378906 518.984375 398.738281 531.097656 C 401.851562 539.730469 409.914062 547.53125 415.15625 555.105469 C 423.253906 566.804688 437.273438 586.851562 441.878906 600.292969 C 446.96875 615.148438 434.933594 623.015625 421.363281 630.390625 C 404.765625 639.414062 401.226562 632.175781 385.589844 624.21875 C 374.96875 618.816406 357.324219 600.652344 348.292969 600.1875 C 348.136719 612.773438 345.890625 631.363281 353.210938 642.148438 C 362.871094 656.40625 391.507812 660.328125 408.15625 663.960938 C 399.1875 684.601562 406.980469 713.113281 404.8125 735.449219 C 393.316406 737.011719 382.140625 734.316406 371.398438 733.726562 C 368.820312 748.035156 392.316406 768.710938 378.996094 776.675781 C 358.726562 788.804688 339.984375 760.90625 322.6875 764.65625 C 312.546875 791.25 329.226562 829.175781 315.773438 852.878906 C 303.269531 846.269531 295.515625 834.351562 283.785156 827.476562 C 267.832031 818.136719 261.929688 827.941406 254.738281 806.371094 C 245.460938 778.539062 245.371094 746.113281 240.578125 717.136719 C 238.433594 704.175781 238.417969 686.511719 231.734375 674.78125 C 222.457031 658.5 216.921875 670.558594 202.171875 667.71875 C 198.976562 653.519531 208.222656 586.148438 188.136719 586.710938 C 192.539062 557.707031 200.429688 527.953125 192.878906 497.683594 C 189.164062 500.632812 184.90625 502.925781 180.628906 504.210938 C 179.804688 484.648438 210.039062 464.714844 221.707031 452.011719 C 239.820312 432.285156 256.589844 412.199219 273.007812 391.109375 C 284.054688 376.925781 292.777344 364.597656 294.058594 346.410156 C 294.578125 339.179688 297.9375 317.46875 290.738281 313.296875 C 287.332031 311.324219 271.589844 317.632812 268.171875 318.667969 C 264.636719 306.585938 267.660156 291.96875 266.753906 279.328125 C 256.710938 283.761719 241.058594 287.511719 231.082031 284.519531 C 245.804688 269.316406 257.039062 253.664062 273.472656 241.417969 C 289.191406 229.703125 324.878906 208.261719 344.21875 210.699219 C 344.0625 222.59375 336.703125 229.726562 331.492188 240.667969 C 341.101562 235.851562 415.71875 182.0625 420.300781 207.367188 C 431.429688 203.714844 440.390625 186.539062 450.832031 179.054688 C 462.136719 170.953125 498.53125 160.996094 508.140625 172.3125 C 513.488281 177.414062 514.28125 183.375 518.648438 188.871094 C 523.484375 194.953125 530.234375 197.25 533.878906 204.765625 Z M 253.027344 58.746094 C 252.996094 58.800781 252.976562 58.859375 252.945312 58.914062 C 252.976562 58.859375 252.996094 58.800781 253.027344 58.746094 Z M 253.425781 58.058594 C 253.378906 58.140625 253.335938 58.222656 253.28125 58.304688 C 253.335938 58.222656 253.378906 58.140625 253.425781 58.058594 Z M 253.875 57.367188 C 253.808594 57.464844 253.746094 57.5625 253.679688 57.667969 C 253.746094 57.5625 253.808594 57.464844 253.875 57.367188 Z M 254.378906 56.671875 C 254.296875 56.773438 254.21875 56.886719 254.136719 56.992188 C 254.21875 56.886719 254.296875 56.773438 254.378906 56.671875 Z M 251.835938 62.257812 C 251.84375 62.203125 251.851562 62.152344 251.859375 62.109375 C 251.851562 62.152344 251.84375 62.203125 251.835938 62.257812 Z M 251.761719 62.992188 C 251.761719 62.953125 251.761719 62.917969 251.765625 62.878906 C 251.761719 62.917969 251.761719 62.953125 251.761719 62.992188 Z M 680.175781 83.578125 C 674.476562 69.691406 692.8125 64.824219 706.066406 65.484375 C 707.160156 62.953125 707.640625 60.21875 707.714844 57.351562 C 700.386719 53.390625 692.941406 49.621094 685.378906 46.035156 C 623.113281 16.515625 553.484375 -0.0078125 480 -0.0078125 C 434.363281 -0.0078125 390.210938 6.375 348.382812 18.277344 C 348.203125 18.472656 348.007812 18.652344 347.820312 18.742188 C 345.472656 19.53125 343.230469 20.078125 340.90625 20.476562 C 336.800781 21.710938 332.730469 23.003906 328.679688 24.34375 C 323.445312 26.085938 318.253906 27.90625 313.101562 29.820312 C 293.054688 37.253906 273.636719 45.988281 254.953125 55.925781 C 254.859375 56.054688 254.761719 56.175781 254.671875 56.296875 C 254.746094 56.199219 254.820312 56.101562 254.894531 56.003906 C 244.050781 61.734375 233.429688 67.921875 223.074219 74.496094 C 207.238281 84.546875 192.046875 95.511719 177.539062 107.296875 C 161.578125 120.253906 146.484375 134.234375 132.316406 149.109375 C 110.542969 171.976562 91.003906 196.988281 74.046875 223.800781 C 57.414062 250.09375 43.273438 278.121094 31.941406 307.550781 C 25.484375 324.316406 19.925781 341.527344 15.359375 359.136719 C 5.339844 397.746094 0 438.246094 0 480 C 0 488.941406 0.253906 497.820312 0.742188 506.640625 C 2.617188 540.878906 8.0625 574.171875 16.746094 606.128906 C 24.195312 633.546875 34.019531 659.992188 45.976562 685.230469 C 92.039062 782.484375 169.835938 861.789062 265.988281 909.757812 C 294.488281 923.984375 324.609375 935.453125 355.996094 943.824219 C 336.742188 933.675781 318.703125 922.191406 297.441406 916.859375 C 284.339844 913.574219 274.265625 912.59375 266.484375 908.761719 C 258.203125 904.6875 252.503906 897.398438 248.503906 880.695312 C 244.6875 864.742188 247.273438 858.96875 234.046875 847.230469 C 226.304688 840.367188 212.664062 832.875 203.332031 828 C 180.105469 815.859375 150.425781 804.984375 140.992188 778.320312 C 129.105469 744.742188 132.34375 704.566406 132.34375 669.128906 C 132.34375 653.804688 134.289062 635.796875 126.855469 622.238281 C 112.574219 596.175781 79.972656 587.949219 67.34375 559.253906 C 57.488281 536.886719 59.863281 514.132812 67.769531 491.871094 C 74.421875 473.144531 76.996094 456 73.921875 432.984375 C 70.996094 411.140625 61.453125 391.453125 59.199219 370.273438 C 53.804688 319.65625 70.988281 277.273438 119.347656 257.511719 C 140.167969 249 158.566406 245.078125 164.851562 221.941406 C 169.738281 203.960938 162.449219 188.503906 170.953125 170.632812 C 187.800781 135.234375 231.335938 119.902344 244.207031 86.011719 C 246.90625 78.90625 249.195312 71.519531 251.78125 64.238281 C 253.476562 79.628906 310.15625 54.367188 322.996094 55.628906 C 334.703125 86.519531 297.53125 104.21875 301.3125 134.257812 C 320.542969 136.550781 336.9375 120.351562 353.527344 122.949219 C 354.765625 143.804688 347.820312 172.394531 363.351562 187.851562 C 386.625 170.574219 425.511719 164.25 451.964844 150.367188 C 472.679688 139.492188 477.503906 139.539062 499.140625 149.820312 C 523.191406 161.257812 520.941406 159.914062 532.640625 140.664062 C 539.765625 128.933594 535.027344 126.136719 552.808594 126.789062 C 567.390625 127.328125 584.617188 134.738281 599.527344 136.378906 C 599.820312 126.433594 599.527344 116.289062 600.015625 106.363281 C 636.53125 95.242188 680.015625 110.175781 717.585938 107.789062 C 712.949219 94.613281 685.246094 95.953125 680.175781 83.578125 " fill-opacity="1" fill-rule="nonzero"/><path fill="#82624d" d="M 423.601562 803.003906 C 440.039062 803.003906 465.644531 808.125 482.871094 802.988281 C 482.386719 802.996094 481.898438 803.003906 481.410156 803.003906 C 462.832031 803.003906 440.242188 803.003906 423.601562 803.003906 Z M 823.898438 603.140625 C 821.558594 621.757812 812.121094 640.777344 795.585938 650.039062 C 777.546875 660.136719 753.683594 648.007812 738.546875 657.683594 C 721.550781 668.542969 712.636719 696.425781 692.25 702.113281 C 687.421875 703.453125 683.859375 703.289062 681.074219 702.105469 C 675.878906 711.164062 665.265625 720.308594 658.933594 725.585938 C 649.835938 733.183594 634.574219 737.453125 626.925781 745.980469 C 653.332031 748.335938 683.796875 739.546875 708.621094 731.355469 C 731.949219 723.667969 756.953125 716.886719 779.332031 707.054688 C 776.648438 719.160156 754.027344 726.1875 743.730469 730.078125 C 723.660156 737.664062 703.289062 743.09375 682.828125 749.183594 C 653.863281 757.808594 622.988281 761.25 593.558594 766.027344 C 602.183594 778.410156 645.878906 772.546875 659.160156 773.558594 C 681.644531 775.265625 703.957031 774.988281 726.523438 775.613281 C 727.230469 792.113281 645.570312 793.828125 629.085938 793.859375 C 630.097656 805.703125 661.261719 823.808594 670.078125 829.726562 C 685.265625 839.925781 703.402344 852.351562 721.265625 857.25 C 702.824219 861.246094 675.21875 848.828125 657.765625 840.503906 C 642.996094 833.460938 628.273438 824.609375 614.347656 816.023438 C 606.976562 811.476562 594.824219 800.078125 587.992188 806.078125 C 583.246094 810.246094 585.421875 823.230469 579.9375 827.804688 C 573.324219 823.84375 572.84375 812.234375 567.570312 809.023438 C 561.121094 805.101562 548.863281 815.421875 541.90625 818.488281 C 511.621094 831.863281 478.71875 843.699219 447.652344 853.53125 C 457.027344 847.515625 468.21875 847.019531 478.253906 842.683594 C 486.898438 838.957031 496.753906 833.167969 504.601562 828.058594 C 514.753906 821.445312 527.210938 811.84375 531.300781 801.128906 C 516.113281 799.671875 498.636719 802.800781 482.871094 802.988281 C 490.171875 800.820312 495.96875 796.808594 498.929688 789.789062 C 483.058594 787.417969 467.445312 780.1875 451.191406 777.34375 C 447.960938 776.773438 442.15625 777.75 439.230469 776.746094 C 434.886719 775.261719 432.570312 771.667969 428.265625 769.492188 C 419.03125 764.835938 407.578125 762.652344 397.828125 759.097656 C 373.933594 750.390625 350.527344 738.984375 329.039062 726.015625 C 316.640625 718.539062 282.015625 703.011719 278.609375 687.480469 C 297.472656 693.449219 314.65625 705.226562 331.964844 714.335938 C 350.851562 724.28125 373.679688 733.664062 394.46875 739.117188 C 414.886719 744.472656 435.9375 747.816406 456.359375 753.585938 C 478.460938 759.824219 503.503906 760.476562 524.550781 767.675781 C 514.378906 748.859375 488.496094 740.160156 472.109375 726.324219 C 458.902344 715.171875 449.210938 699.449219 445.035156 682.628906 C 462.953125 701.960938 488.011719 714.007812 510.847656 726.398438 C 522.9375 732.953125 537.691406 740.765625 550.828125 743.871094 C 557.210938 719.28125 536.054688 699.03125 528.496094 677.675781 C 538.09375 691.914062 550.636719 704.070312 561.457031 717.089844 C 565.296875 721.710938 569.0625 726.308594 572.699219 731.023438 C 574.460938 733.3125 579.066406 742.761719 581.324219 743.925781 C 596.753906 751.867188 618.816406 735.097656 631.238281 727.640625 C 647.046875 718.148438 662.804688 710.085938 676.914062 699.082031 C 672.171875 693.886719 670.335938 684.636719 665.339844 677.78125 C 650.746094 687.308594 617.664062 703.589844 617.886719 675.929688 C 618.113281 647.851562 638.859375 624.78125 640.921875 597.75 C 643.09375 569.289062 627.675781 567.921875 614.332031 547.492188 C 602.878906 529.964844 612.414062 511.425781 629.40625 501.496094 C 651.082031 488.835938 682.914062 490.890625 703.246094 474.496094 C 724.648438 457.222656 707.46875 444.007812 688.378906 437.851562 C 668.902344 431.558594 663.699219 425.503906 676.183594 407.730469 C 687.613281 391.476562 693.179688 385.539062 692.40625 363.554688 C 690.945312 322.09375 676.132812 284.941406 676.148438 242.765625 C 685.53125 246.855469 689.640625 246.261719 693.425781 256.546875 C 699.308594 272.496094 694.394531 276.414062 710.371094 284.398438 C 722.113281 290.273438 736.933594 295.261719 743.484375 307.769531 C 746.414062 313.378906 751.695312 329.347656 739.957031 328.328125 C 739.289062 350.773438 739.558594 371.003906 752.070312 389.078125 C 760.882812 401.804688 765.503906 405.097656 780.75 405.359375 C 795.300781 405.613281 811.042969 398.046875 824.183594 399.78125 C 822.449219 419.03125 820.566406 432.914062 804.773438 446.078125 C 796.132812 453.285156 785.371094 454.769531 778.957031 463.957031 C 775.605469 468.765625 773.992188 478.222656 770.96875 483.800781 C 766.363281 492.300781 761.925781 500.070312 753.128906 505.058594 C 746.722656 508.695312 734.585938 506.859375 729.511719 510.996094 C 718.523438 519.945312 723.449219 544.410156 723.570312 557.078125 C 723.847656 585.382812 740.640625 586.996094 767.503906 586.914062 C 776.453125 586.890625 812.714844 581.308594 820.28125 586.792969 C 824.714844 590.011719 824.691406 596.859375 823.898438 603.140625 " fill-opacity="1" fill-rule="nonzero"/><path fill="#727173" d="M 444.121094 871.207031 C 444.121094 875.085938 449.355469 878.21875 455.804688 878.21875 C 462.261719 878.21875 467.488281 875.085938 467.488281 871.207031 C 467.488281 867.335938 462.261719 864.195312 455.804688 864.195312 C 449.355469 864.195312 444.121094 867.335938 444.121094 871.207031 Z M 525.074219 886.859375 C 525.074219 891.628906 532.65625 895.5 542.011719 895.5 C 551.371094 895.5 558.945312 891.628906 558.945312 886.859375 C 558.945312 882.089844 551.371094 878.21875 542.011719 878.21875 C 532.65625 878.21875 525.074219 882.089844 525.074219 886.859375 Z M 329.8125 350.355469 C 338.011719 350.355469 344.648438 340.371094 344.648438 328.066406 C 344.648438 315.75 338.011719 305.773438 329.8125 305.773438 C 321.621094 305.773438 314.984375 315.75 314.984375 328.066406 C 314.984375 340.371094 321.621094 350.355469 329.8125 350.355469 Z M 513.757812 630.914062 C 513.757812 642.023438 522.765625 651.03125 533.871094 651.03125 C 544.988281 651.03125 553.988281 642.023438 553.988281 630.914062 C 553.988281 619.808594 544.988281 610.800781 533.871094 610.800781 C 522.765625 610.800781 513.757812 619.808594 513.757812 630.914062 Z M 501.703125 415.792969 C 501.703125 426.121094 508.726562 434.488281 517.386719 434.488281 C 526.042969 434.488281 533.0625 426.121094 533.0625 415.792969 C 533.0625 405.464844 526.042969 397.09375 517.386719 397.09375 C 508.726562 397.09375 501.703125 405.464844 501.703125 415.792969 Z M 547.800781 450.59375 C 547.800781 459.488281 556.101562 466.703125 566.347656 466.703125 C 576.585938 466.703125 584.886719 459.488281 584.886719 450.59375 C 584.886719 441.699219 576.585938 434.488281 566.347656 434.488281 C 556.101562 434.488281 547.800781 441.699219 547.800781 450.59375 Z M 411 531.742188 C 411 537.082031 415.328125 541.410156 420.667969 541.410156 C 426.007812 541.410156 430.335938 537.082031 430.335938 531.742188 C 430.335938 526.410156 426.007812 522.074219 420.667969 522.074219 C 415.328125 522.074219 411 526.410156 411 531.742188 Z M 462.570312 364.769531 C 462.570312 356.804688 456.121094 350.355469 448.15625 350.355469 C 440.191406 350.355469 433.738281 356.804688 433.738281 364.769531 C 433.738281 372.726562 440.191406 379.183594 448.15625 379.183594 C 456.121094 379.183594 462.570312 372.726562 462.570312 364.769531 Z M 411 181.925781 C 423.554688 181.925781 433.738281 171.75 433.738281 159.1875 C 433.738281 146.632812 423.554688 136.453125 411 136.453125 C 398.445312 136.453125 388.265625 146.632812 388.265625 159.1875 C 388.265625 171.75 398.445312 181.925781 411 181.925781 Z M 480.367188 118.949219 C 483.808594 118.949219 486.601562 116.160156 486.601562 112.710938 C 486.601562 109.265625 483.808594 106.476562 480.367188 106.476562 C 476.917969 106.476562 474.128906 109.265625 474.128906 112.710938 C 474.128906 116.160156 476.917969 118.949219 480.367188 118.949219 Z M 552.121094 92.761719 C 558.710938 92.761719 564.058594 88.664062 564.058594 83.617188 C 564.058594 78.570312 558.710938 74.46875 552.121094 74.46875 C 545.527344 74.46875 540.179688 78.570312 540.179688 83.617188 C 540.179688 88.664062 545.527344 92.761719 552.121094 92.761719 Z M 430.335938 70.914062 C 437.011719 70.914062 442.425781 67.957031 442.425781 64.3125 C 442.425781 60.660156 437.011719 57.703125 430.335938 57.703125 C 423.652344 57.703125 418.246094 60.660156 418.246094 64.3125 C 418.246094 67.957031 423.652344 70.914062 430.335938 70.914062 Z M 849.59375 287.347656 C 859.972656 287.347656 868.386719 276.890625 868.386719 263.976562 C 868.386719 251.070312 859.972656 240.609375 849.59375 240.609375 C 839.210938 240.609375 830.789062 251.070312 830.789062 263.976562 C 830.789062 276.890625 839.210938 287.347656 849.59375 287.347656 Z M 653.789062 819.285156 C 662.773438 819.285156 670.050781 814.734375 670.050781 809.121094 C 670.050781 803.511719 662.773438 798.960938 653.789062 798.960938 C 644.8125 798.960938 637.539062 803.511719 637.539062 809.121094 C 637.539062 814.734375 644.8125 819.285156 653.789062 819.285156 Z M 385.859375 875.511719 C 396.523438 875.511719 405.164062 871.597656 405.164062 866.765625 C 405.164062 861.9375 396.523438 858.023438 385.859375 858.023438 C 375.195312 858.023438 366.546875 861.9375 366.546875 866.765625 C 366.546875 871.597656 375.195312 875.511719 385.859375 875.511719 Z M 220.222656 691.925781 C 212.363281 691.925781 205.996094 699.660156 205.996094 709.199219 C 205.996094 718.738281 212.363281 726.472656 220.222656 726.472656 C 228.074219 726.472656 234.449219 718.738281 234.449219 709.199219 C 234.449219 699.660156 228.074219 691.925781 220.222656 691.925781 Z M 479.011719 314.414062 C 479.011719 322.546875 485.609375 329.144531 493.738281 329.144531 C 501.886719 329.144531 508.476562 322.546875 508.476562 314.414062 C 508.476562 306.269531 501.886719 299.675781 493.738281 299.675781 C 485.609375 299.675781 479.011719 306.269531 479.011719 314.414062 Z M 601.628906 267.15625 C 612.855469 267.15625 621.953125 258.058594 621.953125 246.832031 C 621.953125 235.613281 612.855469 226.507812 601.628906 226.507812 C 590.40625 226.507812 581.300781 235.613281 581.300781 246.832031 C 581.300781 258.058594 590.40625 267.15625 601.628906 267.15625 Z M 545.398438 160.964844 C 545.398438 169.289062 552.148438 176.039062 560.476562 176.039062 C 568.800781 176.039062 575.550781 169.289062 575.550781 160.964844 C 575.550781 152.640625 568.800781 145.890625 560.476562 145.890625 C 552.148438 145.890625 545.398438 152.640625 545.398438 160.964844 Z M 820.109375 623.496094 C 813.1875 623.496094 807.578125 633.359375 807.578125 645.515625 C 807.578125 657.675781 813.1875 667.539062 820.109375 667.539062 C 827.03125 667.539062 832.640625 657.675781 832.640625 645.515625 C 832.640625 633.359375 827.03125 623.496094 820.109375 623.496094 Z M 794.699219 437.542969 C 794.699219 432.488281 789.546875 428.390625 783.1875 428.390625 C 776.828125 428.390625 771.667969 432.488281 771.667969 437.542969 C 771.667969 442.589844 776.828125 446.683594 783.1875 446.683594 C 789.546875 446.683594 794.699219 442.589844 794.699219 437.542969 Z M 706.808594 631.289062 C 718.125 631.289062 727.296875 622.117188 727.296875 610.800781 C 727.296875 599.484375 718.125 590.300781 706.808594 590.300781 C 695.484375 590.300781 686.308594 599.484375 686.308594 610.800781 C 686.308594 622.117188 695.484375 631.289062 706.808594 631.289062 Z M 479.011719 539.324219 C 479.011719 545.59375 484.085938 550.671875 490.359375 550.671875 C 496.621094 550.671875 501.703125 545.59375 501.703125 539.324219 C 501.703125 533.0625 496.621094 527.976562 490.359375 527.976562 C 484.085938 527.976562 479.011719 533.0625 479.011719 539.324219 Z M 453.261719 305.773438 C 459.253906 305.773438 464.109375 300.921875 464.109375 294.929688 C 464.109375 288.945312 459.253906 284.09375 453.261719 284.09375 C 447.277344 284.09375 442.425781 288.945312 442.425781 294.929688 C 442.425781 300.921875 447.277344 305.773438 453.261719 305.773438 Z M 246.644531 372.164062 C 246.644531 362.0625 242.699219 353.871094 237.832031 353.871094 C 232.972656 353.871094 229.027344 362.0625 229.027344 372.164062 C 229.027344 382.265625 232.972656 390.457031 237.832031 390.457031 C 242.699219 390.457031 246.644531 382.265625 246.644531 372.164062 Z M 157.898438 514.09375 C 157.898438 525.878906 163.808594 535.433594 171.105469 535.433594 C 178.402344 535.433594 184.3125 525.878906 184.3125 514.09375 C 184.3125 502.304688 178.402344 492.75 171.105469 492.75 C 163.808594 492.75 157.898438 502.304688 157.898438 514.09375 Z M 756.171875 770.339844 C 761.648438 770.339844 766.078125 765.898438 766.078125 760.433594 C 766.078125 754.957031 761.648438 750.523438 756.171875 750.523438 C 750.699219 750.523438 746.265625 754.957031 746.265625 760.433594 C 746.265625 765.898438 750.699219 770.339844 756.171875 770.339844 Z M 960 480 C 960 504.414062 958.175781 528.398438 954.660156 551.828125 C 941.835938 637.273438 906.464844 715.328125 854.835938 779.789062 C 841.808594 796.058594 827.761719 811.46875 812.761719 825.898438 C 769.566406 867.464844 718.621094 901.019531 662.289062 924.164062 C 606.082031 947.257812 544.53125 960 480 960 C 352.207031 960 236.078125 910.058594 150.066406 828.621094 C 161.460938 836.828125 173.226562 844.546875 185.332031 851.746094 C 173.578125 836.933594 159.066406 823.507812 147.914062 808.222656 C 134.828125 790.265625 113.992188 771.945312 105.816406 751.148438 C 98.609375 732.808594 124.785156 729.007812 124.546875 708.1875 C 124.28125 685.695312 90.496094 678.898438 76.34375 663.511719 C 65.210938 651.40625 57.277344 630.472656 61.066406 613.988281 C 62.722656 606.796875 70.941406 603.140625 67.734375 593.707031 C 64.191406 583.328125 45.539062 577.546875 36.40625 571.035156 C 10.835938 552.839844 9.890625 520.15625 9.351562 490.246094 C 9.066406 474.179688 5.203125 469.628906 20.113281 467.625 C 25.738281 466.867188 36.585938 471.914062 42.171875 469.15625 C 60.703125 459.984375 47.820312 418.53125 47.289062 403.191406 C 46.328125 375.773438 44.421875 340.066406 59.78125 316.003906 C 73.746094 315 77.625 285.621094 81.816406 274.574219 C 88.726562 256.402344 96.246094 237.929688 105.773438 221.175781 C 111.914062 223.90625 113.503906 231.015625 116.308594 237.1875 C 142.898438 232.222656 147.570312 170.078125 157.261719 149.859375 C 175.183594 112.476562 217.230469 85.671875 251.640625 66.53125 C 256.800781 86.414062 255.757812 105.539062 255.976562 126.007812 C 268.171875 129.03125 283.914062 116.625 294.613281 112.972656 C 300.433594 126.734375 295.417969 151.058594 287.234375 163.289062 C 279.839844 174.34375 252.808594 180.449219 259.359375 196.53125 C 281.671875 197.4375 292.671875 192.226562 311.011719 183.292969 C 294.367188 208.550781 266.8125 202.785156 240.726562 204.800781 C 206.664062 207.433594 170.796875 226.925781 145.5 249.503906 C 135.636719 258.308594 107.933594 306.523438 140.296875 301.183594 C 150.601562 320.28125 137.558594 347.113281 126.726562 366.421875 C 127.164062 368.226562 127.410156 370.15625 127.410156 372.164062 C 127.410156 382.265625 121.34375 390.457031 113.859375 390.457031 C 113.617188 390.457031 113.378906 390.441406 113.136719 390.425781 C 107.488281 400.664062 102.089844 410.960938 97.109375 421.476562 C 99.039062 424.265625 100.3125 429.050781 100.3125 434.488281 C 100.3125 443.09375 97.125 450.066406 93.195312 450.066406 C 90.824219 450.066406 88.734375 447.53125 87.433594 443.625 C 85.515625 448.453125 83.699219 453.335938 82.003906 458.300781 C 79.882812 464.527344 72.140625 479.199219 75.652344 485.835938 C 80.109375 494.265625 81.988281 486.503906 88.191406 488.910156 C 103.289062 494.761719 104.414062 521.054688 106.566406 537.75 C 109.476562 560.347656 105.121094 600.375 124.546875 616.132812 C 132.921875 622.925781 141.886719 621.15625 148.640625 630.871094 C 161.421875 649.246094 157.027344 680.910156 157.027344 701.789062 C 157.035156 734.371094 151.386719 773.519531 157.808594 804.90625 C 164.601562 802.378906 167.746094 795.375 171.539062 790.71875 C 180.058594 801.210938 185.886719 813.046875 193.378906 823.417969 C 196.214844 820.875 200.21875 819.285156 204.675781 819.285156 C 213.261719 819.285156 220.222656 825.195312 220.222656 832.492188 C 220.222656 836.675781 217.925781 840.40625 214.359375 842.828125 C 215.925781 843.675781 217.558594 844.46875 219.292969 845.199219 C 236.78125 852.59375 250.890625 849.703125 266.46875 864.40625 C 278.085938 875.378906 274.289062 879.929688 277.5 893.714844 C 277.53125 893.835938 277.558594 893.960938 277.589844 894.082031 C 325.574219 910.183594 376.933594 918.90625 430.335938 918.90625 C 494.863281 918.90625 556.417969 906.164062 612.621094 883.074219 C 620.167969 879.976562 627.613281 876.683594 634.964844 873.210938 C 631.175781 871.148438 628.726562 867.878906 628.726562 864.195312 C 628.726562 857.949219 635.78125 852.878906 644.476562 852.878906 C 651.511719 852.878906 657.464844 856.191406 659.488281 860.765625 C 697.410156 840.121094 732.234375 814.507812 763.09375 784.808594 C 778.09375 770.378906 792.140625 754.964844 805.171875 738.699219 C 833.902344 702.816406 857.601562 662.730469 875.183594 619.492188 C 874.402344 616.851562 873.96875 613.90625 873.96875 610.800781 C 873.96875 599.960938 879.246094 591.097656 885.9375 590.363281 C 894.457031 564.710938 900.886719 538.101562 904.996094 510.734375 C 908.511719 487.304688 910.335938 463.320312 910.335938 438.90625 C 910.335938 417.773438 908.96875 396.953125 906.316406 376.539062 C 893.851562 280.46875 852.984375 193.3125 792.40625 123.78125 C 782.226562 112.101562 771.503906 100.914062 760.253906 90.269531 C 790.320312 111.929688 817.785156 136.988281 842.070312 164.863281 C 902.648438 234.40625 943.515625 321.5625 955.980469 417.628906 C 958.628906 438.046875 960 458.859375 960 480 " fill-opacity="1" fill-rule="nonzero"/></svg>