<svg xmlns="http://www.w3.org/2000/svg" xmlns:xlink="http://www.w3.org/1999/xlink" width="1280" zoomAndPan="magnify" viewBox="0 0 960 959.999988" height="1280" preserveAspectRatio="xMidYMid meet" version="1.0"><defs><clipPath id="d474164eb3"><path d="M 16 15.25 L 944.5 15.25 L 944.5 944 L 16 944 Z M 16 15.25 " clip-rule="nonzero"/></clipPath><clipPath id="47b8abd522"><path d="M 16 15.25 L 478 15.25 L 478 944 L 16 944 Z M 16 15.25 " clip-rule="nonzero"/></clipPath></defs><g clip-path="url(#d474164eb3)"><path fill="#a4988a" d="M 444.429688 943.101562 C 333.285156 934.261719 229.832031 886.742188 151.746094 808.652344 C 78.367188 735.273438 31.539062 638.660156 19.203125 535.1875 C 15.195312 501.566406 15.195312 458.277344 19.203125 424.660156 C 29.058594 342.007812 62.417969 260.9375 113.738281 194.957031 C 140.492188 160.558594 177.425781 125.054688 211.359375 101.113281 C 243.011719 78.785156 279.394531 59.199219 313.234375 46.277344 C 367.316406 25.621094 421.527344 15.710938 480.472656 15.710938 C 533.214844 15.710938 578.273438 22.957031 628.957031 39.582031 C 653.988281 47.792969 684.257812 61.550781 713.535156 78.019531 C 725.929688 84.992188 752.308594 102.65625 763.992188 111.808594 C 794.363281 135.597656 824.796875 165.996094 848.222656 195.949219 C 856.019531 205.921875 871.125 227.914062 877.90625 239.171875 C 894.191406 266.207031 913.023438 307.058594 921.769531 334.320312 C 937.738281 384.101562 944.683594 428.226562 944.683594 479.929688 C 944.683594 557.683594 927.921875 626.078125 892.042969 694.742188 C 868.640625 739.527344 844.042969 772.976562 808.265625 808.65625 C 771.464844 845.359375 733.03125 873.015625 685.660156 896.871094 C 634.867188 922.453125 575.769531 938.464844 514.683594 943.191406 C 500.464844 944.289062 458.636719 944.246094 444.425781 943.113281 Z M 444.429688 943.101562 " fill-opacity="1" fill-rule="nonzero"/></g><path fill="#988977" d="M 448.757812 942.300781 C 444.792969 941.957031 441.097656 941.394531 440.542969 941.050781 C 439.988281 940.707031 434.800781 940.164062 429.007812 939.839844 C 398.152344 938.113281 347.753906 925.703125 307.960938 910.035156 C 294.453125 904.714844 264.976562 890.609375 252.378906 883.4375 C 216.046875 862.75 184.371094 838.410156 153.1875 807.226562 C 126.246094 780.285156 106.554688 755.738281 87.238281 725.015625 C 68.824219 695.722656 51.402344 658.753906 43.167969 631.492188 C 41.699219 626.632812 38.238281 615.304688 35.472656 606.316406 C 22.664062 564.679688 16.339844 519.464844 17.660156 478.976562 C 18.742188 445.734375 20.683594 424.683594 24.917969 400.167969 C 25.96875 394.085938 26.828125 388.785156 26.832031 388.386719 C 26.835938 387.984375 27.636719 388.15625 28.613281 388.765625 C 30.058594 389.667969 30.960938 389.449219 33.503906 387.570312 L 36.625 385.269531 L 38.734375 387.914062 C 39.898438 389.367188 41.316406 390.554688 41.894531 390.554688 C 43.664062 390.554688 47.066406 381.226562 47.675781 374.699219 C 48.234375 368.738281 48.164062 368.472656 45.847656 367.589844 C 44.523438 367.085938 43.164062 365.953125 42.824219 365.070312 C 41.636719 361.972656 45.238281 343.238281 50.996094 322.570312 C 57.261719 300.078125 66.179688 275.984375 74.203125 259.855469 C 93.632812 220.8125 139.210938 163.441406 177.253906 130.152344 C 196.949219 112.914062 222.027344 94.503906 239.722656 84.289062 C 283.90625 58.796875 301.972656 50.734375 342.5625 38.417969 C 394.816406 22.558594 432.085938 16.691406 480.535156 16.691406 C 551.542969 16.691406 622.910156 33.300781 683.757812 63.984375 C 730.523438 87.570312 767.953125 114.007812 805.007812 149.628906 C 814.453125 158.710938 822.800781 168.542969 821.0625 168.542969 C 820.761719 168.542969 816.128906 164.289062 810.765625 159.089844 C 799.359375 148.035156 787.660156 139.175781 770.097656 128.300781 C 749.789062 115.722656 746.878906 114.605469 731.964844 113.648438 C 725.011719 113.199219 715.125 112.109375 710 111.21875 C 702.363281 109.890625 700.40625 109.824219 699.1875 110.835938 C 697.167969 112.511719 697.171875 112.535156 701.496094 132.367188 C 703.589844 141.957031 705.804688 153.027344 706.421875 156.96875 C 707.308594 162.617188 708.847656 166.625 713.671875 175.875 C 720.109375 188.207031 720.878906 191.308594 718.117188 193.785156 C 714.96875 196.609375 710.140625 196.664062 696.683594 194.023438 C 682.40625 191.222656 669.125 190.027344 663.664062 191.050781 C 657.769531 192.15625 656.367188 194.355469 656.367188 202.492188 C 656.367188 211.710938 654.3125 217.546875 649.5625 221.84375 C 647.488281 223.714844 645.34375 225.25 644.796875 225.25 C 644.253906 225.25 638.886719 227.195312 632.871094 229.574219 C 623.523438 233.273438 620.945312 233.898438 615.09375 233.898438 C 600.972656 233.898438 593.542969 227.09375 593.589844 214.199219 C 593.648438 198.125 598.972656 192.894531 621.621094 186.660156 C 625.664062 185.546875 630.699219 184.152344 632.804688 183.558594 C 638.097656 182.070312 639.054688 179.105469 636.894531 170.875 C 634.074219 160.121094 629.28125 151.386719 619.652344 139.464844 C 614.636719 133.25 607.191406 123.214844 603.113281 117.164062 C 591.679688 100.214844 588.46875 98.042969 568.882812 94.054688 C 545.601562 89.316406 524.921875 80.761719 522.019531 74.671875 C 520.621094 71.742188 520.632812 71.058594 522.136719 66.285156 C 523.289062 62.625 523.609375 59.429688 523.210938 55.46875 C 522.347656 46.796875 522.039062 45.9375 519.34375 44.707031 C 514.839844 42.65625 503.667969 42.289062 495.382812 43.921875 C 482 46.558594 478.074219 46.664062 432.777344 45.558594 C 387.226562 44.445312 376.070312 44.816406 360.945312 47.949219 C 357.308594 48.703125 352.476562 50.214844 350.207031 51.3125 C 345.207031 53.734375 322.144531 76.421875 321.3125 79.742188 C 320.519531 82.898438 322.058594 84.464844 328.476562 87.03125 C 333.335938 88.976562 335.503906 89.203125 348.8125 89.15625 C 365.25 89.097656 369.421875 88.4375 387.738281 83.015625 C 403.792969 78.261719 408.945312 77.242188 416.925781 77.242188 C 429.21875 77.242188 436.695312 81.289062 441.476562 90.527344 C 443.808594 95.042969 451.121094 100.839844 456.675781 102.578125 C 459.464844 103.453125 468.015625 104.820312 475.679688 105.621094 C 493.433594 107.46875 498.863281 108.882812 510.941406 114.8125 C 522.164062 120.320312 528.636719 125.695312 534.992188 134.792969 C 541.070312 143.488281 544.828125 147.371094 555.277344 155.742188 C 565 163.535156 569.871094 169.925781 569.871094 174.902344 C 569.871094 181.554688 568.375 182.574219 553.300781 186.203125 C 536.902344 190.148438 527.917969 195.871094 522.507812 205.804688 C 518.863281 212.503906 518.4375 216.894531 520.742188 224.015625 C 521.804688 227.304688 523.164062 233.574219 523.757812 237.953125 C 525.117188 247.964844 527.214844 252.75 532.921875 258.851562 C 538.699219 265.027344 546.769531 270.09375 563.605469 278.117188 C 571.015625 281.648438 579.988281 286.324219 583.550781 288.511719 C 603.398438 300.703125 609.761719 302.582031 630.417969 302.332031 C 648.234375 302.113281 647.871094 302.050781 679.433594 311.1875 C 714.125 321.230469 715.457031 321.804688 727.488281 331.964844 C 738.699219 341.433594 744.171875 343.835938 761.128906 346.746094 C 768.792969 348.058594 780.675781 350.886719 787.53125 353.027344 C 804.101562 358.203125 820.136719 361.726562 827.082031 361.722656 C 837.292969 361.714844 841.210938 357.132812 844.101562 341.8125 C 845.179688 336.085938 846.945312 331.339844 850.53125 324.515625 C 854.792969 316.410156 855.394531 314.605469 854.890625 311.421875 C 854.144531 306.710938 851.46875 301.464844 845.496094 293.007812 C 835.9375 279.464844 806.996094 235.230469 805.253906 231.496094 C 804.265625 229.382812 803.449219 226.550781 803.4375 225.199219 C 803.40625 221.566406 812.441406 210.214844 816.40625 208.90625 C 819.667969 207.828125 821.035156 208.167969 834.359375 213.351562 C 838.242188 214.859375 839.335938 214.933594 842.246094 213.882812 C 846.886719 212.203125 849.644531 213.773438 859.34375 223.621094 C 864.066406 228.417969 867.871094 231.496094 869.074219 231.496094 C 871.488281 231.496094 877.917969 241.707031 889.644531 264.175781 C 925.363281 332.585938 942.777344 403.3125 942.777344 479.945312 C 942.777344 529.710938 936.234375 572.078125 920.949219 621.230469 C 914.003906 643.570312 899.1875 679.46875 896.554688 680.34375 C 895.714844 680.621094 893.710938 682.679688 892.101562 684.917969 C 888.214844 690.335938 873.625 717.664062 869.152344 727.910156 C 865.097656 737.203125 855.480469 752.050781 844.949219 765.289062 C 839.070312 772.675781 837.605469 774.027344 836.882812 772.738281 C 836.398438 771.871094 835.453125 771.160156 834.785156 771.160156 C 834.113281 771.160156 827.757812 777.300781 820.65625 784.804688 C 813.554688 792.3125 799.742188 806.71875 789.964844 816.824219 C 780.183594 826.929688 770.710938 837.335938 768.910156 839.949219 C 765.453125 844.964844 762.664062 847.304688 747.195312 858.160156 C 708.824219 885.089844 668.558594 905.679688 628.496094 918.851562 C 596.105469 929.507812 583.15625 932.382812 538.152344 938.917969 C 514.863281 942.300781 468.8125 944.050781 448.773438 942.316406 Z M 507.105469 924.945312 C 517.496094 922.449219 524.375 919.542969 534.296875 913.46875 C 538.789062 910.71875 545.167969 907.195312 548.472656 905.640625 C 551.777344 904.089844 557.246094 901.519531 560.628906 899.929688 C 568.5 896.238281 573.097656 891.234375 572.460938 887.0625 C 571.183594 878.734375 567.460938 866.039062 564.539062 860.046875 C 562.734375 856.347656 560.976562 851.804688 560.632812 849.957031 C 559.71875 845.023438 555.933594 837.921875 549.949219 829.910156 C 538.871094 815.082031 537.414062 807.105469 542.445312 788.925781 C 544.316406 782.171875 545.132812 776.886719 545.199219 771.144531 C 545.296875 762.414062 544.207031 759.113281 539.902344 755.09375 C 534.921875 750.445312 531.21875 749.703125 509.308594 748.976562 C 493.15625 748.4375 487.28125 747.882812 482.398438 746.425781 C 472.78125 743.554688 462.054688 738.777344 453.578125 733.578125 C 449.339844 730.980469 442.429688 726.742188 438.21875 724.164062 C 434.003906 721.582031 426.976562 716.167969 422.597656 712.128906 C 411.898438 702.269531 405.007812 698.855469 395.703125 698.804688 C 388.117188 698.765625 380.988281 700.496094 370.609375 704.898438 C 351.074219 713.1875 336.84375 709.828125 316.886719 692.21875 C 310.605469 686.675781 303.601562 681.542969 298.929688 679.050781 C 286.527344 672.445312 277.75 664.097656 272.460938 653.890625 C 266.292969 641.976562 244.273438 584.945312 240.789062 571.859375 C 237.644531 560.050781 233.511719 551.835938 222.296875 535.117188 C 209.164062 515.539062 209.203125 512.410156 222.679688 506.269531 C 231.441406 502.277344 233.175781 500.859375 235.503906 495.789062 C 240.355469 485.230469 234.863281 475.484375 221.726562 471.320312 C 216.402344 469.632812 213.285156 465.414062 213.285156 459.886719 C 213.285156 455.050781 214.949219 451.816406 218.378906 449.980469 C 219.542969 449.359375 225.472656 448.5625 231.5625 448.210938 C 242.34375 447.589844 242.894531 447.445312 252.761719 442.6875 C 263.808594 437.359375 269.992188 431.914062 269.992188 427.511719 C 269.992188 420.59375 258.5625 406.519531 249.015625 401.683594 C 245.683594 399.996094 240.742188 398.683594 234.285156 397.777344 C 221.78125 396.023438 215.15625 392.9375 211.914062 387.351562 C 209.28125 382.8125 208.816406 380.605469 207.585938 366.769531 C 206.578125 355.464844 204.570312 350.242188 197.03125 339.335938 C 191.9375 331.96875 188.214844 329.035156 183.960938 329.035156 C 176.996094 329.035156 162.214844 340.898438 157.132812 350.5625 C 153.40625 357.65625 153.773438 362.214844 158.878906 372.203125 C 167.175781 388.421875 168.730469 398.71875 165.789062 418.019531 C 164.914062 423.769531 164.636719 430.835938 164.976562 438.707031 C 165.371094 447.824219 165.105469 452.585938 163.855469 458.742188 C 161.457031 470.585938 159.75 473.199219 154.417969 473.199219 C 151.589844 473.199219 144.664062 465.636719 141.191406 458.753906 C 135.890625 448.257812 135.523438 445.03125 135.726562 410.992188 C 135.910156 380.78125 135.863281 379.972656 133.914062 378.023438 C 132.183594 376.292969 131.574219 376.179688 129.386719 377.175781 C 123.886719 379.683594 120.3125 387.316406 114.792969 408.332031 C 110.117188 426.132812 107.804688 432.375 104.628906 435.777344 C 99.621094 441.136719 95.261719 439.242188 91.796875 430.207031 C 88.382812 421.304688 83.1875 414.632812 77.453125 411.789062 C 73.042969 409.605469 72.460938 409.546875 65.917969 410.632812 C 55.324219 412.394531 55.324219 412.394531 52.96875 415.886719 C 49.875 420.472656 47.535156 427.003906 43.699219 441.746094 C 39.105469 459.394531 38.484375 464.121094 37.148438 491.722656 C 35.324219 529.386719 35.613281 540.675781 38.757812 554.414062 C 44.101562 577.796875 51.726562 596.582031 59.195312 604.789062 C 64.234375 610.328125 65.644531 609.730469 69.398438 600.476562 C 73.464844 590.445312 77.605469 586.945312 82 589.824219 C 83.214844 590.621094 86.964844 596.601562 90.332031 603.117188 C 93.753906 609.734375 98.3125 616.957031 100.65625 619.480469 C 104.871094 624.015625 105.394531 624.265625 119.164062 628.289062 C 125.011719 629.996094 131.542969 633.9375 135.671875 638.25 C 140.832031 643.644531 152.769531 661.242188 157.417969 670.308594 C 164.074219 683.300781 164.996094 688.101562 162.984375 699.363281 C 162.105469 704.28125 161.386719 710.046875 161.386719 712.179688 C 161.386719 717.496094 165.472656 725.164062 175.292969 738.28125 C 179.769531 744.257812 183.839844 750.617188 184.335938 752.417969 C 184.832031 754.21875 185.011719 758.21875 184.730469 761.304688 C 183.75 772.105469 188.117188 776.984375 207.90625 787.199219 C 215.570312 791.15625 225.476562 797.4375 233.855469 803.660156 C 248.332031 814.410156 263.722656 824.769531 279.074219 834.097656 C 285.75 838.152344 291.296875 842.597656 297.777344 849.074219 C 314.683594 865.972656 334.476562 878.835938 356.972656 887.542969 C 359.613281 888.5625 368.265625 891.371094 376.195312 893.777344 C 394.167969 899.234375 403.21875 903.441406 416.613281 912.570312 C 427.898438 920.261719 431.824219 921.769531 447.570312 924.464844 C 469.136719 928.160156 492.925781 928.351562 507.101562 924.945312 Z M 839.609375 759.988281 C 849.0625 749.964844 861.050781 727.488281 858.375 724.808594 C 853.257812 719.695312 833.621094 742.601562 830.21875 757.65625 C 828.714844 764.296875 834.246094 765.671875 839.609375 759.988281 Z M 131.984375 728.554688 C 134.527344 726.699219 135.007812 719.652344 133.054688 712.898438 C 130.214844 703.082031 121.382812 690.585938 112.976562 684.496094 C 106.054688 679.484375 97.953125 681.65625 97.953125 688.519531 C 97.953125 696.082031 106.199219 713.664062 113.492188 721.640625 C 120.335938 729.128906 127.527344 731.816406 131.984375 728.558594 Z M 619.378906 725.960938 C 626.449219 723.527344 632.9375 719.871094 643.617188 712.308594 C 659.8125 700.835938 666.921875 692.148438 666.921875 683.832031 C 666.921875 681.429688 665.761719 677.859375 663.707031 673.949219 C 661.941406 670.582031 657.65625 662.417969 654.179688 655.8125 C 650.707031 649.203125 647.339844 641.851562 646.699219 639.472656 C 645.996094 636.863281 645.484375 627.707031 645.414062 616.40625 C 645.308594 599.523438 645.097656 597.230469 643.273438 593.292969 C 640.390625 587.0625 636.121094 582.570312 627.164062 576.347656 C 617.546875 569.664062 613.546875 568.113281 609.132812 569.351562 C 604.011719 570.792969 595.570312 578.144531 592.433594 583.894531 C 588.886719 590.402344 588.765625 597.984375 592.027344 609.679688 C 593.9375 616.546875 594.300781 620.070312 594.304688 631.785156 C 594.308594 644.664062 594.039062 646.773438 590.777344 659.65625 C 585.804688 679.304688 584.984375 684.59375 584.953125 697.140625 C 584.902344 719.875 590.589844 727.824219 606.941406 727.875 C 611.320312 727.886719 615.773438 727.203125 619.378906 725.960938 Z M 933.015625 527.738281 C 934.515625 522.953125 935.355469 513.972656 934.648438 510.210938 C 933.851562 505.964844 931.613281 505.816406 930.878906 509.957031 C 929.820312 515.902344 929.046875 527.859375 929.621094 529.355469 C 930.546875 531.773438 931.957031 531.101562 933.015625 527.738281 Z M 625.695312 524.683594 C 642.808594 521.632812 652.46875 513.179688 654.03125 499.894531 C 655.863281 484.300781 645.496094 470.132812 633.390625 471.691406 C 624.855469 472.789062 620.46875 477.351562 615.585938 490.214844 C 614.136719 494.023438 612.011719 498.457031 610.859375 500.066406 C 609.707031 501.671875 607.109375 505.3125 605.085938 508.152344 C 600.164062 515.058594 599.421875 520.164062 602.839844 523.578125 C 605.023438 525.761719 606.085938 526.050781 611.847656 526.023438 C 615.4375 526.003906 621.671875 525.402344 625.695312 524.683594 Z M 298.40625 248.785156 C 307.371094 243.53125 309.488281 232.917969 301.566406 232.917969 C 297.421875 232.917969 294.480469 234.417969 289.753906 238.949219 C 286.371094 242.1875 285.359375 243.851562 285.359375 246.160156 C 285.359375 251.578125 291.523438 252.816406 298.40625 248.785156 Z M 826.039062 173.609375 C 825.515625 172.242188 825.628906 172.128906 826.578125 173.074219 C 827.234375 173.722656 827.527344 174.5 827.234375 174.796875 C 826.9375 175.09375 826.398438 174.558594 826.039062 173.609375 Z M 826.039062 173.609375 " fill-opacity="1" fill-rule="nonzero"/><path fill="#8b7862" d="M 449.238281 941.507812 C 441.453125 941.035156 440.527344 939.664062 447.410156 938.804688 C 456.144531 937.714844 506.746094 939.960938 505.855469 941.402344 C 505.375 942.179688 461.589844 942.261719 449.238281 941.507812 Z M 400.703125 935.507812 C 331.570312 923.035156 270.253906 897.675781 213.773438 858.1875 C 159.167969 820.015625 112.300781 768.535156 78.972656 710.121094 C 63.1875 682.441406 43.289062 636.863281 46.210938 635.058594 C 49.378906 633.101562 55.011719 643.585938 67.675781 675.039062 C 76.492188 696.933594 83.863281 709.527344 102.273438 734.148438 C 122.34375 760.992188 134.890625 773.289062 153.355469 784.207031 C 165.046875 791.121094 169.054688 794.234375 186.488281 809.9375 C 201.867188 823.789062 218.183594 836.53125 228.324219 842.601562 C 235.410156 846.84375 245.078125 851.304688 260.753906 857.574219 C 278.757812 864.769531 289.832031 870.542969 299.785156 877.929688 C 311.914062 886.925781 317.863281 890.167969 336.789062 898.074219 C 356.664062 906.382812 356.222656 906.152344 371.867188 916.28125 C 386.253906 925.597656 395.921875 930.179688 408.871094 933.820312 C 413.628906 935.160156 419.035156 936.6875 420.882812 937.21875 L 424.246094 938.1875 L 419.921875 938.191406 C 417.542969 938.195312 408.894531 936.988281 400.699219 935.511719 Z M 561.667969 932.234375 C 560.191406 931.15625 560.0625 930.625 561.007812 929.488281 C 563.226562 926.816406 580.550781 919.992188 593.695312 916.609375 C 610.101562 912.390625 614 910.378906 615.964844 905.136719 C 616.773438 902.980469 619.160156 898.707031 621.277344 895.640625 L 625.121094 890.066406 L 624.8125 875.054688 C 624.441406 856.933594 623.695312 853.097656 619.074219 845.632812 C 616.15625 840.910156 615.523438 838.992188 615.574219 835.058594 C 615.699219 826.023438 619.289062 821.472656 635.117188 810.269531 C 643.089844 804.628906 646.753906 801.367188 648.570312 798.292969 C 657.75 782.78125 666.847656 774.105469 685.191406 763.375 C 717.871094 744.257812 723.804688 737.847656 739.378906 704.828125 C 744.066406 694.898438 747.800781 688.414062 764.765625 660.777344 C 767.46875 656.371094 771.246094 648.722656 773.160156 643.78125 C 775.074219 638.84375 779.042969 630.769531 781.976562 625.84375 C 794.378906 605.019531 796.808594 596.554688 792.660156 588.558594 C 789.390625 582.25 785.394531 580.265625 776.972656 580.769531 C 773.273438 580.988281 767.652344 581.175781 764.480469 581.183594 C 753.699219 581.210938 747.050781 575.617188 739.265625 559.960938 L 734.851562 551.085938 L 734.089844 531.316406 C 733.261719 509.855469 732.382812 504.929688 726.964844 491.386719 C 721.636719 478.0625 722.234375 474.058594 731.441406 461.550781 C 737.507812 453.308594 739.476562 448.691406 741.433594 438.121094 C 743.386719 427.574219 749.507812 408.894531 754.09375 399.484375 C 758.132812 391.203125 764.84375 384.441406 770.546875 382.90625 C 778.03125 380.890625 787.628906 384.976562 794.675781 393.183594 C 804.371094 404.46875 814.558594 431.820312 817.742188 455.128906 C 818.804688 462.898438 820.316406 470.785156 821.097656 472.65625 C 823.179688 477.640625 827.253906 483.167969 836.027344 492.90625 C 846.527344 504.558594 849.472656 510.613281 850.214844 522.097656 C 850.53125 526.964844 850.226562 538.050781 849.539062 546.734375 C 848.058594 565.378906 848.386719 566.566406 854.199219 563.648438 C 856.128906 562.675781 859.4375 561.332031 861.550781 560.660156 C 867.78125 558.679688 874.433594 555.019531 881.117188 549.898438 C 888.59375 544.167969 891.269531 542.996094 893.800781 544.351562 C 897.570312 546.367188 897.363281 553.269531 893.269531 562.316406 C 891.890625 565.363281 887.855469 570.65625 883.003906 575.785156 C 875.40625 583.8125 874.726562 584.898438 869.328125 597.675781 C 866.203125 605.070312 861.550781 615.773438 858.984375 621.457031 C 852.875 634.988281 850.84375 643.335938 852.332031 648.800781 C 852.9375 651.023438 854.507812 654.117188 855.816406 655.671875 C 857.128906 657.230469 858.460938 659.808594 858.777344 661.40625 C 859.761719 666.316406 855.734375 675.953125 846.796875 690.09375 C 842.171875 697.40625 835.929688 707.570312 832.921875 712.683594 C 829.914062 717.800781 822.703125 727.925781 816.894531 735.191406 C 803.132812 752.402344 797.117188 763.925781 795.210938 776.722656 C 794.476562 781.640625 792.90625 787.613281 791.71875 789.992188 C 788.335938 796.761719 779.886719 805.355469 770.339844 811.738281 C 758.378906 819.738281 751.730469 825.632812 742.207031 836.695312 C 731.65625 848.949219 724.78125 859.003906 724 863.320312 C 723.65625 865.21875 722.8125 867.890625 722.125 869.253906 C 719.707031 874.035156 707.222656 883.035156 691.136719 891.589844 C 659.015625 908.667969 616.269531 924.066406 581.097656 931.230469 C 567.894531 933.917969 564.226562 934.109375 561.667969 932.234375 Z M 788.804688 749.945312 C 795.722656 746.484375 801.996094 739.839844 803.457031 734.417969 C 805.449219 727.015625 803.40625 723.121094 798.207031 724.425781 C 795.226562 725.175781 779.882812 739.503906 777.84375 743.445312 C 775.214844 748.53125 776.605469 752.886719 780.855469 752.886719 C 781.984375 752.886719 785.5625 751.5625 788.804688 749.945312 Z M 361.910156 648.652344 C 353.328125 645.125 312.824219 622.355469 308.414062 618.578125 C 300.636719 611.921875 299.0625 605.683594 301.742188 592.101562 C 302.804688 586.707031 304.070312 577.96875 304.554688 572.683594 C 305.640625 560.730469 309.035156 550.792969 318.488281 531.851562 C 328.226562 512.332031 329.972656 507.382812 332.886719 490.988281 C 334.296875 483.058594 337.171875 469.050781 339.277344 459.859375 C 342.75 444.710938 343.007812 442.667969 342.0625 438.101562 C 339.925781 427.816406 328.792969 412.722656 311.058594 396.070312 C 291.109375 377.335938 290.070312 373.085938 300.292969 352.058594 C 307.738281 336.746094 308.84375 333.15625 310.761719 318.058594 C 313.039062 300.109375 313.472656 299.476562 340.042969 275.339844 C 344.917969 270.914062 352.921875 262.480469 357.832031 256.601562 C 369.308594 242.859375 394.925781 217.992188 401.78125 213.9375 C 404.699219 212.210938 409.460938 210.300781 412.367188 209.691406 C 417.03125 208.710938 418.082031 208.796875 421.363281 210.425781 C 427.75 213.59375 429.054688 216.355469 428.984375 226.515625 C 428.953125 231.367188 428.570312 238.632812 428.136719 242.664062 C 426.359375 259.144531 429.082031 262.195312 454.242188 271.917969 C 469.332031 277.75 474.710938 280.585938 488.578125 290.023438 C 501.085938 298.535156 503.785156 299.667969 527.96875 306.503906 C 541.238281 310.257812 565.644531 319.609375 575.132812 324.578125 C 594.152344 334.53125 607.261719 360.835938 603.117188 380.722656 C 601.214844 389.851562 595.722656 400.109375 588.753906 407.558594 C 581.417969 415.402344 578.621094 417.023438 568.324219 419.417969 C 554.519531 422.625 548.277344 424.992188 544.007812 428.648438 C 536.613281 434.976562 535.917969 438.929688 538.71875 458.832031 C 540.984375 474.933594 540.167969 486.066406 535.65625 500.601562 C 532.136719 511.953125 532.078125 512.394531 532.019531 528.472656 C 531.988281 537.460938 532.140625 550.21875 532.359375 556.824219 C 532.734375 568.226562 532.59375 569.375 529.589844 579.367188 C 525.933594 591.542969 522.160156 599.46875 518.277344 603.140625 C 514.601562 606.621094 504.734375 611.121094 495.363281 613.59375 C 488.734375 615.34375 483.675781 615.71875 458.714844 616.3125 L 429.757812 616.996094 L 423.636719 620.019531 C 419.804688 621.914062 413.859375 626.390625 407.753906 631.984375 C 388.492188 649.625 375.636719 654.300781 361.910156 648.652344 Z M 29.789062 583.171875 C 29.835938 582.054688 30.0625 581.824219 30.371094 582.59375 C 30.648438 583.285156 30.613281 584.117188 30.296875 584.433594 C 29.976562 584.753906 29.75 584.1875 29.789062 583.171875 Z M 27.46875 573.402344 C 22.105469 547.832031 18.019531 511.535156 18.3125 492.050781 L 18.445312 483.296875 L 19.21875 492.429688 C 20.355469 505.796875 22.769531 525.027344 25.9375 545.921875 C 28.734375 564.363281 30.421875 580.851562 29.515625 580.851562 C 29.25 580.851562 28.328125 577.5 27.46875 573.402344 Z M 908.042969 341.867188 C 907.320312 340.992188 904.09375 339.097656 900.875 337.652344 C 895.90625 335.421875 894.734375 334.398438 893.066406 330.832031 C 889.902344 324.058594 882.21875 297.289062 882.21875 293.042969 C 882.21875 285.429688 889.453125 292.585938 900.582031 311.207031 C 911.519531 329.507812 916.097656 343.457031 911.167969 343.457031 C 910.175781 343.457031 908.769531 342.742188 908.042969 341.867188 Z M 151.703125 303.660156 C 149.8125 303.003906 146.136719 300.835938 143.535156 298.84375 L 138.804688 295.214844 L 119.621094 295.882812 L 118 292.519531 C 114.835938 285.941406 113.996094 277.707031 114.578125 258.96875 C 115.371094 233.4375 115.96875 231.679688 134 201.675781 C 146.746094 180.472656 149.347656 175.328125 148.011719 173.992188 C 144 169.980469 152.152344 157.835938 173.839844 135.511719 C 189.214844 119.683594 216.265625 98.847656 238.269531 85.882812 C 248.507812 79.851562 250.144531 80.117188 244.484375 86.890625 C 238.714844 93.792969 240.546875 95.167969 255.765625 95.375 C 262.859375 95.472656 265.75 96.0625 274.859375 99.269531 C 280.761719 101.351562 287.8125 104.523438 290.527344 106.324219 C 301.6875 113.71875 305.632812 114.28125 332.472656 112.332031 C 369.171875 109.664062 379.472656 110.679688 381.089844 117.125 C 382.160156 121.386719 380.027344 123.996094 370.160156 130.480469 C 359.003906 137.8125 355.222656 141.703125 346.179688 155.15625 C 335.734375 170.695312 329.070312 176.238281 304.113281 190.160156 C 283.09375 201.882812 256.460938 219.878906 240.679688 233.023438 C 232.75 239.625 221.074219 249.164062 214.730469 254.21875 C 202.613281 263.875 196.914062 269.519531 183.335938 285.308594 C 172.726562 297.648438 170.488281 299.703125 165.234375 301.960938 C 159.09375 304.59375 155.644531 305.027344 151.703125 303.660156 Z M 687.8125 79.519531 C 684.234375 78.753906 669.3125 73.859375 654.65625 68.644531 C 640 63.433594 626.082031 58.648438 623.726562 58.015625 C 614.898438 55.648438 595.992188 48.117188 587.640625 43.644531 C 573.601562 36.128906 540.320312 23.585938 527.570312 21.007812 C 511.742188 17.808594 536.949219 20.394531 560.113281 24.347656 C 604.871094 31.984375 652.871094 48.101562 689.035156 67.632812 C 708.59375 78.199219 708.011719 83.859375 687.8125 79.523438 Z M 263.308594 72.042969 C 268.417969 67.167969 319.960938 44.632812 323.242188 45.839844 C 324.929688 46.460938 289.003906 63.808594 275.632812 68.824219 C 262.542969 73.742188 261.144531 74.105469 263.304688 72.042969 Z M 404.914062 23.792969 C 419.90625 20.8125 459.371094 16.976562 465.601562 17.894531 C 467.542969 18.179688 466.917969 18.363281 463.660156 18.464844 C 461.015625 18.546875 446.097656 20.125 430.503906 21.96875 C 400.695312 25.492188 393.957031 25.972656 404.914062 23.792969 Z M 513.886719 18.886719 C 515.085938 18.65625 516.8125 18.664062 517.734375 18.902344 C 518.652344 19.144531 517.671875 19.332031 515.558594 19.320312 C 513.445312 19.3125 512.691406 19.113281 513.886719 18.886719 Z M 499.460938 17.925781 C 500.648438 17.695312 502.597656 17.695312 503.785156 17.925781 C 504.976562 18.152344 504 18.339844 501.625 18.339844 C 499.246094 18.339844 498.269531 18.152344 499.460938 17.925781 Z M 499.460938 17.925781 " fill-opacity="1" fill-rule="nonzero"/><g clip-path="url(#47b8abd522)"><path fill="#988977" d="M 475.300781 15.738281 C 418.351562 16.304688 365.730469 26.222656 313.230469 46.277344 C 279.390625 59.203125 243.007812 78.785156 211.355469 101.113281 C 177.421875 125.050781 140.488281 160.554688 113.734375 194.953125 C 62.417969 260.9375 29.054688 342.003906 19.199219 424.652344 C 15.191406 458.273438 15.191406 501.5625 19.199219 535.179688 C 31.535156 638.644531 78.359375 735.257812 151.738281 808.636719 C 229.828125 886.726562 333.273438 934.25 444.417969 943.089844 C 451.125 943.625 463.996094 943.914062 477.203125 943.957031 C 384.894531 925.601562 300.921875 869.636719 239.980469 785.726562 C 178.078125 700.496094 144.003906 592.03125 143.886719 479.839844 C 143.929688 367.9375 177.753906 259.707031 239.304688 174.511719 C 299.863281 90.695312 383.371094 34.554688 475.300781 15.738281 Z M 475.300781 15.738281 " fill-opacity="0.314" fill-rule="nonzero"/></g></svg>