<svg xmlns="http://www.w3.org/2000/svg" xmlns:xlink="http://www.w3.org/1999/xlink" width="1280" zoomAndPan="magnify" viewBox="0 0 960 959.999988" height="1280" preserveAspectRatio="xMidYMid meet" version="1.0"><defs><clipPath id="9a3fe4cc2d"><path d="M 14 13.894531 L 946.144531 13.894531 L 946.144531 946.144531 L 14 946.144531 Z M 14 13.894531 " clip-rule="nonzero"/></clipPath><clipPath id="0ea70435d4"><path d="M 253 842 L 751 842 L 751 946.144531 L 253 946.144531 Z M 253 842 " clip-rule="nonzero"/></clipPath><clipPath id="544f36087f"><path d="M 320 887 L 683 887 L 683 946.144531 L 320 946.144531 Z M 320 887 " clip-rule="nonzero"/></clipPath><clipPath id="eb2090d05a"><path d="M 13.894531 342 L 946.144531 342 L 946.144531 686 L 13.894531 686 Z M 13.894531 342 " clip-rule="nonzero"/></clipPath><clipPath id="e9cafa623d"><path d="M 13.894531 318 L 935 318 L 935 513 L 13.894531 513 Z M 13.894531 318 " clip-rule="nonzero"/></clipPath><clipPath id="07d0aa6e13"><path d="M 18 487 L 946.144531 487 L 946.144531 584 L 18 584 Z M 18 487 " clip-rule="nonzero"/></clipPath><clipPath id="05f7d73a19"><path d="M 246 13.894531 L 729 13.894531 L 729 97 L 246 97 Z M 246 13.894531 " clip-rule="nonzero"/></clipPath></defs><g clip-path="url(#9a3fe4cc2d)"><path fill="#f8cd89" d="M 946.167969 480.03125 C 946.167969 487.660156 945.980469 495.285156 945.605469 502.902344 C 945.230469 510.519531 944.671875 518.125 943.921875 525.714844 C 943.175781 533.304688 942.242188 540.875 941.121094 548.417969 C 940.003906 555.964844 938.699219 563.476562 937.210938 570.957031 C 935.722656 578.441406 934.054688 585.878906 932.199219 593.277344 C 930.347656 600.679688 928.3125 608.027344 926.097656 615.328125 C 923.882812 622.625 921.492188 629.867188 918.921875 637.046875 C 916.351562 644.230469 913.609375 651.34375 910.691406 658.390625 C 907.769531 665.4375 904.679688 672.410156 901.417969 679.304688 C 898.160156 686.199219 894.730469 693.011719 891.132812 699.738281 C 887.539062 706.464844 883.78125 713.101562 879.859375 719.640625 C 875.9375 726.183594 871.859375 732.625 867.621094 738.96875 C 863.382812 745.3125 858.992188 751.546875 854.449219 757.671875 C 849.902344 763.796875 845.210938 769.808594 840.375 775.707031 C 835.535156 781.601562 830.554688 787.375 825.429688 793.027344 C 820.308594 798.679688 815.050781 804.203125 809.65625 809.597656 C 804.261719 814.988281 798.742188 820.246094 793.089844 825.371094 C 787.4375 830.492188 781.664062 835.472656 775.765625 840.3125 C 769.871094 845.152344 763.859375 849.84375 757.734375 854.386719 C 751.605469 858.929688 745.371094 863.320312 739.03125 867.558594 C 732.6875 871.796875 726.246094 875.875 719.703125 879.796875 C 713.160156 883.71875 706.527344 887.476562 699.796875 891.074219 C 693.070312 894.667969 686.261719 898.097656 679.367188 901.359375 C 672.46875 904.621094 665.5 907.710938 658.453125 910.628906 C 651.40625 913.546875 644.289062 916.292969 637.109375 918.859375 C 629.925781 921.429688 622.6875 923.824219 615.386719 926.039062 C 608.089844 928.25 600.738281 930.285156 593.339844 932.136719 C 585.941406 933.992188 578.5 935.664062 571.019531 937.152344 C 563.539062 938.636719 556.027344 939.941406 548.480469 941.0625 C 540.9375 942.179688 533.367188 943.113281 525.777344 943.863281 C 518.1875 944.609375 510.582031 945.171875 502.960938 945.542969 C 495.34375 945.917969 487.71875 946.105469 480.09375 946.105469 C 472.464844 946.105469 464.84375 945.917969 457.222656 945.542969 C 449.605469 945.171875 442 944.609375 434.410156 943.863281 C 426.820312 943.113281 419.25 942.179688 411.707031 941.0625 C 404.160156 939.941406 396.648438 938.636719 389.167969 937.152344 C 381.6875 935.664062 374.246094 933.992188 366.847656 932.136719 C 359.449219 930.285156 352.097656 928.25 344.796875 926.039062 C 337.5 923.824219 330.257812 921.429688 323.078125 918.859375 C 315.894531 916.292969 308.78125 913.546875 301.734375 910.628906 C 294.6875 907.707031 287.714844 904.617188 280.820312 901.359375 C 273.925781 898.097656 267.113281 894.667969 260.386719 891.074219 C 253.660156 887.476562 247.027344 883.71875 240.484375 879.796875 C 233.941406 875.875 227.5 871.796875 221.15625 867.558594 C 214.816406 863.320312 208.582031 858.929688 202.453125 854.386719 C 196.328125 849.84375 190.316406 845.152344 184.417969 840.3125 C 178.523438 835.472656 172.75 830.492188 167.097656 825.371094 C 161.445312 820.246094 155.921875 814.988281 150.53125 809.597656 C 145.136719 804.203125 139.878906 798.679688 134.757812 793.027344 C 129.632812 787.375 124.652344 781.601562 119.8125 775.707031 C 114.976562 769.808594 110.285156 763.796875 105.738281 757.671875 C 101.195312 751.546875 96.804688 745.3125 92.566406 738.96875 C 88.328125 732.625 84.25 726.183594 80.328125 719.640625 C 76.40625 713.101562 72.648438 706.464844 69.054688 699.738281 C 65.457031 693.011719 62.03125 686.199219 58.769531 679.304688 C 55.507812 672.410156 52.417969 665.4375 49.496094 658.390625 C 46.578125 651.34375 43.835938 644.230469 41.265625 637.046875 C 38.695312 629.867188 36.304688 622.625 34.089844 615.328125 C 31.875 608.027344 29.839844 600.679688 27.988281 593.277344 C 26.132812 585.878906 24.464844 578.441406 22.976562 570.957031 C 21.488281 563.476562 20.183594 555.964844 19.0625 548.417969 C 17.945312 540.875 17.011719 533.304688 16.261719 525.714844 C 15.515625 518.125 14.953125 510.519531 14.582031 502.902344 C 14.207031 495.285156 14.019531 487.660156 14.019531 480.03125 C 14.019531 472.40625 14.207031 464.78125 14.582031 457.164062 C 14.953125 449.542969 15.515625 441.941406 16.261719 434.347656 C 17.011719 426.757812 17.945312 419.191406 19.0625 411.644531 C 20.183594 404.101562 21.488281 396.585938 22.976562 389.105469 C 24.460938 381.625 26.132812 374.183594 27.988281 366.785156 C 29.839844 359.386719 31.875 352.039062 34.089844 344.738281 C 36.300781 337.4375 38.695312 330.199219 41.265625 323.015625 C 43.832031 315.835938 46.578125 308.71875 49.496094 301.671875 C 52.417969 294.625 55.507812 287.65625 58.765625 280.761719 C 62.027344 273.863281 65.457031 267.054688 69.054688 260.328125 C 72.648438 253.601562 76.40625 246.964844 80.328125 240.421875 C 84.25 233.878906 88.328125 227.4375 92.566406 221.09375 C 96.804688 214.753906 101.195312 208.519531 105.738281 202.390625 C 110.285156 196.265625 114.976562 190.253906 119.8125 184.359375 C 124.652344 178.460938 129.632812 172.6875 134.757812 167.035156 C 139.878906 161.382812 145.136719 155.863281 150.53125 150.46875 C 155.921875 145.074219 161.445312 139.816406 167.097656 134.695312 C 172.75 129.570312 178.523438 124.589844 184.417969 119.753906 C 190.316406 114.914062 196.328125 110.222656 202.453125 105.679688 C 208.582031 101.132812 214.816406 96.742188 221.15625 92.503906 C 227.5 88.269531 233.941406 84.1875 240.484375 80.265625 C 247.027344 76.34375 253.660156 72.585938 260.386719 68.992188 C 267.113281 65.394531 273.925781 61.96875 280.820312 58.707031 C 287.71875 55.445312 294.6875 52.355469 301.734375 49.4375 C 308.78125 46.515625 315.894531 43.773438 323.078125 41.203125 C 330.257812 38.632812 337.5 36.242188 344.796875 34.027344 C 352.097656 31.8125 359.449219 29.78125 366.847656 27.925781 C 374.246094 26.074219 381.6875 24.402344 389.167969 22.914062 C 396.648438 21.425781 404.160156 20.121094 411.707031 19.003906 C 419.25 17.882812 426.820312 16.949219 434.410156 16.203125 C 442 15.457031 449.605469 14.894531 457.222656 14.519531 C 464.84375 14.144531 472.464844 13.957031 480.09375 13.957031 C 487.71875 13.957031 495.34375 14.144531 502.960938 14.519531 C 510.582031 14.894531 518.1875 15.457031 525.777344 16.203125 C 533.367188 16.949219 540.9375 17.882812 548.480469 19.003906 C 556.027344 20.121094 563.539062 21.425781 571.019531 22.914062 C 578.5 24.402344 585.941406 26.074219 593.339844 27.925781 C 600.738281 29.78125 608.089844 31.8125 615.386719 34.027344 C 622.6875 36.242188 629.925781 38.632812 637.109375 41.203125 C 644.289062 43.773438 651.40625 46.515625 658.453125 49.4375 C 665.5 52.355469 672.46875 55.445312 679.367188 58.707031 C 686.261719 61.96875 693.070312 65.394531 699.800781 68.992188 C 706.527344 72.585938 713.160156 76.347656 719.703125 80.265625 C 726.246094 84.1875 732.6875 88.269531 739.03125 92.507812 C 745.371094 96.742188 751.605469 101.132812 757.734375 105.679688 C 763.859375 110.222656 769.871094 114.914062 775.765625 119.753906 C 781.664062 124.589844 787.4375 129.570312 793.089844 134.695312 C 798.742188 139.816406 804.261719 145.074219 809.65625 150.46875 C 815.050781 155.863281 820.308594 161.382812 825.429688 167.035156 C 830.554688 172.6875 835.535156 178.460938 840.375 184.359375 C 845.210938 190.253906 849.902344 196.265625 854.449219 202.390625 C 858.992188 208.519531 863.382812 214.753906 867.621094 221.09375 C 871.859375 227.4375 875.9375 233.878906 879.859375 240.421875 C 883.78125 246.964844 887.539062 253.597656 891.132812 260.328125 C 894.730469 267.054688 898.160156 273.863281 901.417969 280.761719 C 904.679688 287.65625 907.769531 294.625 910.691406 301.671875 C 913.609375 308.71875 916.351562 315.835938 918.921875 323.015625 C 921.492188 330.199219 923.882812 337.4375 926.097656 344.738281 C 928.3125 352.039062 930.347656 359.386719 932.199219 366.785156 C 934.050781 374.183594 935.722656 381.625 937.210938 389.105469 C 938.699219 396.585938 940.003906 404.101562 941.121094 411.644531 C 942.242188 419.191406 943.175781 426.757812 943.921875 434.347656 C 944.671875 441.941406 945.230469 449.542969 945.605469 457.164062 C 945.980469 464.78125 946.167969 472.40625 946.167969 480.03125 Z M 946.167969 480.03125 " fill-opacity="1" fill-rule="nonzero"/></g><g clip-path="url(#0ea70435d4)"><path fill="#ffef9c" d="M 253.675781 887.484375 C 295.300781 874.308594 336.003906 859.898438 380.460938 854.171875 C 450.722656 845.183594 523.75 840.808594 594.441406 843.210938 C 614.453125 843.890625 686.558594 847.707031 750.351562 859.714844 C 674.121094 914.085938 580.832031 946.105469 480.09375 946.105469 C 397.949219 946.105469 320.734375 924.800781 253.675781 887.484375 Z M 253.675781 887.484375 " fill-opacity="1" fill-rule="evenodd"/></g><g clip-path="url(#544f36087f)"><path fill="#d6b493" d="M 320.917969 918.152344 C 349.304688 909.039062 377.320312 899.675781 407.679688 895.796875 C 460.082031 889.085938 514.578125 885.824219 567.285156 887.609375 C 582.125 888.101562 635.390625 890.933594 682.742188 899.738281 C 621.410156 929.417969 552.691406 946.042969 480.03125 946.042969 C 424.183594 946.105469 370.546875 936.253906 320.917969 918.152344 Z M 320.917969 918.152344 " fill-opacity="1" fill-rule="evenodd"/></g><path fill="#d6b493" d="M 69.375 700.476562 C 101.027344 688.777344 134.339844 671.226562 167.714844 674.183594 C 210.816406 677.941406 271.226562 714.578125 313.097656 722.644531 C 375.414062 734.589844 410.082031 687.484375 468.085938 688.347656 C 493.515625 688.714844 515.808594 707.3125 537.851562 717.535156 C 566.054688 730.648438 597.765625 733.296875 628.308594 735.453125 C 668.457031 738.285156 708.171875 738.410156 745.425781 721.722656 C 785.511719 703.742188 818.582031 670.488281 864.148438 663.53125 C 872.214844 662.300781 888.839844 665.070312 905.589844 670.367188 C 889.148438 707.066406 868.085938 741.179688 843.210938 772.152344 C 809.28125 765.316406 776.460938 768.765625 742.59375 775.660156 C 721.472656 779.972656 699.367188 783.296875 678.679688 789.578125 C 654.417969 796.90625 641.300781 807.375 615.316406 805.835938 C 597.089844 804.726562 582.3125 791.917969 565.128906 786.746094 C 542.222656 779.789062 518.457031 782.804688 495.300781 786.621094 C 468.085938 791.117188 441.792969 796.476562 416.054688 806.820312 C 381.449219 820.796875 348.75 840.070312 309.773438 838.839844 C 259.957031 837.300781 229.722656 790.195312 180.890625 785.207031 C 164.082031 783.484375 148.378906 786.253906 133.355469 791.550781 C 108.664062 763.902344 87.109375 733.359375 69.375 700.476562 Z M 69.375 700.476562 " fill-opacity="1" fill-rule="evenodd"/><g clip-path="url(#eb2090d05a)"><path fill="#ffef9c" d="M 925.355469 342.101562 C 938.839844 385.695312 946.167969 432.003906 946.167969 480.03125 C 946.167969 531.820312 937.667969 581.632812 922.089844 628.1875 C 915.253906 628.925781 908.542969 630.035156 902.078125 631.820312 C 882.496094 637.054688 864.640625 651.09375 844.566406 653.925781 C 825.847656 656.511719 807.25 652.324219 788.347656 656.203125 C 746.472656 664.761719 713.34375 688.285156 668.210938 684.714844 C 624.304688 681.265625 591.238281 652.445312 551.152344 637.421875 C 474.980469 608.851562 394.996094 655.585938 316.792969 652.878906 C 270.425781 651.277344 245.117188 622.335938 186.0625 627.199219 C 139.757812 631.019531 96.964844 621.414062 51.148438 619.320312 C 46.59375 619.132812 41.113281 619.441406 35.261719 619.75 C 21.410156 575.597656 13.894531 528.679688 13.894531 480.03125 C 13.894531 474.429688 14.019531 468.824219 14.203125 463.285156 C 53.734375 458.050781 99.304688 466.976562 137.050781 460.574219 C 174.796875 454.171875 209.527344 426.769531 247.824219 426.398438 C 280.277344 426.089844 309.710938 448.691406 341.976562 442.59375 C 413.589844 429.046875 471.164062 381.449219 544.871094 374.550781 C 599.367188 369.441406 633.296875 430.402344 690.5625 410.882812 C 716.300781 402.078125 730.585938 375.476562 757.003906 366.730469 C 809.34375 349.429688 869.195312 352.199219 923.507812 342.59375 C 924.121094 342.347656 924.738281 342.222656 925.355469 342.101562 Z M 925.355469 342.101562 " fill-opacity="1" fill-rule="evenodd"/></g><g clip-path="url(#e9cafa623d)"><path fill="#fff2af" d="M 917.226562 318.085938 C 924.367188 337.359375 930.34375 357.308594 934.898438 377.691406 C 927.324219 379.664062 919.628906 381.511719 912.667969 385.019531 C 872.890625 405.15625 804.664062 370.734375 760.636719 382.742188 C 730.832031 390.871094 712.914062 413.039062 682.25 416.546875 C 658.664062 419.257812 627.445312 412.851562 603.984375 416.054688 C 555.15625 422.765625 539.824219 417.902344 490.683594 419.996094 C 433.664062 422.398438 356.941406 443.023438 300.226562 449.921875 C 248.320312 456.203125 221.964844 463.097656 169.746094 463.53125 C 142.40625 463.777344 101.148438 496.105469 73.996094 500.84375 C 49.855469 505.03125 30.644531 510.820312 15.003906 512.546875 C 14.265625 501.769531 13.894531 490.929688 13.894531 479.972656 C 13.894531 461.621094 14.941406 443.457031 17.035156 425.722656 C 57 426.03125 97.148438 427.199219 137.050781 424.921875 C 167.039062 423.199219 196.839844 414.023438 226.707031 412.484375 C 266.238281 410.511719 307 421.964844 345.363281 408.296875 C 363.160156 401.953125 378.554688 391.117188 395.734375 383.664062 C 440.253906 364.328125 514.515625 340.621094 562.976562 346.410156 C 593.023438 349.984375 618.394531 369.257812 649.675781 370.179688 C 685.207031 371.226562 712.421875 355.769531 745.859375 347.089844 C 778.863281 338.53125 822.582031 354.167969 855.835938 347.273438 C 874.921875 343.332031 896.597656 324.550781 917.226562 318.085938 Z M 917.226562 318.085938 " fill-opacity="1" fill-rule="evenodd"/></g><path fill="#d6b493" d="M 30.523438 603.371094 C 37.851562 601.398438 44.929688 600.046875 51.089844 599.921875 C 66.914062 599.554688 82.800781 604.171875 98.5625 604.234375 C 124.304688 604.355469 150.042969 599.859375 175.90625 603.738281 C 185.570312 605.15625 194.007812 610.511719 203.738281 611.4375 C 227.75 613.839844 251.582031 610.945312 275.597656 610.820312 C 295.117188 610.761719 314.207031 615.5 333.726562 615.253906 C 349.613281 615.007812 365.253906 612.300781 381.199219 612.300781 C 403.308594 612.238281 424.304688 618.332031 446.289062 619.503906 C 477.691406 621.226562 503.984375 613.222656 537.484375 617.410156 C 561.25 620.425781 579.539062 635.019531 602.324219 640.316406 C 616.546875 643.640625 635.511719 616.238281 649.246094 612.730469 C 683.789062 603.863281 702.078125 624.984375 737.484375 623.074219 C 762.667969 621.71875 792.535156 599.304688 817.78125 598.628906 C 847.953125 597.828125 888.46875 618.394531 918.703125 617.101562 C 921.167969 616.980469 923.570312 616.734375 925.96875 616.363281 C 922.644531 627.261719 918.949219 637.914062 914.824219 648.507812 C 897.523438 647.953125 880.402344 648.628906 864.578125 653.679688 C 849.800781 658.421875 768.886719 686.4375 745.550781 690.933594 C 734.652344 693.027344 669.132812 698.015625 657.867188 696.84375 C 606.816406 691.425781 563.097656 691.242188 518.515625 671.535156 C 476.460938 652.941406 366.175781 671.84375 344.441406 675.167969 C 323.75 678.371094 257.679688 653.371094 214.574219 644.441406 C 158.046875 632.804688 101.089844 644.503906 44.191406 645.304688 C 38.957031 631.632812 34.402344 617.65625 30.523438 603.371094 Z M 30.523438 603.371094 " fill-opacity="1" fill-rule="evenodd"/><g clip-path="url(#07d0aa6e13)"><path fill="#d6b493" d="M 946.105469 487.667969 C 945.859375 504.910156 944.628906 521.90625 942.535156 538.652344 C 930.21875 542.839844 917.84375 546.90625 905.09375 549.613281 C 880.894531 554.785156 854.234375 551.832031 829.601562 552.878906 C 788.53125 554.664062 747.210938 555.339844 706.820312 563.097656 C 676.03125 569.011719 648.691406 579.234375 616.792969 580.527344 C 578.125 582.125 539.082031 570.121094 500.289062 571.226562 C 456.015625 572.460938 410.882812 583.050781 366.546875 580.832031 C 343.824219 579.664062 312.542969 585.820312 290.191406 582.433594 C 259.339844 577.753906 218.023438 578.492188 187.234375 576.953125 C 129.351562 574.058594 90.742188 568.148438 34.03125 579.355469 C 30.953125 579.972656 27.996094 580.648438 25.164062 581.449219 C 22.210938 568.332031 19.867188 554.972656 18.082031 541.425781 C 49.917969 540.5 76.273438 546.660156 121.777344 550.785156 C 160.019531 554.234375 196.285156 547.582031 234.832031 546.535156 C 283.234375 545.242188 336.3125 565.5625 384.835938 563.777344 C 443.824219 561.558594 503.246094 562.113281 562.175781 557.742188 C 588.53125 555.773438 611.742188 544.257812 637.484375 540.070312 C 655.894531 537.050781 674.550781 538.960938 692.964844 536.3125 C 732.925781 530.527344 779.109375 531.386719 817.71875 521.289062 C 832.804688 517.347656 846.78125 509.464844 861.808594 504.972656 C 883.667969 498.382812 906.019531 496.90625 928.25 492.039062 C 934.097656 490.808594 940.132812 489.269531 946.105469 487.667969 Z M 946.105469 487.667969 " fill-opacity="1" fill-rule="evenodd"/></g><path fill="#f8cd89" d="M 281.9375 58.046875 C 301.582031 63.589844 323.503906 70.054688 355.277344 71.347656 C 388.40625 72.703125 425.042969 71.410156 458.171875 69.316406 C 480.402344 67.898438 501.769531 59.402344 524.183594 61.1875 C 551.769531 63.34375 574.183594 77.199219 600.289062 83.785156 C 630.710938 91.421875 666.730469 85.511719 697.273438 81.9375 C 703.800781 81.199219 710.636719 80.152344 717.65625 78.984375 C 803.800781 130.152344 872.027344 208.234375 910.820312 301.582031 C 906.082031 302.199219 901.339844 302.691406 896.535156 303 C 859.714844 305.460938 822.027344 298.011719 785.574219 302.628906 C 722.953125 310.636719 672.765625 324.796875 609.652344 309.710938 C 565.316406 299.121094 522.027344 274.429688 475.351562 275.78125 C 424.796875 277.261719 376.890625 300.84375 326.089844 303 C 273.8125 305.214844 222.210938 289.144531 170.300781 286.929688 C 150.042969 286.066406 91.113281 293.023438 52.441406 294.441406 C 97.578125 190.5625 179.597656 106.261719 281.9375 58.046875 Z M 281.9375 58.046875 " fill-opacity="1" fill-rule="evenodd"/><path fill="#d6b493" d="M 69.683594 259.035156 C 98.871094 262.113281 125.105469 272.582031 153.859375 270.117188 C 181.324219 267.777344 208.230469 259.589844 236.066406 257.988281 C 258.601562 256.695312 276.582031 267.347656 298.132812 268.703125 C 320.425781 270.054688 338.835938 265.128906 359.832031 258.171875 C 393.453125 246.964844 428.984375 234.527344 464.699219 232.496094 C 525.660156 229.109375 586.003906 250.042969 646.84375 253.183594 C 697.089844 255.769531 747.644531 256.507812 797.953125 257.679688 C 822.582031 258.234375 846.414062 265.007812 870.859375 266.113281 C 878.742188 266.484375 886.5625 266.484375 894.382812 266.363281 C 903.988281 284.957031 912.421875 304.230469 919.441406 324.183594 C 882.128906 333.171875 843.765625 339.515625 805.710938 338.835938 C 757.066406 337.976562 705.03125 345.179688 656.878906 338.714844 C 615.007812 333.109375 578.863281 311.929688 536.742188 308.726562 C 478 304.230469 418.148438 323.9375 359.339844 322.089844 C 311.867188 320.609375 269.6875 303.121094 221.285156 310.636719 C 159.339844 320.242188 97.949219 325.414062 36.371094 337.484375 C 44.992188 310.082031 56.261719 283.847656 69.683594 259.035156 Z M 69.683594 259.035156 " fill-opacity="1" fill-rule="evenodd"/><g clip-path="url(#05f7d73a19)"><path fill="#fff2af" d="M 246.226562 76.828125 C 315.007812 36.804688 394.871094 13.898438 480.09375 13.898438 C 571.535156 13.898438 656.816406 40.25 728.863281 85.820312 C 696.660156 98.441406 646.472656 96.71875 626.214844 94.253906 C 583.480469 89.019531 544.378906 81.632812 500.90625 84.464844 C 480.15625 85.820312 460.574219 94.5 439.945312 96.285156 C 416.609375 98.257812 394.253906 94.625 371.289062 94.5625 C 345.980469 94.5 318.515625 99.121094 293.394531 95.609375 C 277.8125 93.453125 261.867188 85.574219 246.226562 76.828125 Z M 246.226562 76.828125 " fill-opacity="1" fill-rule="evenodd"/></g><path fill="#f8cd89" d="M 787.054688 129.414062 C 801.769531 142.347656 815.746094 156.199219 828.742188 170.855469 C 824.183594 170.734375 819.996094 170.609375 816.671875 170.917969 C 769.933594 175.351562 729.355469 190.929688 681.265625 187.171875 C 607.925781 181.386719 551.953125 188.652344 479.722656 193.023438 C 393.269531 198.257812 306.570312 196.039062 220.363281 191.421875 C 201.765625 190.4375 155.890625 190.5625 121.46875 182.308594 C 128.738281 173.566406 136.3125 165.128906 144.128906 156.941406 C 189.328125 160.632812 232.554688 175.90625 279.105469 173.6875 C 324.613281 171.472656 368.207031 157.679688 413.773438 162.914062 C 531.078125 176.460938 644.625 134.527344 761.191406 130.460938 C 769.566406 130.214844 778.246094 129.660156 787.054688 129.414062 Z M 787.054688 129.414062 " fill-opacity="1" fill-rule="evenodd"/></svg>