<svg xmlns="http://www.w3.org/2000/svg" xmlns:xlink="http://www.w3.org/1999/xlink" width="1280" zoomAndPan="magnify" viewBox="0 0 960 959.999988" height="1280" preserveAspectRatio="xMidYMid meet" version="1.0"><defs><clipPath id="1af4534547"><path d="M 13.644531 13.644531 L 946.347656 13.644531 L 946.347656 946.347656 L 13.644531 946.347656 Z M 13.644531 13.644531 " clip-rule="nonzero"/></clipPath><clipPath id="7671b4a25c"><path d="M 30.300781 154.191406 L 946.347656 154.191406 L 946.347656 493.582031 L 30.300781 493.582031 Z M 30.300781 154.191406 " clip-rule="nonzero"/></clipPath></defs><g clip-path="url(#1af4534547)"><path fill="#55bdcb" d="M 398.210938 939.039062 C 144.6875 893.871094 -24.21875 651.730469 20.953125 398.207031 C 66.125 144.675781 308.261719 -24.222656 561.789062 20.945312 C 815.316406 66.117188 984.21875 308.257812 939.050781 561.78125 C 893.875 815.304688 651.734375 984.214844 398.210938 939.039062 " fill-opacity="1" fill-rule="nonzero"/></g><path fill="#8adcdd" d="M 865.800781 218.316406 L 865.792969 218.3125 C 859.734375 209.378906 853.390625 200.640625 846.722656 192.140625 C 675.242188 199.789062 476.753906 137.839844 337.722656 35.953125 C 327.058594 39.382812 316.558594 43.195312 306.207031 47.363281 C 306.203125 47.367188 306.195312 47.367188 306.1875 47.371094 C 463.71875 205.574219 670.5625 234.304688 865.800781 218.316406 " fill-opacity="1" fill-rule="nonzero"/><path fill="#8adcdd" d="M 884.875 711.371094 C 890.859375 700.90625 896.429688 690.144531 901.617188 679.144531 C 727.996094 680.980469 353.855469 625.726562 355.515625 521.707031 C 347.824219 439.6875 550.355469 405.550781 929.402344 604.078125 C 932.21875 593.835938 934.644531 583.40625 936.785156 572.847656 C 883.867188 542.320312 823.214844 508.8125 799.640625 497.6875 C 634.292969 419.667969 494.25 400.015625 424.058594 399.46875 C 296.1875 398.476562 264.640625 448.445312 268.351562 497.550781 C 183.511719 496.625 85.820312 445.417969 20.066406 404.050781 C 17.453125 419.832031 15.664062 435.558594 14.675781 451.191406 C 139.828125 550.417969 471.726562 773.003906 884.875 711.371094 " fill-opacity="1" fill-rule="nonzero"/><path fill="#8adcdd" d="M 630.835938 558.515625 C 630.925781 558.765625 631.023438 559.011719 631.117188 559.261719 C 615.375 556.507812 620.335938 556.558594 630.671875 557.324219 C 630.761719 557.714844 630.6875 558.140625 630.835938 558.515625 Z M 595.910156 563.757812 C 589.15625 601.910156 685.988281 602.859375 722.160156 608.714844 C 751.121094 613.40625 836.160156 637.207031 912.472656 654.433594 C 915.902344 645.902344 919.085938 637.230469 922.027344 628.433594 C 875.472656 607.980469 829.96875 585.335938 782.308594 565.203125 C 744.441406 549.203125 604.132812 517.386719 595.910156 563.757812 " fill-opacity="1" fill-rule="nonzero"/><g clip-path="url(#7671b4a25c)"><path fill="#5bcede" d="M 242.914062 402.511719 C 277.585938 308.351562 535.351562 299.722656 721.214844 376.25 C 826.449219 430.132812 902.015625 471.269531 946.105469 493.105469 C 946.527344 478.671875 946.21875 464.34375 945.320312 450.128906 C 770.621094 255.40625 417.339844 157.109375 146.179688 154.4375 C 135.160156 165.714844 124.683594 177.558594 114.820312 189.957031 C 261.863281 187.039062 408.511719 211.722656 468.582031 274.6875 C 497.644531 305.15625 300.171875 229.09375 229.933594 308.019531 C 169.953125 375.40625 97.992188 356.039062 44.039062 314.746094 C 38.910156 328.316406 34.359375 342.203125 30.464844 356.429688 C 120.828125 439.640625 216.214844 475.019531 242.914062 402.511719 " fill-opacity="1" fill-rule="nonzero"/></g><path fill="#5bcede" d="M 426.609375 833.613281 C 505.777344 852.957031 583.605469 889.695312 663.601562 908.546875 C 673.359375 904.355469 682.972656 899.863281 692.40625 895.027344 C 652.148438 881.808594 612.664062 864.914062 573.769531 851.085938 C 511.140625 828.816406 447.09375 809.84375 381.691406 797.644531 C 316.519531 785.484375 243.882812 778.128906 173.511719 783.671875 C 200.757812 772.949219 229.390625 765.699219 258.367188 761.722656 C 321.382812 753.066406 382.992188 760.933594 444.667969 770.578125 C 540.644531 793.457031 643.488281 823.96875 748.058594 861.472656 C 758.09375 854.421875 767.816406 846.914062 777.273438 839.089844 C 553.1875 738.839844 281.617188 615.257812 50.144531 660.46875 C 59.011719 681.527344 69.382812 701.863281 81.171875 721.332031 C 129.964844 720.496094 187.273438 724.601562 250.9375 733.460938 C 239.03125 735.125 227.625 737 217.113281 738.976562 C 188.621094 744.332031 150.460938 754.464844 115.207031 770.234375 C 128.457031 786.894531 142.8125 802.691406 158.257812 817.441406 C 246.667969 806.265625 334.199219 811.039062 426.609375 833.613281 " fill-opacity="1" fill-rule="nonzero"/></svg>