<svg xmlns="http://www.w3.org/2000/svg" xmlns:xlink="http://www.w3.org/1999/xlink" width="1280" zoomAndPan="magnify" viewBox="0 0 960 959.999988" height="1280" preserveAspectRatio="xMidYMid meet" version="1.0"><defs><clipPath id="ff436e9fbf"><path d="M 21.160156 21.160156 L 939.125 21.160156 L 939.125 939.125 L 21.160156 939.125 Z M 21.160156 21.160156 " clip-rule="nonzero"/></clipPath><clipPath id="7ebb2ed97d"><path d="M 598 348 L 939.125 348 L 939.125 581.738281 L 598 581.738281 Z M 598 348 " clip-rule="nonzero"/></clipPath><clipPath id="97b6363c01"><path d="M 21.160156 469 L 713 469 L 713 844 L 21.160156 844 Z M 21.160156 469 " clip-rule="nonzero"/></clipPath><clipPath id="ed75a088ed"><path d="M 21.160156 408 L 162 408 L 162 536 L 21.160156 536 Z M 21.160156 408 " clip-rule="nonzero"/></clipPath></defs><g clip-path="url(#ff436e9fbf)"><path fill="#fca430" d="M 939.121094 480.148438 C 939.121094 733.636719 733.628906 939.128906 480.144531 939.128906 C 226.652344 939.128906 21.160156 733.636719 21.160156 480.148438 C 21.160156 226.65625 226.652344 21.164062 480.144531 21.164062 C 733.628906 21.164062 939.121094 226.65625 939.121094 480.148438 " fill-opacity="1" fill-rule="nonzero"/></g><path fill="#f28e3d" d="M 152.277344 453.953125 C 175.273438 475.050781 194.722656 500.765625 222.992188 515.265625 C 277.394531 543.175781 340.976562 529.816406 399.121094 540.226562 C 434.1875 546.503906 465.066406 563.652344 497.050781 578.410156 C 527.210938 592.332031 558.773438 602.375 591.402344 608.632812 C 666.953125 623.121094 744.453125 619.410156 820.820312 615.464844 C 825.734375 615.207031 827.691406 608.804688 823.347656 606.128906 C 788.722656 584.808594 748.429688 582.230469 708.914062 578.921875 C 685.75 576.984375 662.191406 574.875 640.019531 567.460938 C 616.015625 559.4375 597.652344 543.878906 577.1875 529.679688 C 537.257812 501.984375 487.769531 496.835938 441.144531 488.328125 C 391.835938 479.328125 342.527344 470.328125 293.222656 461.324219 C 435.085938 417.097656 585.949219 461.082031 723.417969 503.308594 C 729.0625 505.042969 731.835938 497.207031 727.277344 494.15625 C 635.453125 432.59375 528.855469 394.675781 418.691406 384.898438 C 364.582031 380.097656 308.34375 388.882812 254.957031 377.851562 C 227.949219 372.269531 204.59375 360.164062 186.097656 339.503906 C 168.167969 319.488281 153.316406 297.699219 132.835938 279.960938 C 117.996094 267.105469 101.84375 256.109375 84.753906 246.980469 C 60.945312 287.261719 43.109375 331.484375 32.484375 378.449219 C 46.957031 384.34375 61.117188 391.050781 74.878906 398.609375 C 102.738281 413.914062 128.847656 432.460938 152.277344 453.953125 " fill-opacity="1" fill-rule="nonzero"/><g clip-path="url(#7ebb2ed97d)"><path fill="#f28e3d" d="M 887.332031 414.503906 C 851.058594 414.113281 821.878906 392.746094 789.871094 378.65625 C 731.394531 352.921875 667.1875 343.417969 603.730469 350.359375 C 599.234375 350.847656 596.363281 357.164062 601.203125 359.695312 C 628.328125 373.851562 660.859375 371.109375 687.53125 385.710938 C 701.527344 393.371094 709.597656 407.574219 722.605469 416.472656 C 735.050781 424.988281 750.074219 428.453125 764.753906 430.683594 C 800.644531 436.125 833.941406 441.144531 866.441406 458.664062 C 881.589844 466.828125 897.742188 476.578125 909.199219 489.613281 C 918.007812 499.632812 919.566406 511.394531 922.085938 523.195312 C 867.25 527.722656 812.121094 527.214844 757.226562 521.691406 C 751.664062 521.132812 750.316406 530.644531 755.894531 531.53125 C 809.789062 540.085938 854.585938 581.613281 910.367188 581.617188 C 916.335938 581.617188 922.367188 580.894531 928.292969 579.570312 C 935.363281 547.554688 939.121094 514.292969 939.121094 480.148438 C 939.121094 457.980469 937.519531 436.195312 934.480469 414.871094 C 919.167969 412.882812 903.171875 414.675781 887.332031 414.503906 " fill-opacity="1" fill-rule="nonzero"/></g><g clip-path="url(#97b6363c01)"><path fill="#f28e3d" d="M 364.90625 839.039062 C 416.652344 850.480469 463.710938 834.296875 514.589844 826.734375 C 578.777344 817.1875 643.78125 825.027344 707.707031 832.765625 C 712.84375 833.386719 714.234375 825.75 710.234375 823.4375 C 625.054688 774.085938 523.980469 791.8125 430.246094 787.878906 C 375.570312 785.585938 323.210938 772.042969 270.816406 757.152344 C 228.714844 745.1875 180.347656 730.039062 156.230469 690.378906 C 142.304688 667.476562 135.5625 632.703125 114.355469 614.855469 C 156.847656 622.238281 190.023438 661.589844 225.015625 684.546875 C 269.972656 714.039062 322.929688 729.003906 376.558594 729.039062 C 380.707031 729.042969 383.417969 723.433594 380.097656 720.488281 C 348.824219 692.738281 306.761719 688.171875 270.664062 669.535156 C 245.339844 656.457031 235.800781 638.609375 224.894531 613.148438 C 216.589844 593.765625 204.316406 581.867188 185.964844 571.964844 C 165.585938 560.960938 145.511719 550.445312 126.335938 537.316406 C 105.792969 523.253906 86.011719 508.089844 65.265625 494.320312 C 51.160156 484.957031 36.519531 476.382812 21.292969 469.523438 C 21.214844 473.058594 21.160156 476.59375 21.160156 480.148438 C 21.160156 575.183594 50.046875 663.476562 99.515625 736.722656 C 138.253906 756.691406 177.957031 774.800781 218.507812 790.921875 C 265.886719 809.757812 315.035156 828.011719 364.90625 839.039062 " fill-opacity="1" fill-rule="nonzero"/></g><path fill="#f28e3d" d="M 317.125 160.371094 C 328.214844 168.640625 340.367188 170.480469 353.675781 172.957031 C 386.320312 179.039062 416.261719 192.648438 442.171875 213.433594 C 446.324219 216.757812 453.230469 212.589844 450.042969 207.359375 C 435.300781 183.222656 409.347656 173.980469 384.789062 162.777344 C 370.738281 156.359375 356.976562 149.191406 346.449219 137.609375 C 334.199219 124.136719 325.828125 113.738281 309.1875 105.515625 C 300.132812 101.042969 291.164062 96.996094 284.160156 89.449219 C 279.152344 84.054688 275.617188 77.425781 271.824219 71.058594 C 260.949219 76.609375 250.339844 82.589844 239.988281 88.953125 C 258.226562 103.300781 275.3125 118.878906 290.953125 134.546875 C 299.53125 143.140625 307.347656 153.078125 317.125 160.371094 " fill-opacity="1" fill-rule="nonzero"/><path fill="#f28e3d" d="M 412.421875 102.429688 C 444.46875 105.09375 475.589844 100.078125 507.320312 108.027344 C 537.820312 115.675781 562.859375 131.925781 589.019531 148.535156 C 610.558594 162.207031 632.3125 173.054688 657.976562 175.890625 C 674.867188 177.757812 692.042969 176.851562 708.832031 179.722656 C 725.042969 182.492188 739.851562 189.308594 754.878906 195.695312 C 785.433594 208.675781 816.914062 212.230469 845.492188 202.332031 C 835.523438 189.246094 824.878906 176.703125 813.589844 164.773438 C 784.933594 164.597656 754.363281 149.90625 731.375 133.65625 C 715.339844 122.324219 698.445312 105.933594 677.472656 105.765625 C 667.308594 105.683594 658.816406 110.667969 649.1875 112.933594 C 631.839844 117.007812 617.46875 106.589844 604 97.207031 C 566.84375 71.3125 524.8125 54.839844 479.441406 51.324219 C 449.9375 49.035156 425.878906 50.082031 401.988281 29.972656 C 401.300781 29.390625 400.621094 28.773438 399.945312 28.15625 C 369.902344 33.449219 340.871094 41.667969 313.148438 52.503906 C 322.566406 59.539062 332.019531 66.523438 341.597656 73.316406 C 363.203125 88.640625 385.664062 100.199219 412.421875 102.429688 " fill-opacity="1" fill-rule="nonzero"/><path fill="#e87e5d" d="M 231.789062 245.8125 C 244.253906 258.464844 254.132812 273.550781 267.683594 285.15625 C 298.617188 311.636719 335.75 299.238281 372.046875 307.621094 C 407.472656 315.800781 435.667969 344.882812 473.871094 341.386719 C 477.121094 341.089844 536.277344 344.929688 537.539062 341.675781 C 549.511719 310.761719 437.675781 291.203125 408.253906 285.816406 C 387.363281 281.992188 366.457031 279.160156 348.582031 266.71875 C 331.8125 255.046875 318.726562 239.035156 301.121094 228.402344 C 285.113281 218.738281 267.246094 212.648438 251.222656 203.019531 C 229.554688 190.003906 220.089844 170.773438 210.816406 148.097656 C 206.941406 138.617188 202.171875 128.527344 196.160156 119.550781 C 168.363281 141.46875 143.183594 166.542969 121.117188 194.214844 C 139.929688 204.871094 161.605469 210.1875 182.371094 217.210938 C 200.980469 223.5 217.851562 231.675781 231.789062 245.8125 " fill-opacity="1" fill-rule="nonzero"/><path fill="#e87e5d" d="M 862.777344 285.199219 C 842.207031 277.15625 822.25 267.378906 800.839844 261.652344 C 778.882812 255.777344 756.074219 254.644531 733.683594 251.300781 C 711.859375 248.042969 690.273438 243.238281 669.109375 237.015625 C 625.226562 224.109375 583.6875 204.777344 545.128906 180.226562 C 541.554688 177.953125 536.367188 181.753906 537.773438 185.882812 C 552.855469 230.089844 591.578125 257.054688 631.207031 278.050781 C 652.949219 289.566406 676.453125 303.324219 701.902344 301.421875 C 717.742188 300.238281 732.015625 296.671875 747.769531 301.265625 C 760.191406 304.894531 771.5 311.539062 782.425781 318.3125 C 802.304688 330.640625 821.597656 344.46875 844.59375 350.339844 C 869.984375 356.828125 896.359375 354.527344 922.25 356.496094 C 916.535156 336.015625 909.425781 316.121094 901.050781 296.90625 C 888.050781 293.988281 875.292969 290.089844 862.777344 285.199219 " fill-opacity="1" fill-rule="nonzero"/><path fill="#e87e5d" d="M 667.070312 675.027344 C 547.609375 656.242188 429.121094 642.441406 313.148438 581.617188 C 273.050781 560.585938 286.898438 606.675781 345.421875 633.535156 C 448.265625 680.742188 518.492188 714.769531 630.421875 734.246094 C 682.855469 743.371094 736.085938 748.199219 789.324219 747.183594 C 811.082031 746.769531 833.464844 744.664062 855.726562 743.992188 C 874.320312 717.574219 890.207031 689.121094 902.964844 659.011719 C 828.46875 685.851562 745.347656 687.335938 667.070312 675.027344 " fill-opacity="1" fill-rule="nonzero"/><g clip-path="url(#ed75a088ed)"><path fill="#e87e5d" d="M 155.269531 535.714844 C 158.796875 536.679688 162.667969 533.242188 161.433594 529.554688 C 156.027344 513.382812 141.964844 507.363281 127.160156 501.261719 C 107.398438 493.117188 92.644531 482.09375 78.695312 465.90625 C 61.765625 446.261719 47.148438 423.699219 26.78125 408.222656 C 23.207031 430.933594 21.300781 454.191406 21.1875 477.878906 C 32.058594 486.132812 44.648438 492.34375 56.78125 498.394531 C 88.300781 514.105469 121.3125 526.429688 155.269531 535.714844 " fill-opacity="1" fill-rule="nonzero"/></g></svg>