<svg xmlns="http://www.w3.org/2000/svg" xmlns:xlink="http://www.w3.org/1999/xlink" width="1280" zoomAndPan="magnify" viewBox="0 0 960 959.999988" height="1280" preserveAspectRatio="xMidYMid meet" version="1.0"><defs><clipPath id="d2e7591531"><path d="M 15.257812 29.5625 L 944.507812 29.5625 L 944.507812 929 L 15.257812 929 Z M 15.257812 29.5625 " clip-rule="nonzero"/></clipPath><clipPath id="e3b7af7360"><path d="M 17 29.5625 L 944.507812 29.5625 L 944.507812 696 L 17 696 Z M 17 29.5625 " clip-rule="nonzero"/></clipPath><clipPath id="1a548a2ea2"><path d="M 15.257812 142 L 944.507812 142 L 944.507812 802 L 15.257812 802 Z M 15.257812 142 " clip-rule="nonzero"/></clipPath></defs><g clip-path="url(#d2e7591531)"><path fill="#707070" d="M 943.042969 367.601562 C 940.925781 346.535156 934.492188 327.304688 920.257812 311.128906 C 907.8125 296.984375 894.132812 284.078125 880.40625 271.214844 C 853 245.519531 822.945312 223.136719 792.757812 200.921875 C 788.25 197.609375 783.925781 194.035156 779.007812 191.3125 C 777.871094 191.09375 776.761719 190.816406 775.664062 190.480469 C 776.753906 190.816406 777.871094 191.101562 779.007812 191.3125 C 778.382812 190.726562 777.8125 190.074219 777.128906 189.578125 C 756.160156 174.347656 734.800781 159.652344 714.632812 143.355469 C 697.089844 129.179688 679.828125 114.664062 662.332031 100.433594 C 655.398438 94.796875 647.777344 90.027344 638.554688 89.65625 C 619.109375 88.871094 599.6875 89.316406 580.476562 92.871094 C 564.425781 95.839844 548.792969 100.347656 533.46875 105.9375 C 531.730469 106.574219 530.320312 106.710938 528.601562 105.605469 C 507.964844 92.320312 486.914062 79.71875 465.574219 67.609375 C 444.769531 55.800781 423.519531 44.898438 401.367188 35.789062 C 394.671875 33.023438 387.644531 31.625 380.785156 29.585938 C 379.285156 29.585938 377.789062 29.585938 376.289062 29.585938 C 365.074219 32.152344 355.886719 38.550781 346.800781 45.15625 C 336.722656 52.488281 326.957031 60.320312 316.414062 66.910156 C 301.636719 76.148438 286.453125 84.773438 270.945312 92.769531 C 252.128906 102.476562 233.222656 112.007812 214.289062 121.5 C 208.128906 124.585938 204.152344 129.335938 201.925781 135.773438 C 199.316406 143.296875 196.636719 150.816406 195.03125 158.621094 C 193.929688 163.976562 191.234375 168.097656 186.855469 171.0625 C 169.925781 182.53125 154.601562 196.132812 137.792969 207.800781 C 125.175781 216.558594 112.757812 225.488281 98.570312 231.535156 C 86.957031 236.484375 77.269531 243.921875 69.261719 253.558594 C 52.839844 273.316406 39.453125 295.027344 28.285156 318.109375 C 23.347656 328.3125 19.261719 338.859375 17.207031 350.089844 C 15.496094 355.757812 15.25 361.53125 15.8125 367.390625 C 17.617188 386.183594 24.8125 403.203125 33.109375 419.835938 C 39.214844 432.070312 45.316406 444.316406 51.800781 456.351562 C 55.316406 462.871094 55.285156 470.019531 56.574219 476.925781 C 63.835938 515.820312 70.40625 554.851562 79.84375 593.308594 C 80.222656 594.84375 80.339844 596.492188 81.371094 597.820312 C 81.488281 598.675781 81.519531 599.550781 81.738281 600.382812 C 84.332031 610.109375 87.53125 619.648438 91.054688 629.066406 C 104.960938 666.246094 118.914062 703.402344 130.21875 741.492188 C 132.625 749.601562 137.097656 756.535156 143.257812 762.453125 C 157.859375 776.496094 173.621094 789.003906 190.589844 800.082031 C 210.089844 812.808594 229.546875 825.667969 251.402344 834.019531 C 260.550781 837.515625 267.90625 842.800781 274.523438 849.78125 C 290.421875 866.566406 305.121094 884.339844 318.433594 903.195312 C 328.351562 917.25 341.234375 925.96875 358.34375 927.898438 C 379.417969 930.273438 400.425781 928.21875 421.382812 926.121094 C 434.875 924.769531 448.304688 922.753906 461.78125 921.195312 C 474.851562 919.691406 487.777344 917.320312 500.957031 916.277344 C 516.539062 915.039062 531.605469 910.28125 546.40625 905.105469 C 564.921875 898.625 582.734375 890.355469 601.078125 883.414062 C 623.859375 874.800781 647.175781 868.472656 671.601562 867.429688 C 700.375 866.199219 729.167969 865.367188 757.957031 864.585938 C 775.546875 864.109375 793.011719 862.785156 810.253906 859.082031 C 830 854.84375 848.828125 848.460938 865.167969 836.085938 C 876.023438 827.867188 885.734375 818.332031 895.96875 809.402344 C 905.113281 801.421875 912.03125 791.738281 916.804688 780.570312 C 926.472656 757.929688 931.089844 734.109375 933.210938 709.722656 C 934.394531 696.078125 935.566406 682.433594 936.523438 668.769531 C 937.558594 653.980469 938.445312 639.171875 939.195312 624.363281 C 940.835938 592.058594 937.941406 559.78125 938.320312 527.480469 C 938.695312 498.207031 942.003906 469.105469 943.644531 439.902344 C 943.84375 436.394531 942.863281 432.769531 944.464844 429.367188 C 944.464844 426.871094 944.464844 424.378906 944.464844 421.878906 C 944.464844 419.632812 944.464844 417.386719 944.464844 415.144531 C 944.464844 413.398438 944.464844 411.648438 944.464844 409.902344 C 944.464844 409.15625 944.464844 408.402344 944.464844 407.65625 C 944.464844 405.410156 944.464844 403.160156 944.464844 400.921875 C 944.464844 395.679688 944.464844 390.4375 944.464844 385.195312 C 944.464844 383.695312 944.464844 382.203125 944.464844 380.703125 C 942.898438 376.464844 943.480469 371.972656 943.042969 367.601562 Z M 943.042969 367.601562 " fill-opacity="1" fill-rule="nonzero"/></g><path fill="#818181" d="M 399.445312 419.125 C 399.582031 425.820312 395.390625 430.34375 390.988281 434.292969 C 381.039062 443.234375 369.730469 450.292969 357.914062 456.527344 C 343.808594 463.960938 329.363281 470.710938 315.011719 477.636719 C 303.386719 483.246094 291.769531 482.757812 279.84375 478.6875 C 272.078125 476.039062 264.105469 473.976562 256.246094 471.589844 C 236.457031 465.578125 217.910156 456.875 200.546875 445.652344 C 197.746094 443.835938 194.851562 442.039062 192.914062 439.164062 C 202.410156 425.628906 214.746094 415.417969 229.285156 407.671875 C 243.367188 400.167969 257.535156 392.949219 272.726562 387.839844 C 294.652344 380.464844 316.851562 380.019531 339.40625 384.023438 C 352.152344 386.28125 363.835938 390.503906 373.640625 399.410156 C 381.660156 406.691406 390.429688 413.089844 399.445312 419.125 Z M 604.066406 267.683594 C 599.992188 259.125 595.550781 250.769531 590.886719 242.527344 C 587.816406 237.105469 583.421875 233.09375 577.476562 231.238281 C 558.210938 225.238281 538.902344 219.363281 518.394531 219.746094 C 510.855469 219.886719 503.570312 221.636719 496.503906 224.078125 C 486.253906 227.613281 476.199219 231.683594 466.566406 236.683594 C 449.746094 245.410156 437.929688 259.148438 428.414062 275.140625 C 428.164062 275.5625 428.054688 276.0625 427.878906 276.53125 C 430.824219 282.53125 436.316406 285.191406 442.246094 286.902344 C 448.847656 288.804688 455.675781 289.5 462.566406 289.378906 C 469.542969 289.253906 476.492188 289.390625 483.425781 290.480469 C 499.484375 293.011719 514.234375 299.441406 529.125 305.5 C 542.488281 310.9375 555.601562 317.070312 570.179688 319 C 593.945312 322.136719 610.863281 307.15625 614.304688 285 C 609.878906 279.828125 606.953125 273.746094 604.066406 267.683594 Z M 134.234375 391.160156 C 127.65625 393.847656 122.359375 397.921875 117.957031 403.773438 C 105.847656 419.890625 101.046875 438.550781 97.953125 457.878906 C 97.445312 461.042969 97.667969 464.359375 97.828125 467.59375 C 98.324219 477.484375 96.746094 486.964844 92.558594 495.96875 C 92.800781 497.183594 92.851562 498.460938 93.300781 499.59375 C 96.832031 508.53125 100.898438 517.214844 105.835938 525.460938 C 110.160156 532.683594 116.183594 537.601562 124.816406 538.4375 C 128.644531 538.804688 132.53125 538.730469 136.386719 538.652344 C 148.34375 538.425781 156.667969 528.089844 154.339844 516.34375 C 152.644531 507.800781 150.71875 499.296875 149.105469 490.742188 C 146.167969 475.226562 142.5625 459.777344 142.796875 443.867188 C 142.917969 435.410156 144.375 427.035156 145.804688 418.710938 C 147.640625 408.070312 148.742188 397.195312 153.960938 387.425781 C 147.253906 387.976562 140.542969 388.582031 134.234375 391.160156 Z M 769.933594 360.390625 C 753.488281 360.8125 741.265625 371.707031 739.230469 388.0625 C 738.488281 394.039062 738.605469 399.945312 739.128906 405.921875 C 739.488281 409.996094 739.410156 414.105469 738.898438 418.214844 C 738.402344 422.160156 738.464844 426.164062 738.804688 430.144531 C 739.523438 431.292969 739.902344 432.621094 740.988281 433.578125 C 750.835938 442.238281 761.828125 448.097656 775.40625 447.320312 C 795.132812 446.191406 809.113281 435.566406 808.941406 413.796875 C 808.894531 407.972656 808.269531 402.152344 808.28125 396.328125 C 808.296875 382.84375 801.683594 372.414062 793.265625 362.75 C 785.484375 361.921875 777.851562 360.1875 769.933594 360.390625 Z M 518.492188 351.496094 C 518.492188 351.496094 518.523438 351.550781 518.523438 351.550781 C 510.496094 346.261719 501.765625 343.914062 492.078125 343.980469 C 480.777344 344.050781 473.199219 349.992188 466.886719 358.335938 C 465.148438 360.636719 464.492188 363.519531 464.609375 366.480469 C 467.667969 370.0625 471.957031 371.976562 475.710938 374.605469 C 483.75 380.230469 492.585938 384.882812 498.410156 393.199219 C 501.488281 397.589844 504.523438 402.007812 507.453125 406.496094 C 509.808594 410.101562 512.757812 413.074219 516.269531 415.53125 C 522.296875 419.738281 530.53125 418.367188 534.84375 412.394531 C 540.273438 404.878906 540.933594 396.792969 537.589844 388.289062 C 534.429688 380.265625 530.1875 372.757812 526.367188 365.054688 C 524.210938 360.71875 522.507812 356.105469 519.285156 352.355469 C 519.023438 352.050781 518.753906 351.769531 518.492188 351.496094 Z M 518.492188 351.496094 " fill-opacity="1" fill-rule="nonzero"/><g clip-path="url(#e3b7af7360)"><path fill="#969595" d="M 380.785156 29.585938 C 387.644531 31.625 394.671875 33.023438 401.367188 35.777344 C 423.519531 44.894531 444.769531 55.789062 465.574219 67.597656 C 486.914062 79.707031 507.964844 92.308594 528.601562 105.59375 C 530.320312 106.703125 531.730469 106.5625 533.46875 105.925781 C 548.792969 100.339844 564.425781 95.828125 580.476562 92.859375 C 599.6875 89.304688 619.117188 88.859375 638.554688 89.644531 C 647.777344 90.015625 655.398438 94.785156 662.332031 100.421875 C 679.832031 114.648438 697.089844 129.167969 714.632812 143.34375 C 734.800781 159.640625 756.164062 174.335938 777.128906 189.566406 C 777.8125 190.0625 778.382812 190.722656 779.007812 191.300781 C 772.9375 190.160156 767.617188 187.019531 761.90625 184.902344 C 753.027344 181.609375 744.335938 177.699219 735.285156 174.992188 C 724.738281 171.832031 715.308594 166.882812 706.339844 160.644531 C 699.488281 155.882812 692.164062 151.867188 684.3125 148.832031 C 671.632812 143.929688 658.769531 143.648438 645.78125 146.992188 C 618.503906 154.007812 591.226562 161.035156 564.253906 169.121094 C 555.625 171.707031 548.175781 170.789062 539.835938 167.703125 C 518.691406 159.886719 497.246094 152.777344 475.078125 148.304688 C 464.238281 146.117188 453.3125 143.648438 442.324219 143 C 429.039062 142.21875 415.785156 143.34375 403.492188 149.917969 C 389.402344 157.441406 375.460938 165.140625 362.476562 174.496094 C 349.683594 183.710938 334.917969 189.519531 321.664062 197.964844 C 314.191406 202.726562 306.054688 206.300781 297.9375 209.835938 C 292.023438 212.410156 285.589844 212.714844 279.34375 213.625 C 264.089844 215.847656 248.808594 217.964844 233.472656 219.519531 C 219.988281 220.886719 206.460938 221.917969 193.101562 224.253906 C 160.792969 229.898438 131.152344 241.628906 105.046875 262.027344 C 93.960938 270.6875 82.453125 278.808594 72.035156 288.316406 C 62.371094 297.132812 52.980469 306.234375 44.203125 315.941406 C 34.914062 326.210938 26.433594 337.121094 18.964844 348.800781 C 18.550781 349.453125 17.996094 349.933594 17.207031 350.085938 C 19.261719 338.859375 23.347656 328.308594 28.285156 318.105469 C 39.453125 295.015625 52.839844 273.308594 69.261719 253.550781 C 77.269531 243.917969 86.957031 236.480469 98.570312 231.53125 C 112.757812 225.484375 125.175781 216.554688 137.792969 207.792969 C 154.601562 196.121094 169.925781 182.527344 186.855469 171.058594 C 191.234375 168.09375 193.929688 163.972656 195.03125 158.613281 C 196.636719 150.816406 199.316406 143.296875 201.925781 135.769531 C 204.152344 129.332031 208.128906 124.585938 214.289062 121.492188 C 233.214844 112.003906 252.125 102.472656 270.945312 92.765625 C 286.453125 84.769531 301.636719 76.144531 316.414062 66.902344 C 326.953125 60.308594 336.722656 52.476562 346.800781 45.148438 C 355.886719 38.550781 365.074219 32.152344 376.289062 29.585938 C 377.789062 29.585938 379.285156 29.585938 380.785156 29.585938 Z M 944.472656 385.195312 C 943.207031 390.4375 943.375 395.679688 944.472656 400.921875 C 944.472656 395.679688 944.472656 390.4375 944.472656 385.195312 Z M 944.472656 415.144531 C 943.382812 417.390625 943.140625 419.640625 944.472656 421.878906 C 944.472656 419.640625 944.472656 417.390625 944.472656 415.144531 Z M 944.472656 407.65625 C 943.777344 408.402344 943.785156 409.15625 944.472656 409.902344 C 944.472656 409.15625 944.472656 408.410156 944.472656 407.65625 Z M 440.941406 609.527344 C 443.417969 616.414062 448.804688 620.628906 454.910156 623.984375 C 463.910156 628.929688 473.566406 632.3125 483.261719 635.597656 C 504.761719 642.890625 526.703125 647.664062 549.539062 647.207031 C 558.363281 647.035156 566.457031 644.53125 573.507812 638.984375 C 578.835938 634.792969 583.335938 629.757812 587.625 624.601562 C 600.550781 609.089844 614.160156 594.195312 627.925781 579.441406 C 638.339844 568.28125 647.429688 556.199219 655.617188 543.3125 C 663.957031 530.183594 661.933594 514.25 652.554688 504.246094 C 651.820312 506.492188 650.914062 508.699219 650.371094 510.992188 C 645.488281 531.621094 637.527344 550.601562 623.609375 567.082031 C 607.945312 585.625 590.558594 602.003906 569.855469 614.714844 C 555.847656 623.3125 540.144531 626.621094 524.125 628.636719 C 503.738281 631.199219 484.742188 626.496094 467.0625 616.523438 C 458.027344 611.429688 448.898438 606.667969 439.175781 603.058594 C 439.753906 605.214844 440.1875 607.425781 440.941406 609.527344 Z M 662.265625 255.542969 C 662.855469 271.582031 675.355469 280.453125 691.480469 279.410156 C 704.460938 278.566406 716.679688 266.773438 718.96875 253.933594 C 719.996094 248.148438 720.566406 242.328125 717.585938 236.832031 C 713.90625 242.460938 710.296875 248.101562 705.324219 252.78125 C 698.535156 259.179688 691.058594 261.847656 681.765625 259.136719 C 675.25 257.242188 669.25 254.234375 663.078125 251.589844 C 662.183594 252.78125 662.21875 254.171875 662.265625 255.542969 Z M 625.476562 688.539062 C 636.308594 700.414062 652.113281 696.117188 656.285156 680.640625 C 658.898438 670.941406 659.425781 660.988281 659.226562 651.003906 C 659.15625 647.550781 659.921875 644.03125 658.613281 640.652344 C 657.84375 643.019531 657.101562 645.386719 656.300781 647.738281 C 653.855469 654.925781 651.789062 662.273438 647.070312 668.449219 C 642.015625 675.050781 635.117188 676.800781 627.917969 673.320312 C 623.800781 671.332031 621.332031 667.730469 618.71875 664.226562 C 615.96875 660.550781 614.136719 656.203125 610.605469 653.097656 C 611.15625 666.753906 616.472656 678.660156 625.476562 688.539062 Z M 688.363281 607.4375 C 693.921875 611.621094 701.582031 610.15625 706.011719 603.964844 C 712.824219 594.445312 717.070312 583.710938 720.320312 572.5625 C 721.058594 570.046875 721.015625 567.328125 720.496094 564.789062 C 719.871094 561.730469 718.277344 559.25 714.703125 558.929688 C 711.964844 567.351562 708.464844 575.453125 703.78125 582.964844 C 698.851562 590.878906 694.054688 599.066406 683.988281 601.578125 C 684.75 604.050781 686.367188 605.9375 688.363281 607.4375 Z M 688.363281 607.4375 " fill-opacity="1" fill-rule="nonzero"/></g><path fill="#4e4d4d" d="M 938.320312 527.480469 C 937.941406 559.78125 940.84375 592.050781 939.195312 624.363281 C 938.445312 639.171875 937.558594 653.972656 936.523438 668.769531 C 935.566406 682.433594 934.394531 696.078125 933.210938 709.722656 C 931.085938 734.109375 926.472656 757.929688 916.804688 780.570312 C 912.03125 791.742188 905.121094 801.421875 895.96875 809.402344 C 885.734375 818.332031 876.023438 827.867188 865.167969 836.085938 C 848.828125 848.460938 829.996094 854.847656 810.253906 859.082031 C 793.011719 862.785156 775.546875 864.109375 757.957031 864.585938 C 729.167969 865.371094 700.375 866.199219 671.601562 867.429688 C 647.179688 868.480469 623.867188 874.800781 601.078125 883.414062 C 582.734375 890.351562 564.929688 898.621094 546.40625 905.105469 C 531.605469 910.28125 516.539062 915.042969 500.957031 916.277344 C 487.777344 917.320312 474.851562 919.691406 461.78125 921.195312 C 448.304688 922.75 434.875 924.769531 421.382812 926.121094 C 400.425781 928.222656 379.417969 930.277344 358.34375 927.898438 C 341.238281 925.972656 328.351562 917.246094 318.433594 903.195312 C 305.121094 884.339844 290.414062 866.566406 274.523438 849.78125 C 267.910156 842.792969 260.558594 837.515625 251.402344 834.019531 C 229.546875 825.675781 210.089844 812.8125 190.589844 800.082031 C 173.621094 789.003906 157.851562 776.488281 143.257812 762.453125 C 137.097656 756.535156 132.625 749.601562 130.21875 741.492188 C 118.921875 703.402344 104.96875 666.246094 91.054688 629.066406 C 87.53125 619.648438 84.332031 610.109375 81.738281 600.382812 C 81.519531 599.550781 81.488281 598.671875 81.371094 597.820312 C 85.210938 597.125 88.03125 594.199219 91.894531 593.289062 C 98.324219 591.777344 102.027344 592.699219 105.636719 598.402344 C 110.605469 606.242188 113.605469 615.019531 117.210938 623.5 C 125.871094 643.875 136.007812 663.359375 149.691406 680.933594 C 156.421875 689.570312 162.046875 699.042969 168.78125 707.722656 C 175.582031 716.484375 183.582031 724.191406 190.210938 733.117188 C 196.164062 741.136719 205.496094 744.457031 214.074219 748.730469 C 234.84375 759.078125 257.078125 765.257812 279.226562 771.691406 C 288.144531 774.28125 294.699219 770.496094 296.792969 761.636719 C 297.664062 757.941406 300.515625 755.203125 304.269531 755.117188 C 313.605469 754.90625 322.910156 754.195312 332.222656 753.539062 C 334.667969 753.371094 336.78125 754.011719 338.941406 755.277344 C 354.375 764.34375 367.898438 776.011719 382.132812 786.710938 C 386.816406 790.234375 391.714844 793.472656 396.847656 796.304688 C 404.738281 800.664062 413.261719 801.46875 422.148438 800.96875 C 439.148438 800.003906 454.894531 794.589844 470.125 787.632812 C 483.382812 781.574219 495.972656 774.144531 508.589844 766.847656 C 515.785156 762.6875 522.953125 761.320312 531.367188 762.703125 C 545.699219 765.0625 560.15625 766.777344 574.679688 767.875 C 587.71875 768.855469 600.753906 769.921875 613.8125 769.898438 C 633.496094 769.871094 653.09375 768.132812 672.457031 764.554688 C 683.457031 762.523438 693.015625 756.972656 701.722656 750.148438 C 718.96875 736.636719 736.527344 723.464844 753.0625 709.113281 C 767.929688 696.199219 778.429688 679.734375 785.660156 661.355469 C 790.589844 648.8125 793.457031 635.59375 797.800781 622.859375 C 802.191406 609.964844 808.449219 598.082031 818.582031 588.691406 C 829.804688 578.296875 842.578125 570.03125 855.972656 562.765625 C 876.070312 551.867188 897.550781 544.027344 918.492188 534.992188 C 923.753906 532.722656 929.070312 530.574219 934.347656 528.328125 C 935.636719 527.78125 936.902344 527.320312 938.320312 527.480469 Z M 467.054688 616.519531 C 484.738281 626.488281 503.734375 631.199219 524.117188 628.628906 C 540.136719 626.617188 555.84375 623.308594 569.847656 614.710938 C 590.554688 601.996094 607.945312 585.621094 623.601562 567.078125 C 637.523438 550.601562 645.480469 531.613281 650.367188 510.988281 C 650.910156 508.695312 651.8125 506.488281 652.550781 504.242188 C 650.867188 498.953125 646.992188 495.519531 642.570312 492.597656 C 639.347656 490.464844 636.109375 488.351562 632.792969 486.367188 C 621.652344 479.714844 609.820312 475.257812 596.605469 476.617188 C 586.171875 477.691406 575.902344 480.046875 566.0625 483.621094 C 544.175781 491.5625 523.464844 501.785156 504.707031 515.828125 C 487.601562 528.632812 471.011719 542.019531 457.328125 558.496094 C 446.695312 571.304688 439.832031 586 439.171875 603.046875 C 448.894531 606.660156 458.019531 611.425781 467.054688 616.519531 Z M 400.203125 407.113281 C 398.652344 394.59375 394.449219 383.195312 385.597656 373.855469 C 377.796875 365.625 367.582031 361.890625 357.058594 359.136719 C 345.757812 356.175781 334.5 353.253906 323.429688 349.417969 C 311.960938 345.449219 300.144531 345.617188 288.710938 350.441406 C 284.460938 352.230469 280.253906 354.121094 276.046875 355.996094 C 255.671875 365.074219 235.300781 374.136719 214.945312 383.257812 C 210.058594 385.449219 205.15625 387.644531 201.140625 391.367188 C 196.503906 395.667969 191.613281 399.710938 187.164062 404.195312 C 180.046875 411.367188 179.082031 419.039062 183.613281 428.113281 C 185.828125 432.5625 189.03125 436.140625 192.917969 439.164062 C 202.414062 425.628906 214.75 415.417969 229.289062 407.675781 C 243.371094 400.167969 257.539062 392.949219 272.730469 387.839844 C 294.65625 380.464844 316.855469 380.019531 339.414062 384.023438 C 352.15625 386.28125 363.839844 390.503906 373.644531 399.410156 C 381.671875 406.699219 390.441406 413.089844 399.453125 419.132812 C 401.898438 415.265625 400.699219 411.117188 400.203125 407.113281 Z M 616.949219 277.324219 C 620.753906 263.371094 619.0625 250.402344 609.671875 238.941406 C 603.597656 231.53125 595.5625 226.785156 587.058594 222.769531 C 575.46875 217.300781 563.179688 213.285156 552.488281 205.949219 C 544.738281 200.625 536.410156 196.453125 527.457031 193.523438 C 513.542969 188.976562 499.585938 186.898438 485.425781 192.441406 C 471.8125 197.773438 459.859375 205.917969 448.757812 215.183594 C 439.277344 223.101562 432.570312 233.75 423.996094 242.578125 C 413.644531 253.242188 419.882812 268.914062 427.878906 276.53125 C 428.054688 276.0625 428.164062 275.5625 428.414062 275.140625 C 437.933594 259.148438 449.746094 245.410156 466.566406 236.683594 C 476.199219 231.683594 486.253906 227.613281 496.503906 224.078125 C 503.570312 221.636719 510.855469 219.886719 518.394531 219.746094 C 538.902344 219.355469 558.210938 225.238281 577.476562 231.238281 C 583.421875 233.089844 587.816406 237.105469 590.886719 242.527344 C 595.554688 250.769531 599.992188 259.125 604.066406 267.683594 C 606.953125 273.746094 609.878906 279.828125 614.304688 285 C 616.261719 282.816406 616.238281 279.929688 616.949219 277.324219 Z M 268.933594 616.722656 C 259.398438 608.335938 251.15625 598.617188 241.347656 590.523438 C 232.714844 583.402344 223.25 578.125 211.914062 577.015625 C 206.296875 576.46875 200.617188 576.398438 195.855469 580.25 C 186.773438 587.605469 183.992188 597.632812 185.082031 608.628906 C 186.023438 618.066406 191.179688 625.863281 197.0625 633.136719 C 202.019531 639.265625 208.351562 644.113281 213.21875 650.253906 C 224.042969 663.914062 237.535156 672.71875 255.183594 673.871094 C 262.476562 674.347656 269.464844 672.882812 275.128906 667.332031 C 280.609375 661.964844 281.648438 655.261719 281.976562 649.222656 C 281.859375 635.945312 278.328125 624.996094 268.933594 616.722656 Z M 254.4375 654.929688 C 243.066406 653.617188 234.109375 648.105469 226.757812 639.515625 C 217.675781 628.898438 210.773438 617.015625 205.433594 604.15625 C 204.464844 601.824219 204.078125 599.371094 203.570312 596.9375 C 203.191406 595.132812 203.621094 594.019531 205.917969 594.507812 C 219.089844 597.328125 232.335938 599.875 243.054688 609.019531 C 250.722656 615.566406 255.480469 624.171875 260.171875 632.828125 C 262.4375 637.007812 264.246094 641.367188 264.695312 646.175781 C 264.542969 650.902344 259.144531 655.472656 254.4375 654.929688 Z M 281.355469 253.109375 C 275.023438 254.761719 270.320312 258.648438 267.355469 264.589844 C 264.390625 270.519531 261.871094 276.570312 260.6875 283.15625 C 259.285156 290.914062 263.171875 295.832031 270.964844 296.128906 C 277.042969 296.363281 282.808594 294.675781 288.640625 293.457031 C 299.40625 291.210938 310.292969 290.207031 321.25 290.335938 C 332.09375 290.464844 342.738281 292.230469 353.402344 294.304688 C 362.984375 296.164062 370.324219 287.578125 368.257812 278.070312 C 366.777344 271.25 361.957031 267.097656 356.621094 263.621094 C 341.375 253.675781 324.246094 249.871094 309.078125 248.957031 C 297.746094 248.8125 289.53125 250.976562 281.355469 253.109375 Z M 162.519531 370.011719 C 166.179688 361.570312 160.601562 353.292969 151.414062 352.957031 C 145.035156 352.722656 139.902344 355.605469 134.910156 359.019531 C 129.347656 362.820312 124.253906 367.214844 119.410156 371.859375 C 110.523438 380.386719 101.195312 388.53125 93.527344 398.21875 C 85.066406 408.917969 80.042969 420.894531 79.773438 434.902344 C 79.375 455.304688 84.082031 474.613281 90.914062 493.582031 C 91.257812 494.535156 91.597656 495.460938 92.558594 495.976562 C 96.746094 486.96875 98.332031 477.492188 97.828125 467.597656 C 97.667969 464.363281 97.445312 461.050781 97.953125 457.886719 C 101.050781 438.554688 105.847656 419.890625 117.957031 403.78125 C 122.351562 397.933594 127.65625 393.859375 134.234375 391.167969 C 140.542969 388.59375 147.253906 387.980469 153.960938 387.433594 C 157.457031 381.941406 159.953125 375.941406 162.519531 370.011719 Z M 790.75 359.128906 C 787.242188 355.027344 782.597656 352.207031 778.734375 348.527344 C 767.339844 337.675781 754.285156 332.019531 738.332031 335.082031 C 729.027344 336.871094 721.238281 341.042969 716.339844 349.585938 C 710.453125 359.859375 709.488281 370.878906 710.792969 382.429688 C 713.054688 402.554688 724.425781 417.203125 738.804688 430.144531 C 738.464844 426.164062 738.402344 422.167969 738.898438 418.214844 C 739.410156 414.105469 739.492188 409.996094 739.128906 405.921875 C 738.605469 399.953125 738.488281 394.039062 739.230469 388.0625 C 741.265625 371.703125 753.488281 360.8125 769.933594 360.390625 C 777.859375 360.1875 785.492188 361.921875 793.257812 362.75 C 793.007812 361.132812 791.710938 360.257812 790.75 359.128906 Z M 618.710938 664.226562 C 621.332031 667.730469 623.800781 671.332031 627.910156 673.320312 C 635.113281 676.804688 642.007812 675.050781 647.0625 668.449219 C 651.789062 662.273438 653.851562 654.925781 656.296875 647.738281 C 657.09375 645.386719 657.835938 643.011719 658.605469 640.652344 C 658.78125 637.847656 657.398438 635.335938 657.054688 632.628906 C 656.25 626.296875 652.824219 622.003906 646.480469 620.761719 C 635.847656 618.679688 624.972656 621.789062 617.84375 630.996094 C 612.730469 637.59375 612.828125 645.671875 610.601562 653.089844 C 614.132812 656.203125 615.964844 660.546875 618.710938 664.226562 Z M 681.765625 259.136719 C 691.058594 261.847656 698.535156 259.183594 705.324219 252.78125 C 710.296875 248.09375 713.90625 242.460938 717.585938 236.832031 C 717.683594 235.488281 717 234.441406 716.289062 233.414062 C 710.492188 225.046875 702.765625 221.171875 692.332031 221.042969 C 674.445312 220.816406 662.835938 237.824219 663.078125 251.597656 C 669.25 254.242188 675.25 257.242188 681.765625 259.136719 Z M 517.40625 348.824219 C 508.636719 336.8125 497.121094 328.699219 482.53125 325.617188 C 477.105469 324.472656 471.046875 324.210938 466.25 327.664062 C 459.417969 332.589844 453.988281 338.960938 451.066406 347.054688 C 449.464844 351.484375 450.167969 355.84375 453.5 359.199219 C 456.625 362.363281 460.273438 365.007812 464.609375 366.46875 C 464.492188 363.507812 465.140625 360.628906 466.886719 358.324219 C 473.199219 349.980469 480.769531 344.039062 492.078125 343.96875 C 501.765625 343.902344 510.496094 346.25 518.523438 351.539062 C 518.160156 350.632812 517.96875 349.59375 517.40625 348.824219 Z M 827.070312 532.792969 C 833.378906 525.082031 834.253906 517.601562 828.847656 511.429688 C 823.355469 505.175781 816.171875 501.4375 807.75 500.523438 C 804.429688 500.160156 801.667969 501.46875 799.328125 503.785156 C 795.171875 507.886719 792.925781 512.949219 791.945312 518.605469 C 789.949219 530.085938 798.621094 540.894531 808.636719 540.96875 C 816.953125 541.164062 822.640625 538.210938 827.070312 532.792969 Z M 806.828125 514.855469 C 808.675781 514.730469 815.195312 519.054688 815.339844 520.429688 C 815.503906 521.988281 811.984375 524.453125 809.644531 524.410156 C 806.609375 524.359375 804.515625 522.070312 804.46875 518.558594 C 804.609375 517.0625 804.246094 515.039062 806.828125 514.855469 Z M 703.777344 582.96875 C 708.457031 575.457031 711.957031 567.359375 714.695312 558.933594 C 710.703125 556.378906 705.972656 556.441406 701.628906 556.09375 C 693.539062 555.445312 686.273438 558.703125 679.839844 563.515625 C 676.46875 566.03125 674.554688 569.453125 674.953125 573.84375 C 675.839844 583.777344 678.980469 592.980469 683.976562 601.582031 C 694.046875 599.074219 698.84375 590.886719 703.777344 582.96875 Z M 393.558594 498.269531 C 383.054688 498.964844 377.941406 504.246094 378.605469 514.175781 C 378.996094 520.023438 380.316406 525.800781 382.539062 531.207031 C 386.515625 540.867188 396.195312 542.503906 403.5625 535.046875 C 410.488281 528.023438 412.332031 514.117188 406.882812 505.890625 C 404.285156 501.96875 401.3125 497.675781 395.210938 498.269531 C 394.800781 498.265625 394.175781 498.230469 393.558594 498.269531 Z M 652.460938 384.664062 C 653.003906 376.785156 647.542969 369.835938 639.609375 368.324219 C 633.050781 367.070312 626.878906 371.636719 624.636719 379.371094 C 624.257812 380.683594 623.742188 381.964844 623.339844 383.269531 C 620.726562 391.746094 627.003906 400.21875 635.859375 400.191406 C 644.636719 400.152344 651.855469 393.402344 652.460938 384.664062 Z M 359.46875 658.269531 C 361.816406 660.292969 364.320312 662.203125 366.96875 663.796875 C 372.460938 667.085938 378.742188 664.617188 380.875 658.566406 C 382.917969 652.78125 382.039062 647.296875 379.296875 641.984375 C 376.382812 636.339844 370.511719 632.972656 365.722656 634.1875 C 359.003906 635.886719 355.292969 640.746094 355.328125 647.796875 C 355.351562 651.988281 356.726562 655.90625 359.46875 658.269531 Z M 159.585938 322.097656 C 162.753906 326.160156 168.613281 328.472656 172.785156 327.296875 C 176.957031 326.125 180.378906 321.933594 180.816406 317.007812 C 181.476562 309.648438 178.714844 303.792969 172.34375 299.953125 C 168.449219 297.605469 164.242188 297.511719 160.246094 299.773438 C 156.476562 301.898438 155.15625 305.386719 155.472656 309.390625 C 155.507812 314.789062 156.683594 318.378906 159.585938 322.097656 Z M 861.082031 354.457031 C 856.105469 359.429688 854.535156 365.597656 855.847656 372.320312 C 856.664062 376.519531 858.953125 379.949219 863.582031 381.042969 C 867.96875 382.082031 871.378906 380.359375 874.25 377.21875 C 878 373.109375 879.375 368.007812 879.144531 362.71875 C 878.855469 355.84375 874.332031 351.457031 868.222656 351.46875 C 865.554688 351.296875 863.078125 352.460938 861.082031 354.457031 Z M 826.113281 302.386719 C 823.640625 296.65625 816.691406 294.507812 813.679688 298.746094 C 810.613281 303.058594 809.453125 308.117188 811.167969 313.3125 C 813.035156 318.976562 819.65625 320.304688 823.816406 316.054688 C 826.25 313.574219 826.964844 310.484375 826.949219 306.503906 C 827.070312 305.480469 826.769531 303.894531 826.113281 302.386719 Z M 328.644531 557.488281 C 325.722656 557.488281 323.386719 560.097656 323.257812 563.511719 C 323.007812 570.160156 327.699219 576.019531 333.359375 576.125 C 338.175781 576.21875 341.085938 573.242188 341.144531 568.167969 C 341.214844 561.703125 336.289062 557.492188 328.644531 557.488281 Z M 865.046875 322.253906 C 870.261719 322.300781 874.761719 318.050781 874.828125 313.015625 C 874.890625 307.910156 871.855469 305.070312 866.300781 305.042969 C 860.378906 305.015625 856.894531 308.160156 856.859375 313.574219 C 856.816406 318.527344 860.300781 322.214844 865.046875 322.253906 Z M 518.492188 351.496094 C 518.753906 351.777344 519.023438 352.058594 519.285156 352.335938 C 519.023438 352.050781 518.753906 351.769531 518.492188 351.496094 Z M 518.492188 351.496094 " fill-opacity="1" fill-rule="nonzero"/><g clip-path="url(#1a548a2ea2)"><path fill="#707070" d="M 944.472656 380.707031 C 944.472656 382.207031 944.472656 383.703125 944.472656 385.203125 C 943.207031 390.445312 943.375 395.683594 944.472656 400.925781 C 944.472656 403.171875 944.472656 405.421875 944.472656 407.664062 C 943.777344 408.410156 943.785156 409.164062 944.472656 409.910156 C 944.472656 411.65625 944.472656 413.40625 944.472656 415.152344 C 943.382812 417.398438 943.140625 419.644531 944.472656 421.886719 C 944.472656 424.382812 944.472656 426.875 944.472656 429.375 C 942.867188 432.777344 943.847656 436.402344 943.648438 439.910156 C 942.007812 469.109375 938.695312 498.210938 938.328125 527.488281 C 936.910156 527.324219 935.644531 527.785156 934.359375 528.328125 C 929.082031 530.574219 923.765625 532.71875 918.503906 534.992188 C 897.5625 544.035156 876.082031 551.867188 855.984375 562.765625 C 842.589844 570.023438 829.816406 578.289062 818.59375 588.691406 C 808.460938 598.074219 802.203125 609.964844 797.808594 622.859375 C 793.46875 635.59375 790.601562 648.8125 785.671875 661.355469 C 778.441406 679.742188 767.941406 696.207031 753.074219 709.109375 C 736.539062 723.464844 718.980469 736.636719 701.734375 750.148438 C 693.027344 756.972656 683.46875 762.523438 672.46875 764.554688 C 653.105469 768.132812 633.507812 769.863281 613.820312 769.898438 C 600.761719 769.921875 587.722656 768.859375 574.691406 767.875 C 560.167969 766.777344 545.710938 765.0625 531.378906 762.703125 C 522.964844 761.320312 515.789062 762.6875 508.601562 766.847656 C 495.984375 774.148438 483.394531 781.574219 470.136719 787.632812 C 454.90625 794.589844 439.160156 800.011719 422.160156 800.96875 C 413.265625 801.46875 404.75 800.664062 396.859375 796.304688 C 391.730469 793.46875 386.835938 790.234375 382.144531 786.710938 C 367.910156 776.003906 354.382812 764.34375 338.953125 755.277344 C 336.796875 754.011719 334.679688 753.363281 332.234375 753.539062 C 322.925781 754.195312 313.617188 754.910156 304.28125 755.117188 C 300.535156 755.195312 297.679688 757.941406 296.804688 761.636719 C 294.714844 770.496094 288.160156 774.28125 279.238281 771.691406 C 257.089844 765.257812 234.855469 759.078125 214.085938 748.730469 C 205.507812 744.457031 196.175781 741.136719 190.222656 733.117188 C 183.601562 724.191406 175.59375 716.484375 168.792969 707.722656 C 162.058594 699.042969 156.433594 689.570312 149.703125 680.933594 C 136.015625 663.359375 125.875 643.871094 117.222656 623.5 C 113.617188 615.019531 110.617188 606.234375 105.648438 598.402344 C 102.039062 592.699219 98.335938 591.777344 91.90625 593.289062 C 88.042969 594.199219 85.222656 597.125 81.382812 597.820312 C 80.34375 596.492188 80.230469 594.84375 79.855469 593.308594 C 70.425781 554.851562 63.847656 515.820312 56.585938 476.925781 C 55.296875 470.019531 55.328125 462.875 51.8125 456.351562 C 45.328125 444.316406 39.226562 432.070312 33.121094 419.835938 C 24.824219 403.203125 17.625 386.183594 15.824219 367.390625 C 15.261719 361.53125 15.507812 355.757812 17.21875 350.089844 C 18.007812 349.9375 18.5625 349.460938 18.976562 348.804688 C 26.4375 337.125 34.925781 326.21875 44.214844 315.945312 C 52.988281 306.238281 62.382812 297.140625 72.039062 288.320312 C 82.457031 278.8125 93.964844 270.699219 105.054688 262.03125 C 131.164062 241.632812 160.800781 229.898438 193.105469 224.257812 C 206.464844 221.921875 219.992188 220.894531 233.480469 219.523438 C 248.808594 217.964844 264.09375 215.855469 279.347656 213.628906 C 285.59375 212.71875 292.035156 212.421875 297.941406 209.84375 C 306.058594 206.304688 314.195312 202.734375 321.671875 197.96875 C 334.925781 189.523438 349.691406 183.71875 362.480469 174.5 C 375.464844 165.144531 389.410156 157.453125 403.496094 149.921875 C 415.792969 143.355469 429.050781 142.230469 442.328125 143.007812 C 453.316406 143.65625 464.242188 146.125 475.085938 148.3125 C 497.25 152.789062 518.695312 159.890625 539.839844 167.707031 C 548.1875 170.789062 555.632812 171.710938 564.257812 169.125 C 591.230469 161.035156 618.507812 154.007812 645.785156 147 C 658.777344 143.660156 671.636719 143.933594 684.320312 148.835938 C 692.175781 151.871094 699.5 155.886719 706.34375 160.652344 C 715.3125 166.890625 724.738281 171.839844 735.289062 174.996094 C 744.34375 177.707031 753.03125 181.617188 761.914062 184.90625 C 767.621094 187.027344 772.945312 190.167969 779.011719 191.304688 C 783.925781 194.03125 788.257812 197.601562 792.761719 200.917969 C 822.953125 223.132812 853.007812 245.515625 880.410156 271.207031 C 894.136719 284.078125 907.816406 296.984375 920.265625 311.125 C 934.5 327.296875 940.929688 346.53125 943.046875 367.59375 C 943.480469 371.972656 942.898438 376.464844 944.472656 380.707031 Z M 683.980469 601.582031 C 684.75 604.050781 686.367188 605.9375 688.359375 607.4375 C 693.914062 611.621094 701.578125 610.15625 706.007812 603.964844 C 712.816406 594.445312 717.066406 583.710938 720.316406 572.5625 C 721.050781 570.046875 721.011719 567.328125 720.492188 564.789062 C 719.867188 561.730469 718.273438 559.25 714.695312 558.929688 C 710.703125 556.375 705.964844 556.4375 701.628906 556.085938 C 693.539062 555.4375 686.273438 558.695312 679.839844 563.511719 C 676.46875 566.027344 674.554688 569.445312 674.953125 573.835938 C 675.847656 583.777344 678.984375 592.984375 683.980469 601.582031 Z M 518.492188 351.496094 L 518.523438 351.550781 C 518.160156 350.636719 517.96875 349.597656 517.40625 348.828125 C 508.636719 336.816406 497.121094 328.703125 482.53125 325.621094 C 477.105469 324.480469 471.046875 324.214844 466.25 327.671875 C 459.417969 332.597656 453.988281 338.964844 451.066406 347.0625 C 449.464844 351.492188 450.167969 355.851562 453.5 359.207031 C 456.625 362.371094 460.273438 365.015625 464.609375 366.472656 C 467.667969 370.058594 471.957031 371.972656 475.710938 374.597656 C 483.75 380.222656 492.585938 384.875 498.410156 393.191406 C 501.488281 397.582031 504.523438 402 507.453125 406.488281 C 509.808594 410.097656 512.757812 413.066406 516.269531 415.523438 C 522.296875 419.730469 530.53125 418.359375 534.84375 412.390625 C 540.273438 404.871094 540.933594 396.789062 537.589844 388.285156 C 534.429688 380.257812 530.1875 372.753906 526.367188 365.050781 C 524.210938 360.710938 522.507812 356.101562 519.285156 352.347656 C 519.023438 352.050781 518.753906 351.769531 518.492188 351.496094 Z M 717.585938 236.832031 C 717.683594 235.492188 717 234.441406 716.289062 233.414062 C 710.492188 225.046875 702.765625 221.171875 692.332031 221.042969 C 674.445312 220.816406 662.835938 237.824219 663.078125 251.597656 C 662.179688 252.78125 662.21875 254.175781 662.265625 255.542969 C 662.855469 271.582031 675.355469 280.453125 691.480469 279.410156 C 704.460938 278.566406 716.679688 266.773438 718.96875 253.933594 C 719.996094 248.148438 720.566406 242.328125 717.585938 236.832031 Z M 610.601562 653.089844 C 611.160156 666.753906 616.472656 678.660156 625.476562 688.539062 C 636.308594 700.414062 652.113281 696.117188 656.285156 680.640625 C 658.898438 670.941406 659.425781 660.988281 659.226562 651.003906 C 659.15625 647.550781 659.921875 644.03125 658.613281 640.652344 C 658.789062 637.847656 657.40625 635.335938 657.058594 632.628906 C 656.253906 626.296875 652.828125 622.003906 646.484375 620.761719 C 635.851562 618.679688 624.980469 621.789062 617.847656 630.996094 C 612.730469 637.59375 612.832031 645.671875 610.601562 653.089844 Z M 738.796875 430.144531 C 739.515625 431.292969 739.890625 432.621094 740.980469 433.578125 C 750.832031 442.238281 761.820312 448.097656 775.402344 447.320312 C 795.125 446.191406 809.109375 435.566406 808.933594 413.796875 C 808.886719 407.972656 808.261719 402.152344 808.273438 396.328125 C 808.292969 382.84375 801.679688 372.414062 793.257812 362.75 C 793.011719 361.132812 791.710938 360.257812 790.753906 359.128906 C 787.246094 355.027344 782.601562 352.207031 778.738281 348.527344 C 767.347656 337.675781 754.292969 332.019531 738.335938 335.082031 C 729.035156 336.871094 721.242188 341.042969 716.347656 349.585938 C 710.457031 359.859375 709.496094 370.878906 710.796875 382.429688 C 713.050781 402.554688 724.417969 417.203125 738.796875 430.144531 Z M 153.960938 387.425781 C 157.457031 381.941406 159.953125 375.941406 162.519531 370.011719 C 166.179688 361.570312 160.601562 353.292969 151.414062 352.957031 C 145.035156 352.722656 139.902344 355.605469 134.910156 359.019531 C 129.347656 362.820312 124.253906 367.214844 119.410156 371.859375 C 110.523438 380.386719 101.195312 388.53125 93.527344 398.21875 C 85.066406 408.917969 80.042969 420.894531 79.773438 434.902344 C 79.375 455.304688 84.082031 474.613281 90.914062 493.582031 C 91.257812 494.535156 91.597656 495.460938 92.558594 495.976562 C 92.800781 497.191406 92.851562 498.46875 93.300781 499.601562 C 96.832031 508.535156 100.898438 517.222656 105.835938 525.46875 C 110.160156 532.6875 116.183594 537.609375 124.816406 538.441406 C 128.644531 538.8125 132.53125 538.734375 136.386719 538.660156 C 148.34375 538.429688 156.667969 528.09375 154.339844 516.351562 C 152.644531 507.804688 150.71875 499.300781 149.105469 490.746094 C 146.167969 475.234375 142.5625 459.78125 142.796875 443.871094 C 142.917969 435.414062 144.375 427.039062 145.804688 418.714844 C 147.640625 408.070312 148.742188 397.195312 153.960938 387.425781 Z M 427.875 276.53125 C 430.820312 282.535156 436.3125 285.191406 442.242188 286.902344 C 448.839844 288.804688 455.667969 289.5 462.5625 289.378906 C 469.535156 289.253906 476.484375 289.390625 483.417969 290.480469 C 499.480469 293.011719 514.226562 299.441406 529.121094 305.5 C 542.484375 310.9375 555.597656 317.070312 570.175781 319 C 593.9375 322.136719 610.859375 307.15625 614.300781 285 C 616.253906 282.816406 616.238281 279.929688 616.945312 277.324219 C 620.75 263.371094 619.058594 250.402344 609.667969 238.941406 C 603.59375 231.53125 595.554688 226.785156 587.054688 222.769531 C 575.464844 217.300781 563.171875 213.285156 552.480469 205.949219 C 544.730469 200.625 536.402344 196.453125 527.449219 193.523438 C 513.539062 188.976562 499.578125 186.898438 485.421875 192.441406 C 471.804688 197.773438 459.855469 205.917969 448.753906 215.183594 C 439.269531 223.101562 432.566406 233.75 423.992188 242.578125 C 413.644531 253.242188 419.882812 268.921875 427.875 276.53125 Z M 399.445312 419.125 C 401.898438 415.261719 400.699219 411.117188 400.203125 407.109375 C 398.652344 394.589844 394.449219 383.1875 385.597656 373.851562 C 377.796875 365.621094 367.582031 361.886719 357.058594 359.128906 C 345.757812 356.171875 334.5 353.246094 323.429688 349.414062 C 311.960938 345.445312 300.144531 345.613281 288.710938 350.433594 C 284.460938 352.226562 280.253906 354.117188 276.046875 355.992188 C 255.671875 365.066406 235.300781 374.128906 214.945312 383.253906 C 210.058594 385.441406 205.15625 387.636719 201.140625 391.359375 C 196.503906 395.660156 191.613281 399.707031 187.164062 404.1875 C 180.046875 411.363281 179.082031 419.03125 183.613281 428.109375 C 185.828125 432.554688 189.03125 436.132812 192.917969 439.15625 C 194.855469 442.035156 197.746094 443.835938 200.554688 445.648438 C 217.910156 456.871094 236.460938 465.574219 256.25 471.585938 C 264.113281 473.972656 272.082031 476.027344 279.851562 478.683594 C 291.773438 482.75 303.398438 483.242188 315.019531 477.632812 C 329.375 470.703125 343.820312 463.957031 357.917969 456.519531 C 369.742188 450.285156 381.046875 443.230469 390.996094 434.289062 C 395.390625 430.34375 399.582031 425.820312 399.445312 419.125 Z M 652.550781 504.246094 C 650.867188 498.957031 646.992188 495.527344 642.570312 492.601562 C 639.347656 490.472656 636.109375 488.359375 632.792969 486.375 C 621.652344 479.722656 609.820312 475.261719 596.605469 476.621094 C 586.171875 477.695312 575.902344 480.054688 566.0625 483.625 C 544.175781 491.570312 523.464844 501.789062 504.707031 515.832031 C 487.601562 528.636719 471.011719 542.027344 457.328125 558.503906 C 446.695312 571.308594 439.832031 586.003906 439.171875 603.054688 C 439.75 605.214844 440.1875 607.425781 440.941406 609.527344 C 443.417969 616.414062 448.804688 620.628906 454.910156 623.984375 C 463.910156 628.929688 473.566406 632.3125 483.261719 635.597656 C 504.761719 642.890625 526.703125 647.664062 549.539062 647.207031 C 558.363281 647.035156 566.457031 644.53125 573.507812 638.984375 C 578.835938 634.792969 583.335938 629.757812 587.625 624.601562 C 600.550781 609.089844 614.160156 594.195312 627.925781 579.441406 C 638.339844 568.28125 647.429688 556.199219 655.617188 543.3125 C 663.957031 530.183594 661.925781 514.25 652.550781 504.246094 Z M 281.976562 649.226562 C 281.859375 635.945312 278.324219 624.996094 268.933594 616.722656 C 259.398438 608.335938 251.15625 598.617188 241.347656 590.523438 C 232.714844 583.402344 223.25 578.125 211.914062 577.015625 C 206.296875 576.46875 200.617188 576.398438 195.855469 580.25 C 186.773438 587.605469 183.992188 597.632812 185.082031 608.628906 C 186.023438 618.066406 191.179688 625.863281 197.0625 633.136719 C 202.019531 639.265625 208.351562 644.113281 213.21875 650.253906 C 224.042969 663.914062 237.535156 672.71875 255.183594 673.871094 C 262.476562 674.347656 269.464844 672.882812 275.128906 667.332031 C 280.617188 661.96875 281.648438 655.269531 281.976562 649.226562 Z M 309.078125 248.964844 C 297.746094 248.820312 289.53125 250.976562 281.355469 253.113281 C 275.023438 254.765625 270.320312 258.652344 267.355469 264.59375 C 264.390625 270.523438 261.871094 276.578125 260.6875 283.160156 C 259.285156 290.917969 263.171875 295.839844 270.964844 296.136719 C 277.042969 296.371094 282.808594 294.683594 288.640625 293.464844 C 299.40625 291.214844 310.292969 290.210938 321.25 290.339844 C 332.09375 290.46875 342.738281 292.238281 353.402344 294.308594 C 362.984375 296.171875 370.324219 287.585938 368.257812 278.078125 C 366.777344 271.253906 361.957031 267.105469 356.621094 263.625 C 341.375 253.675781 324.246094 249.875 309.078125 248.964844 Z M 808.625 540.964844 C 816.945312 541.164062 822.640625 538.210938 827.070312 532.792969 C 833.378906 525.082031 834.253906 517.601562 828.847656 511.429688 C 823.355469 505.175781 816.171875 501.4375 807.75 500.523438 C 804.429688 500.160156 801.667969 501.46875 799.328125 503.785156 C 795.171875 507.886719 792.925781 512.949219 791.945312 518.605469 C 789.945312 530.078125 798.617188 540.886719 808.625 540.964844 Z M 395.203125 498.265625 C 394.800781 498.265625 394.175781 498.230469 393.558594 498.269531 C 383.054688 498.964844 377.941406 504.246094 378.605469 514.175781 C 378.996094 520.023438 380.316406 525.800781 382.539062 531.207031 C 386.515625 540.867188 396.195312 542.503906 403.5625 535.046875 C 410.488281 528.023438 412.332031 514.117188 406.882812 505.890625 C 404.277344 501.964844 401.308594 497.664062 395.203125 498.265625 Z M 635.859375 400.179688 C 644.636719 400.152344 651.855469 393.402344 652.460938 384.660156 C 653.003906 376.78125 647.542969 369.828125 639.609375 368.316406 C 633.050781 367.0625 626.878906 371.632812 624.636719 379.367188 C 624.257812 380.679688 623.742188 381.957031 623.339844 383.265625 C 620.726562 391.734375 627 400.214844 635.859375 400.179688 Z M 355.332031 647.796875 C 355.351562 651.988281 356.734375 655.910156 359.46875 658.269531 C 361.816406 660.292969 364.320312 662.203125 366.96875 663.796875 C 372.460938 667.085938 378.742188 664.617188 380.875 658.566406 C 382.917969 652.78125 382.039062 647.296875 379.296875 641.984375 C 376.382812 636.339844 370.511719 632.972656 365.722656 634.1875 C 359.007812 635.886719 355.296875 640.746094 355.332031 647.796875 Z M 155.472656 309.398438 C 155.507812 314.796875 156.691406 318.378906 159.589844 322.097656 C 162.761719 326.160156 168.621094 328.472656 172.792969 327.296875 C 176.964844 326.125 180.382812 321.933594 180.820312 317.007812 C 181.480469 309.648438 178.722656 303.792969 172.347656 299.953125 C 168.457031 297.605469 164.25 297.511719 160.25 299.773438 C 156.476562 301.898438 155.15625 305.386719 155.472656 309.398438 Z M 868.214844 351.472656 C 865.554688 351.304688 863.078125 352.460938 861.078125 354.460938 C 856.097656 359.433594 854.53125 365.605469 855.84375 372.328125 C 856.660156 376.523438 858.949219 379.957031 863.574219 381.046875 C 867.964844 382.085938 871.371094 380.363281 874.242188 377.222656 C 877.996094 373.117188 879.367188 368.015625 879.140625 362.726562 C 878.855469 355.84375 874.332031 351.460938 868.214844 351.472656 Z M 826.949219 306.503906 C 827.066406 305.488281 826.769531 303.894531 826.113281 302.386719 C 823.640625 296.65625 816.691406 294.507812 813.679688 298.746094 C 810.613281 303.058594 809.453125 308.117188 811.167969 313.3125 C 813.035156 318.976562 819.652344 320.304688 823.816406 316.054688 C 826.25 313.574219 826.964844 310.484375 826.949219 306.503906 Z M 341.140625 568.167969 C 341.210938 561.703125 336.289062 557.488281 328.640625 557.480469 C 325.714844 557.480469 323.382812 560.089844 323.253906 563.503906 C 323.003906 570.152344 327.695312 576.011719 333.355469 576.117188 C 338.167969 576.21875 341.085938 573.242188 341.140625 568.167969 Z M 856.847656 313.582031 C 856.8125 318.527344 860.300781 322.214844 865.039062 322.261719 C 870.257812 322.308594 874.757812 318.058594 874.820312 313.023438 C 874.886719 307.914062 871.851562 305.078125 866.292969 305.046875 C 860.371094 305.015625 856.886719 308.164062 856.847656 313.582031 Z M 260.160156 632.828125 C 255.46875 624.171875 250.710938 615.566406 243.042969 609.019531 C 232.324219 599.875 219.082031 597.324219 205.90625 594.507812 C 203.617188 594.019531 203.183594 595.132812 203.558594 596.9375 C 204.066406 599.367188 204.453125 601.824219 205.421875 604.15625 C 210.765625 617.015625 217.664062 628.898438 226.746094 639.515625 C 234.097656 648.113281 243.054688 653.621094 254.425781 654.929688 C 259.140625 655.472656 264.53125 650.902344 264.671875 646.175781 C 264.234375 641.367188 262.429688 637.007812 260.160156 632.828125 Z M 809.644531 524.417969 C 811.984375 524.457031 815.503906 521.996094 815.339844 520.4375 C 815.195312 519.058594 808.675781 514.734375 806.828125 514.863281 C 804.246094 515.039062 804.609375 517.070312 804.46875 518.570312 C 804.515625 522.070312 806.609375 524.363281 809.644531 524.417969 Z M 809.644531 524.417969 " fill-opacity="1" fill-rule="nonzero"/></g></svg>