<svg xmlns="http://www.w3.org/2000/svg" xmlns:xlink="http://www.w3.org/1999/xlink" width="1280" zoomAndPan="magnify" viewBox="0 0 960 959.999988" height="1280" preserveAspectRatio="xMidYMid meet" version="1.0"><path fill="#ec6e45" d="M 491.59375 956.617188 C 491.59375 956.617188 192.476562 959.90625 169.453125 698.421875 C 158.195312 511.839844 266.488281 462.125 260.476562 283.085938 C 260.304688 277.976562 266.148438 274.976562 270.226562 278.058594 C 289.140625 292.363281 328.890625 327.71875 345.300781 382.304688 C 347.128906 388.390625 355.898438 387.902344 357.078125 381.65625 C 372.898438 298.007812 435.515625 89.214844 672.84375 1.890625 C 678.1875 -0.078125 683.050781 5.792969 680.152344 10.695312 C 654.773438 53.664062 586.847656 182.140625 631.53125 259.328125 C 663.746094 314.980469 677.996094 352.664062 684.257812 374.097656 C 685.945312 379.871094 694.085938 379.941406 695.890625 374.199219 L 708.710938 333.476562 C 710.648438 327.320312 719.570312 328.007812 720.523438 334.390625 C 738.023438 451.261719 801.882812 556.539062 795.929688 678.683594 C 792.351562 752 769.890625 826.816406 716.230469 879.25 C 656.917969 937.199219 572.101562 955.929688 491.59375 956.617188 Z M 491.59375 956.617188 " fill-opacity="1" fill-rule="nonzero"/><path fill="#f8d462" d="M 412.660156 596.867188 C 417.207031 600.460938 423.699219 596.3125 422.351562 590.675781 C 391.847656 463.332031 470.335938 372.699219 503.800781 340.890625 C 508.027344 336.871094 514.972656 340.515625 513.992188 346.265625 C 503.347656 408.730469 530.703125 467.382812 577.261719 510.941406 C 615.1875 546.421875 614.882812 589.183594 612.246094 608.757812 C 611.589844 613.59375 616.628906 617.105469 621.015625 614.96875 C 649.09375 601.28125 668.425781 575.859375 677.75 561.335938 C 680.5 557.058594 686.933594 557.859375 688.613281 562.65625 C 726.785156 671.738281 743.707031 865.941406 498.066406 865.183594 C 241.945312 864.398438 282.914062 678.683594 299.359375 629.347656 C 310.703125 595.3125 298.570312 570.671875 289.949219 558.65625 C 287.117188 554.707031 289.730469 549.253906 294.585938 548.972656 C 341.429688 546.246094 389.160156 578.285156 412.660156 596.867188 Z M 412.660156 596.867188 " fill-opacity="1" fill-rule="nonzero"/></svg>