<svg xmlns="http://www.w3.org/2000/svg" xmlns:xlink="http://www.w3.org/1999/xlink" width="1280" zoomAndPan="magnify" viewBox="0 0 960 959.999988" height="1280" preserveAspectRatio="xMidYMid meet" version="1.0"><defs><clipPath id="da3641e432"><path d="M 113 254 L 850 254 L 850 920.066406 L 113 920.066406 Z M 113 254 " clip-rule="nonzero"/></clipPath></defs><path fill="#ffffff" d="M 923.972656 348.945312 L 774.777344 239.199219 L 774.777344 108.292969 C 774.777344 87.769531 758.121094 71.167969 737.625 71.167969 L 677.246094 71.167969 C 656.71875 71.167969 640.089844 87.796875 640.089844 108.292969 L 640.089844 140.097656 L 526.335938 56.429688 C 501.652344 38.230469 461.242188 38.230469 436.5625 56.429688 L 38.921875 348.945312 C 14.242188 367.113281 8.921875 402.203125 27.089844 426.914062 L 38.082031 441.828125 C 56.222656 466.539062 91.308594 471.886719 115.964844 453.71875 L 436.5625 217.773438 C 461.242188 199.605469 501.652344 199.605469 526.335938 217.773438 L 846.90625 453.71875 C 871.585938 471.886719 906.648438 466.511719 924.789062 441.828125 L 935.804688 426.914062 C 953.945312 402.203125 948.625 367.113281 923.972656 348.945312 Z M 923.972656 348.945312 " fill-opacity="1" fill-rule="nonzero"/><g clip-path="url(#da3641e432)"><path fill="#ffffff" d="M 805.011719 474.242188 L 526.246094 268.214844 C 501.59375 249.988281 461.300781 249.988281 436.648438 268.214844 L 157.882812 474.242188 C 133.230469 492.472656 113.054688 519.128906 113.054688 533.578125 L 113.054688 832.285156 C 113.054688 880.777344 154.628906 920.109375 205.9375 920.109375 L 376.179688 920.109375 L 376.179688 655.882812 C 376.179688 635.472656 392.898438 618.785156 413.304688 618.785156 L 549.535156 618.785156 C 569.941406 618.785156 586.65625 635.472656 586.65625 655.882812 L 586.65625 920.109375 L 756.929688 920.109375 C 808.210938 920.109375 849.753906 880.777344 849.753906 832.285156 L 849.753906 533.578125 C 849.78125 519.128906 829.664062 492.472656 805.011719 474.242188 Z M 805.011719 474.242188 " fill-opacity="1" fill-rule="nonzero"/></g></svg>