<svg xmlns="http://www.w3.org/2000/svg" xmlns:xlink="http://www.w3.org/1999/xlink" width="1280" zoomAndPan="magnify" viewBox="0 0 960 959.999988" height="1280" preserveAspectRatio="xMidYMid meet" version="1.0"><defs><clipPath id="427a099c1b"><path d="M 11.234375 11.234375 L 948.734375 11.234375 L 948.734375 948.734375 L 11.234375 948.734375 Z M 11.234375 11.234375 " clip-rule="nonzero"/></clipPath><clipPath id="e0bc2228d1"><path d="M 11.234375 438 L 939 438 L 939 752 L 11.234375 752 Z M 11.234375 438 " clip-rule="nonzero"/></clipPath><clipPath id="55e666ce05"><path d="M 601 454 L 948.734375 454 L 948.734375 553 L 601 553 Z M 601 454 " clip-rule="nonzero"/></clipPath><clipPath id="ae52554702"><path d="M 240 11.234375 L 735 11.234375 L 735 144 L 240 144 Z M 240 11.234375 " clip-rule="nonzero"/></clipPath></defs><g clip-path="url(#427a099c1b)"><path fill="#4b6aa2" d="M 480.113281 11.234375 C 738.84375 11.234375 948.757812 221.148438 948.757812 479.882812 C 948.757812 738.84375 738.84375 948.757812 480.113281 948.757812 C 221.148438 948.757812 11.234375 738.84375 11.234375 479.882812 C 11.234375 221.148438 221.148438 11.234375 480.113281 11.234375 Z M 480.113281 11.234375 " fill-opacity="1" fill-rule="evenodd"/></g><g clip-path="url(#e0bc2228d1)"><path fill="#7296d6" d="M 938.066406 580.074219 C 929.230469 620.519531 915.285156 658.878906 896.917969 694.675781 C 829.96875 712.578125 722.804688 680.960938 676.078125 713.042969 C 647.488281 732.800781 547.992188 770.460938 475.695312 740.472656 C 442.6875 726.757812 286.9375 742.097656 242.769531 723.269531 C 175.121094 694.445312 146.761719 651.902344 73.304688 651.902344 L 43.78125 651.902344 C 22.859375 598.667969 11.234375 540.785156 11.234375 479.882812 C 11.234375 465.933594 11.933594 451.984375 13.09375 438.039062 C 29.136719 449.660156 52.148438 473.371094 101.429688 473.371094 C 174.890625 473.371094 163.035156 484.761719 217.894531 518.238281 C 279.964844 556.128906 380.851562 542.644531 454.308594 542.644531 C 515.679688 542.644531 598.902344 544.273438 651.4375 575.886719 C 679.800781 592.859375 880.878906 590.300781 938.066406 580.074219 Z M 938.066406 580.074219 " fill-opacity="1" fill-rule="evenodd"/></g><path fill="#5f7fb8" d="M 921.328125 638.652344 C 914.355469 657.949219 906.21875 676.542969 896.917969 694.675781 C 829.96875 712.578125 722.804688 680.960938 676.078125 713.042969 C 647.488281 732.800781 547.992188 770.460938 475.695312 740.472656 C 442.6875 726.757812 286.9375 742.097656 242.769531 723.269531 C 188.835938 700.257812 159.78125 668.640625 113.054688 656.785156 L 113.054688 656.554688 C 221.148438 696.070312 315.761719 738.613281 428.273438 718.621094 C 492.203125 707.230469 509.402344 727.6875 576.585938 722.574219 C 639.351562 717.921875 730.476562 672.128906 818.113281 670.734375 C 859.492188 669.804688 882.507812 654.695312 921.328125 638.652344 Z M 921.328125 638.652344 " fill-opacity="1" fill-rule="evenodd"/><path fill="#4b6aa2" d="M 28.207031 605.875 C 20.300781 577.28125 14.957031 547.527344 12.628906 517.074219 C 139.324219 555.433594 151.644531 514.519531 280.894531 594.71875 C 345.050781 634.46875 343.65625 576.351562 372.019531 591.464844 C 407.351562 610.527344 295.769531 662.132812 241.605469 634.003906 C 183.492188 603.785156 97.246094 588.441406 28.207031 605.875 Z M 28.207031 605.875 " fill-opacity="1" fill-rule="evenodd"/><g clip-path="url(#55e666ce05)"><path fill="#5f7fb8" d="M 948.0625 454.078125 C 948.527344 462.679688 948.757812 471.28125 948.757812 479.882812 C 948.757812 498.941406 947.597656 517.539062 945.503906 535.90625 C 905.753906 549.851562 834.386719 557.988281 797.65625 547.527344 C 757.675781 536.136719 732.800781 514.984375 690.261719 514.984375 C 657.484375 514.984375 641.90625 532.417969 615.871094 525.210938 C 556.828125 508.707031 690.027344 458.960938 778.828125 498.941406 C 845.777344 529.164062 846.476562 459.65625 948.0625 454.078125 Z M 948.0625 454.078125 " fill-opacity="1" fill-rule="evenodd"/></g><path fill="#5f7fb8" d="M 795.332031 133.277344 C 854.378906 186.746094 899.476562 255.089844 925.046875 332.5 C 914.355469 342.960938 900.871094 354.351562 891.574219 356.210938 C 880.648438 358.535156 880.878906 363.417969 852.285156 366.207031 C 758.835938 375.039062 801.144531 368.765625 733.265625 408.980469 C 645.628906 461.050781 599.597656 336.21875 483.601562 424.324219 C 450.824219 449.195312 401.078125 443.382812 363.882812 428.273438 C 243.234375 379.921875 156.757812 429.4375 29.832031 348.773438 C 54.007812 266.015625 100.269531 192.558594 162.105469 135.371094 C 203.949219 182.097656 263.457031 192.09375 329.941406 184.652344 C 370.625 180.003906 393.871094 159.082031 458.261719 159.082031 C 509.402344 159.082031 528 169.078125 574.027344 169.777344 C 604.480469 170.242188 605.875 139.089844 693.050781 151.179688 C 736.519531 157.222656 763.71875 146.527344 795.332031 133.277344 Z M 795.332031 133.277344 " fill-opacity="1" fill-rule="evenodd"/><path fill="#7296d6" d="M 887.855469 248.8125 C 899.710938 269.734375 909.9375 291.355469 918.539062 313.902344 C 911.796875 322.269531 902.964844 329.011719 893.199219 332.964844 C 839.964844 355.046875 775.804688 331.335938 721.875 358.769531 C 692.816406 373.414062 663.292969 408.746094 580.074219 375.039062 C 478.488281 333.660156 341.332031 422.929688 203.714844 353.421875 C 170.472656 336.453125 78.648438 308.089844 35.410156 330.871094 C 43.78125 306 54.007812 282.289062 66.097656 259.507812 C 117.472656 274.382812 118.632812 277.871094 168.84375 306 C 238.816406 345.515625 288.097656 330.40625 360.859375 325.757812 C 413.164062 322.269531 448.265625 320.875 498.011719 334.824219 C 528.699219 343.425781 570.078125 340.867188 599.367188 326.457031 C 666.550781 293.445312 709.320312 354.816406 797.890625 284.378906 C 839.734375 251.136719 860.886719 275.546875 887.855469 248.8125 Z M 887.855469 248.8125 " fill-opacity="1" fill-rule="evenodd"/><path fill="#88a7df" d="M 825.554688 163.265625 C 831.597656 169.542969 837.175781 176.285156 842.757812 183.027344 C 815.324219 200.925781 775.804688 243.234375 675.613281 243.234375 C 602.15625 243.234375 539.160156 236.957031 469.421875 256.714844 C 427.34375 268.574219 400.84375 229.519531 308.089844 260.902344 C 230.214844 287.167969 173.960938 266.480469 114.21875 211.152344 C 112.589844 209.992188 107.707031 205.574219 102.824219 201.855469 C 111.425781 190 120.492188 178.839844 130.023438 168.148438 C 188.140625 176.980469 201.390625 226.265625 302.511719 226.265625 C 376.433594 226.265625 404.097656 192.558594 481.277344 197.4375 C 534.277344 200.925781 551.945312 234.863281 620.054688 210.921875 C 703.976562 181.398438 706.765625 199.996094 770.460938 188.835938 C 778.132812 187.441406 808.117188 173.261719 825.554688 163.265625 Z M 825.554688 163.265625 " fill-opacity="1" fill-rule="evenodd"/><g clip-path="url(#ae52554702)"><path fill="#5f7fb8" d="M 480.113281 11.234375 C 573.796875 11.234375 660.96875 38.667969 734.195312 86.089844 C 697.929688 116.308594 619.125 123.980469 584.023438 119.796875 C 558.222656 116.773438 552.410156 116.773438 525.445312 116.773438 C 416.652344 116.773438 368.300781 197.4375 240.675781 76.789062 C 310.648438 35.179688 392.476562 11.234375 480.113281 11.234375 Z M 480.113281 11.234375 " fill-opacity="1" fill-rule="evenodd"/></g><path fill="#88a7df" d="M 635.398438 37.503906 C 655.625 44.710938 675.382812 53.078125 694.210938 62.84375 C 689.332031 66.097656 684.914062 68.886719 683.054688 69.816406 C 650.972656 84.460938 624.472656 80.976562 588.90625 86.320312 C 563.335938 90.273438 484.296875 79.8125 468.257812 87.714844 C 370.390625 136.765625 365.507812 118.632812 286.238281 69.351562 C 280.894531 66.097656 274.152344 63.773438 267.640625 61.914062 C 274.617188 58.425781 281.589844 55.171875 288.796875 51.917969 C 306.929688 49.824219 333.894531 62.609375 345.050781 77.71875 C 359 97.015625 393.40625 92.132812 408.980469 78.417969 C 465.234375 28.671875 514.984375 87.25 572.402344 68.652344 C 596.578125 60.75 620.519531 47.035156 635.398438 37.503906 Z M 635.398438 37.503906 " fill-opacity="1" fill-rule="evenodd"/><path fill="#5f7fb8" d="M 415.488281 223.472656 C 439.433594 214.875 481.042969 217.429688 468.957031 241.375 C 464.304688 250.441406 431.527344 240.675781 413.398438 235.328125 C 399.449219 231.378906 394.800781 230.914062 415.488281 223.472656 Z M 415.488281 223.472656 " fill-opacity="1" fill-rule="evenodd"/><path fill="#88a7df" d="M 567.984375 268.105469 C 518.703125 249.976562 512.660156 289.492188 526.375 289.261719 C 528.699219 289.027344 551.480469 295.539062 568.914062 295.304688 C 596.113281 294.609375 595.183594 278.335938 567.984375 268.105469 Z M 567.984375 268.105469 " fill-opacity="1" fill-rule="evenodd"/><path fill="#88a7df" d="M 721.644531 647.488281 C 732.105469 644.464844 773.714844 598.203125 775.804688 643.300781 C 776.738281 662.828125 716.761719 671.894531 710.949219 663.992188 C 700.488281 649.578125 720.710938 647.71875 721.644531 647.488281 Z M 721.644531 647.488281 " fill-opacity="1" fill-rule="evenodd"/><path fill="#88a7df" d="M 684.914062 641.210938 C 690.957031 641.210938 710.019531 606.574219 666.550781 617.730469 C 663.0625 618.660156 597.507812 664.6875 623.777344 669.105469 C 662.597656 675.382812 635.398438 640.746094 684.914062 641.210938 Z M 684.914062 641.210938 " fill-opacity="1" fill-rule="evenodd"/><path fill="#88a7df" d="M 487.320312 618.195312 C 490.808594 636.328125 461.050781 638.652344 447.335938 630.515625 C 414.09375 610.292969 425.484375 540.320312 524.050781 569.84375 C 557.058594 579.609375 614.941406 552.640625 619.824219 613.546875 C 622.148438 640.746094 612.386719 646.09375 594.949219 665.851562 C 577.980469 685.144531 540.089844 693.050781 541.25 665.617188 C 541.949219 650.277344 516.609375 659.109375 514.519531 650.742188 C 507.078125 621.449219 530.324219 633.539062 554.5 610.757812 C 570.542969 595.648438 476.859375 562.40625 487.320312 618.195312 Z M 487.320312 618.195312 " fill-opacity="1" fill-rule="evenodd"/><path fill="#88a7df" d="M 256.714844 732.105469 C 227.425781 743.726562 246.023438 776.96875 302.046875 776.96875 C 318.550781 776.96875 395.496094 784.175781 371.089844 753.722656 C 348.773438 726.058594 287.167969 720.015625 256.714844 732.105469 Z M 256.714844 732.105469 " fill-opacity="1" fill-rule="evenodd"/><path fill="#7296d6" d="M 418.976562 802.308594 C 414.09375 837.875 484.996094 816.71875 498.941406 817.183594 C 504.523438 817.417969 554.734375 805.097656 516.609375 791.148438 C 494.527344 783.011719 424.324219 764.414062 418.976562 802.308594 Z M 418.976562 802.308594 " fill-opacity="1" fill-rule="evenodd"/><path fill="#7296d6" d="M 149.320312 757.675781 C 140.484375 783.011719 166.984375 785.570312 187.210938 794.636719 C 206.273438 803.238281 219.289062 788.128906 201.855469 768.136719 C 196.972656 762.324219 162.105469 720.710938 149.320312 757.675781 Z M 149.320312 757.675781 " fill-opacity="1" fill-rule="evenodd"/></svg>