<svg xmlns="http://www.w3.org/2000/svg" xmlns:xlink="http://www.w3.org/1999/xlink" width="1280" zoomAndPan="magnify" viewBox="0 0 960 959.999988" height="1280" preserveAspectRatio="xMidYMid meet" version="1.0"><path fill="#ffffff" d="M 480 0 C 214.894531 0 0 214.894531 0 480 C 0 745.105469 214.894531 960 480 960 C 745.105469 960 960 745.105469 960 480 C 960 214.894531 745.105469 0 480 0 Z M 672 528 L 403.871094 528 L 480 604.128906 C 498.71875 622.847656 498.71875 653.28125 480 672 C 461.28125 690.71875 430.847656 690.71875 412.128906 672 L 254.0625 513.9375 C 235.296875 495.167969 235.296875 464.785156 254.0625 446.0625 L 412.128906 288 C 430.847656 269.28125 461.28125 269.28125 480 288 C 498.71875 306.71875 498.71875 337.152344 480 355.871094 L 403.871094 432 L 672 432 C 698.496094 432 720 453.503906 720 480 C 720 506.496094 698.496094 528 672 528 Z M 672 528 " fill-opacity="1" fill-rule="nonzero"/></svg>